<?xml version="1.0" encoding="utf-8"?>
<!-- Generator: Adobe Illustrator 16.0.0, SVG Export Plug-In . SVG Version: 6.00 Build 0)  -->
<!DOCTYPE svg PUBLIC "-//W3C//DTD SVG 1.1//EN" "http://www.w3.org/Graphics/SVG/1.1/DTD/svg11.dtd">
<svg version="1.1" id="Layer_1" xmlns="http://www.w3.org/2000/svg" xmlns:xlink="http://www.w3.org/1999/xlink" x="0px" y="0px"
	 width="100px" height="100px" viewBox="0 0 100 100" enable-background="new 0 0 100 100" xml:space="preserve">
<g>
	<g>
		<path fill="#189DE8" d="M50,1.15c-19.51,0-35.383,15.873-35.383,35.383c0,24.213,31.665,59.758,33.013,61.26
			c1.266,1.41,3.477,1.408,4.741,0c1.349-1.502,33.014-37.047,33.014-61.26C85.383,17.023,69.511,1.15,50,1.15z M50,54.335
			c-9.816,0-17.802-7.986-17.802-17.802c0-9.815,7.986-17.801,17.802-17.801c9.815,0,17.802,7.986,17.802,17.802
			C67.802,46.35,59.815,54.335,50,54.335z"/>
	</g>
</g>
</svg>
