<?xml version="1.0" encoding="utf-8"?>
<!-- Generator: Adobe Illustrator 16.0.0, SVG Export Plug-In . SVG Version: 6.00 Build 0)  -->
<!DOCTYPE svg PUBLIC "-//W3C//DTD SVG 1.1//EN" "http://www.w3.org/Graphics/SVG/1.1/DTD/svg11.dtd">
<svg version="1.1" id="Layer_1" xmlns="http://www.w3.org/2000/svg" xmlns:xlink="http://www.w3.org/1999/xlink" x="0px" y="0px"
	 width="100px" height="100px" viewBox="0 0 100 100" enable-background="new 0 0 100 100" xml:space="preserve">
<g>
	<g>
		<path d="M86.531,10.625h9.699v76.991h-9.699V10.625z M78.691,27.725v59.888h-9.697V27.725H78.691z M61.731,45.521
			v42.095h-9.699V45.521H61.731z M44.191,64.009v23.604h-9.699V64.009H44.191z M25.648,73.256v14.357h-9.698V73.256H25.648z
			 M99.247,96.856H1V89.66h98.249L99.247,96.856L99.247,96.856z"/>
	</g>
</g>
<path fill="#FF6300" d="M65.834,11.436l-1.342,0.417c-1.682,0.532-3.658-0.208-4.338-1.617c-0.326-0.681-0.34-1.435-0.042-2.124
	c0.347-0.797,1.084-1.421,2.019-1.712l15.144-4.717l1.843,13.493c0.104,0.687-0.089,1.389-0.545,1.97
	c-0.558,0.714-1.453,1.177-2.457,1.272c-0.121,0.012-0.255,0.019-0.385,0.019c-1.715,0-3.168-1.092-3.386-2.537l-0.232-2.041
	c-17.501,24.233-57.801,50.204-59.55,51.323c-0.594,0.379-1.304,0.582-2.055,0.582c-1.013,0-1.966-0.373-2.612-1.029
	c-0.595-0.6-0.873-1.361-0.787-2.146c0.091-0.814,0.579-1.564,1.343-2.051C8.861,60.273,48.777,34.47,65.834,11.436z"/>
</svg>
