<?xml version="1.0" encoding="utf-8"?>
<!-- Generator: Adobe Illustrator 16.0.0, SVG Export Plug-In . SVG Version: 6.00 Build 0)  -->
<!DOCTYPE svg PUBLIC "-//W3C//DTD SVG 1.1//EN" "http://www.w3.org/Graphics/SVG/1.1/DTD/svg11.dtd">
<svg version="1.1" id="Layer_1" xmlns="http://www.w3.org/2000/svg" xmlns:xlink="http://www.w3.org/1999/xlink" x="0px" y="0px"
	 width="100px" height="100px" viewBox="0 0 100 100" enable-background="new 0 0 100 100" xml:space="preserve">
<g>
	<g>
		<path fill="#8C8C8C" d="M86.969,9.259h-4.527V1.715h-7.544v7.544H25.103V1.715h-7.544v7.544h-4.527
			c-6.24,0-11.317,5.077-11.317,11.317v66.393c0,6.24,5.077,11.316,11.317,11.316h73.937c6.24,0,11.316-5.076,11.316-11.316V20.576
			C98.285,14.336,93.209,9.259,86.969,9.259z M90.74,86.969c0,2.08-1.691,3.771-3.771,3.771H13.032c-2.08,0-3.772-1.691-3.772-3.771
			V37.174H90.74V86.969z M90.74,29.63H9.259v-9.054c0-2.08,1.692-3.772,3.772-3.772h4.527v7.545h7.544v-7.545h49.794v7.545h7.544
			v-7.545h4.527c2.08,0,3.771,1.692,3.771,3.772V29.63z"/>
	</g>
</g>
<g>
	<g>
		<rect x="16.049" y="45.096" fill="#8C8C8C" width="7.545" height="7.544"/>
	</g>
</g>
<g>
	<g>
		<rect x="31.139" y="45.096" fill="#8C8C8C" width="7.544" height="7.544"/>
	</g>
</g>
<g>
	<g>
		<rect x="46.228" y="45.096" fill="#8C8C8C" width="7.545" height="7.544"/>
	</g>
</g>
<g>
	<g>
		<rect x="61.316" y="45.096" fill="#8C8C8C" width="7.545" height="7.544"/>
	</g>
</g>
<g>
	<g>
		<rect x="76.406" y="45.096" fill="#8C8C8C" width="7.544" height="7.544"/>
	</g>
</g>
<g>
	<g>
		<rect x="16.049" y="60.186" fill="#8C8C8C" width="7.545" height="7.544"/>
	</g>
</g>
<g>
	<g>
		<rect x="31.139" y="60.186" fill="#8C8C8C" width="7.544" height="7.544"/>
	</g>
</g>
<g>
	<g>
		<rect x="46.228" y="60.186" fill="#8C8C8C" width="7.545" height="7.544"/>
	</g>
</g>
<g>
	<g>
		<rect x="61.316" y="60.186" fill="#8C8C8C" width="7.545" height="7.544"/>
	</g>
</g>
<g>
	<g>
		<rect x="16.049" y="75.274" fill="#8C8C8C" width="7.545" height="7.544"/>
	</g>
</g>
<g>
	<g>
		<rect x="31.139" y="75.274" fill="#8C8C8C" width="7.544" height="7.544"/>
	</g>
</g>
<g>
	<g>
		<rect x="46.228" y="75.274" fill="#8C8C8C" width="7.545" height="7.544"/>
	</g>
</g>
<g>
	<g>
		<rect x="61.316" y="75.274" fill="#8C8C8C" width="7.545" height="7.544"/>
	</g>
</g>
<g>
	<g>
		<rect x="76.406" y="60.186" fill="#8C8C8C" width="7.544" height="7.544"/>
	</g>
</g>
</svg>
