<?xml version="1.0" encoding="utf-8"?>
<!-- Generator: Adobe Illustrator 16.0.0, SVG Export Plug-In . SVG Version: 6.00 Build 0)  -->
<!DOCTYPE svg PUBLIC "-//W3C//DTD SVG 1.1//EN" "http://www.w3.org/Graphics/SVG/1.1/DTD/svg11.dtd">
<svg version="1.1" id="Layer_1" xmlns="http://www.w3.org/2000/svg" xmlns:xlink="http://www.w3.org/1999/xlink" x="0px" y="0px"
	 width="100px" height="100px" viewBox="0 0 100 100" enable-background="new 0 0 100 100" xml:space="preserve">
<g>
	<g>
		<path fill="#FFFFFF" d="M58.278,51L86.38,22.897c0.773-0.774,1.2-1.806,1.201-2.906c0-1.102-0.426-2.135-1.201-2.908l-2.463-2.462
			c-0.773-0.775-1.806-1.2-2.908-1.2c-1.1,0-2.132,0.425-2.905,1.2L50.001,42.723L21.898,14.621c-0.773-0.775-1.806-1.2-2.907-1.2
			c-1.1,0-2.133,0.425-2.906,1.2l-2.463,2.462c-1.604,1.604-1.604,4.212,0,5.814L41.724,51L13.622,79.103
			c-0.773,0.774-1.2,1.807-1.2,2.906c0,1.102,0.426,2.133,1.2,2.907l2.463,2.463c0.773,0.774,1.806,1.199,2.906,1.199
			c1.101,0,2.133-0.425,2.907-1.199l28.104-28.103l28.103,28.103c0.773,0.774,1.806,1.199,2.905,1.199h0.001
			c1.102,0,2.134-0.425,2.906-1.199l2.464-2.463c0.773-0.773,1.2-1.806,1.2-2.907c0-1.1-0.427-2.132-1.2-2.906L58.278,51z"/>
	</g>
</g>
</svg>
