<?xml version="1.0" encoding="utf-8"?>
<!-- Generator: Adobe Illustrator 16.0.0, SVG Export Plug-In . SVG Version: 6.00 Build 0)  -->
<!DOCTYPE svg PUBLIC "-//W3C//DTD SVG 1.1//EN" "http://www.w3.org/Graphics/SVG/1.1/DTD/svg11.dtd">
<svg version="1.1" id="Layer_1" xmlns="http://www.w3.org/2000/svg" xmlns:xlink="http://www.w3.org/1999/xlink" x="0px" y="0px"
	 width="100px" height="100px" viewBox="0 0 100 100" enable-background="new 0 0 100 100" xml:space="preserve">
<path d="M34.518,27.448c4.527,0,8.192,3.668,8.192,8.194c0,4.527-3.666,8.195-8.192,8.195s-8.195-3.668-8.195-8.195
	C26.323,31.116,29.991,27.448,34.518,27.448 M34.518,62.566c11.592,0,23.802,5.694,23.802,8.192v4.292H10.714V70.76
	C10.714,68.262,22.928,62.566,34.518,62.566 M34.518,20.034c-8.624,0-15.608,6.985-15.608,15.608
	c0,8.624,6.985,15.608,15.608,15.608s15.608-6.984,15.608-15.608C50.125,27.019,43.141,20.034,34.518,20.034z M34.518,55.152
	c-10.418,0-31.216,5.229-31.216,15.606v11.707h62.432V70.76C65.732,60.381,44.936,55.152,34.518,55.152z"/>
<path fill="#FF6300" d="M58.08,37.871c-0.313-0.311-0.468-0.778-0.468-1.089c0-0.312,0.155-0.779,0.468-1.09l2.178-2.179
	c0.624-0.623,1.558-0.623,2.18,0l0.156,0.155l8.561,9.187c0.312,0.312,0.778,0.312,1.09,0L93.102,21.21h0.156l0,0l0,0
	c0.622-0.623,1.556-0.623,2.18,0l2.178,2.18c0.623,0.623,0.623,1.558,0,2.18l0,0l0,0L72.711,51.417
	c-0.312,0.312-0.623,0.468-1.089,0.468c-0.468,0-0.779-0.156-1.091-0.468L58.391,38.338L58.08,37.871z"/>
</svg>
