<?xml version="1.0" encoding="utf-8"?>
<!-- Generator: Adobe Illustrator 16.0.0, SVG Export Plug-In . SVG Version: 6.00 Build 0)  -->
<!DOCTYPE svg PUBLIC "-//W3C//DTD SVG 1.1//EN" "http://www.w3.org/Graphics/SVG/1.1/DTD/svg11.dtd">
<svg version="1.1" id="Layer_1" xmlns="http://www.w3.org/2000/svg" xmlns:xlink="http://www.w3.org/1999/xlink" x="0px" y="0px"
	 width="100px" height="100px" viewBox="0 0 100 100" enable-background="new 0 0 100 100" xml:space="preserve">
<path d="M64.413,62.305c1.942,0,3.516,1.574,3.516,3.516s-1.573,3.516-3.516,3.516c-1.941,0-3.516-1.574-3.516-3.516
	S62.472,62.305,64.413,62.305z"/>
<path d="M46.835,87.969H19.063c-3.877,0-7.031-3.154-7.031-7.031V52.109c0-3.877,3.154-7.031,7.031-7.031h50.624
	c3.877,0,7.031,3.154,7.031,7.031v7.031c0,1.941,1.574,3.516,3.516,3.516c1.942,0,3.516-1.574,3.516-3.516v-7.031
	c0-7.754-6.309-14.063-14.063-14.063h-4.226V25.648C65.461,14.263,55.999,5,44.368,5s-21.094,9.263-21.094,20.648v12.398h-4.212
	C11.309,38.047,5,44.355,5,52.109v28.828C5,88.691,11.309,95,19.063,95h27.773c1.942,0,3.516-1.574,3.516-3.516
	S48.777,87.969,46.835,87.969z M30.306,25.648c0-7.509,6.309-13.617,14.063-13.617S58.43,18.14,58.43,25.648v12.398H30.306V25.648
	L30.306,25.648z"/>
<path d="M51.055,62.305c1.941,0,3.516,1.574,3.516,3.516s-1.574,3.516-3.516,3.516c-1.942,0-3.516-1.574-3.516-3.516
	S49.112,62.305,51.055,62.305z"/>
<path d="M24.688,62.305c1.941,0,3.516,1.574,3.516,3.516s-1.574,3.516-3.516,3.516c-1.942,0-3.516-1.574-3.516-3.516
	S22.746,62.305,24.688,62.305z"/>
<path d="M37.871,62.305c1.942,0,3.516,1.574,3.516,3.516s-1.574,3.516-3.516,3.516c-1.941,0-3.516-1.574-3.516-3.516
	S35.929,62.305,37.871,62.305z"/>
<path fill="#FF6300" d="M56.696,76.357h29.947V80.5c0,0.188,0.068,0.349,0.206,0.486c0.139,0.137,0.301,0.205,0.49,0.205
	c0.203,0,0.37-0.065,0.5-0.195l6.965-6.904C94.935,73.963,95,73.797,95,73.596s-0.065-0.367-0.195-0.496l-6.943-6.884
	C87.688,66.072,87.514,66,87.339,66c-0.202,0-0.37,0.064-0.5,0.194s-0.196,0.295-0.196,0.496v4.144H56.696
	c-0.188,0-0.352,0.068-0.489,0.205C56.068,71.176,56,71.337,56,71.523v4.144c0,0.187,0.068,0.349,0.207,0.485
	C56.345,76.289,56.508,76.357,56.696,76.357z"/>
<path fill="#FF6300" d="M94.304,84.644H64.357V80.5c0-0.187-0.069-0.349-0.207-0.484c-0.138-0.137-0.301-0.205-0.49-0.205
	c-0.203,0-0.369,0.064-0.5,0.193l-6.965,6.904C56.065,87.039,56,87.203,56,87.405c0,0.187,0.065,0.345,0.195,0.474l6.943,6.905
	C63.313,94.928,63.486,95,63.661,95c0.188,0,0.352-0.068,0.489-0.205c0.139-0.137,0.207-0.299,0.207-0.485v-4.143h29.946
	c0.188,0,0.352-0.068,0.489-0.205C94.932,89.825,95,89.664,95,89.477v-4.143c0-0.188-0.068-0.35-0.207-0.486
	C94.655,84.712,94.492,84.644,94.304,84.644z"/>
</svg>
