<?xml version="1.0" encoding="utf-8"?>
<!-- Generator: Adobe Illustrator 16.0.0, SVG Export Plug-In . SVG Version: 6.00 Build 0)  -->
<!DOCTYPE svg PUBLIC "-//W3C//DTD SVG 1.1//EN" "http://www.w3.org/Graphics/SVG/1.1/DTD/svg11.dtd">
<svg version="1.1" id="Layer_1" xmlns="http://www.w3.org/2000/svg" xmlns:xlink="http://www.w3.org/1999/xlink" x="0px" y="0px"
	 width="100px" height="100px" viewBox="0 0 100 100" enable-background="new 0 0 100 100" xml:space="preserve">
<path d="M93.6,24L78.7,38.8l-13-4.6l-4.601-13L76,6.4c-9.7-3.3-20.9-1-28.6,6.7c-7.6,7.6-9.9,18.5-6.9,28.1
	c-0.4,0.3-0.8,0.7-1.2,1L8.8,72.7C3.7,77.8,3.7,86,8.8,91.1c5.1,5.101,13.4,5.101,18.4,0L57.6,60.7c0.4-0.4,0.7-0.8,1-1.2
	c9.601,3,20.5,0.7,28.101-6.9C94.6,44.9,96.8,33.8,93.6,24z"/>
<path fill="#FF6300" d="M50.065,53.599L57.6,60.7c0.4-0.4,0.7-0.8,1-1.2c9.601,3,20.5,0.7,28.101-6.9C94.6,44.9,96.8,33.8,93.6,24
	L78.7,38.8l-13-4.6l-4.601-13L76,6.4c-9.7-3.3-20.9-1-28.6,6.7c-7.601,7.6-9.9,18.5-6.9,28.1c-0.4,0.3-0.8,0.7-1.2,1l5.45,5.817
	L50.065,53.599z"/>
</svg>
