<?xml version="1.0" encoding="utf-8"?>
<!-- Generator: Adobe Illustrator 16.0.0, SVG Export Plug-In . SVG Version: 6.00 Build 0)  -->
<!DOCTYPE svg PUBLIC "-//W3C//DTD SVG 1.1//EN" "http://www.w3.org/Graphics/SVG/1.1/DTD/svg11.dtd">
<svg version="1.1" id="Layer_1" xmlns="http://www.w3.org/2000/svg" xmlns:xlink="http://www.w3.org/1999/xlink" x="0px" y="0px"
	 width="100px" height="100px" viewBox="0 0 100 100" enable-background="new 0 0 100 100" xml:space="preserve">
<path fill="#FF6300" d="M93.156,50.448L82.979,29.265L93.155,8.083c0.267-0.552,0.231-1.202-0.091-1.723
	c-0.323-0.52-0.886-0.835-1.493-0.835H73.992c-0.022,0-0.045,0.002-0.067,0.003c-0.022,0.002-0.043,0.002-0.063,0.004
	c-0.065,0.004-0.13,0.013-0.193,0.024c-0.005,0.001-0.012,0.001-0.017,0.002c-0.073,0.014-0.145,0.034-0.215,0.057
	c-0.013,0.004-0.023,0.01-0.036,0.014c-0.059,0.021-0.114,0.045-0.172,0.072c-0.013,0.007-0.027,0.014-0.041,0.02
	c-0.063,0.034-0.129,0.071-0.189,0.114c-0.002,0-0.003,0.001-0.005,0.002L61.026,14.15H21.417V8.986c0-0.982-0.789-1.78-1.762-1.78
	h-9.227c-0.973,0-1.762,0.797-1.762,1.78v85.936c0,0.984,0.789,1.78,1.762,1.78h9.227c0.973,0,1.762-0.796,1.762-1.78V65.7h45.728
	c4.747,0,8.609-3.902,8.609-8.701v-3.994h15.816c0.607,0,1.17-0.314,1.493-0.836C93.387,51.65,93.422,50.999,93.156,50.448z
	 M17.894,93.141h-5.703V10.768h5.703V93.141z M72.23,19.949H35.52c-0.973,0-1.762,0.797-1.762,1.781s0.789,1.781,1.762,1.781H72.23
	v27.714v5.774c0,2.835-2.28,5.14-5.085,5.14H21.417v-2.201h36.214c0.974,0,1.762-0.798,1.762-1.78c0-0.983-0.788-1.781-1.762-1.781
	H21.417V17.712H61.57c0,0,0.002,0,0.003,0H72.23V19.949z M72.23,14.15h-4.981l4.981-3.46V14.15z M75.755,49.444V15.931l0,0V9.086
	h13.002l-9.322,19.401c-0.237,0.491-0.237,1.064,0,1.556l9.322,19.402H75.755L75.755,49.444z"/>
<path fill="#FF6300" d="M56.788,39.744c1.699-1.274,2.162-2.886,2.286-3.595c0.468-2.671-1.084-5.385-3.606-6.313
	c-0.669-0.247-2.281-0.647-4.225,0.204c-0.243-2.125-1.392-3.336-1.938-3.799c-2.054-1.744-5.154-1.744-7.212,0
	c-0.545,0.463-1.694,1.674-1.937,3.799c-1.943-0.85-3.555-0.45-4.225-0.204c-2.521,0.928-4.072,3.641-3.606,6.313
	c0.123,0.709,0.586,2.321,2.286,3.595c-1.7,1.275-2.163,2.887-2.286,3.597c-0.466,2.67,1.084,5.384,3.606,6.312
	c0.669,0.246,2.282,0.646,4.225-0.204c0.242,2.126,1.392,3.338,1.937,3.799c1.029,0.871,2.318,1.309,3.606,1.309
	c1.289,0,2.579-0.438,3.605-1.309c0.547-0.461,1.695-1.673,1.938-3.799c1.943,0.85,3.556,0.449,4.225,0.204
	c2.522-0.928,4.072-3.641,3.606-6.312C58.95,42.631,58.487,41.019,56.788,39.744z M37.137,46.306
	c-0.907-0.334-1.509-1.387-1.341-2.347c0.227-1.301,1.829-2.175,4.271-2.384c0.262,0.818,0.692,1.56,1.25,2.183
	C39.914,45.791,38.366,46.757,37.137,46.306z M40.068,37.914c-2.444-0.21-4.046-1.083-4.272-2.384
	c-0.168-0.96,0.434-2.013,1.341-2.347c1.228-0.453,2.778,0.514,4.18,2.549C40.759,36.354,40.329,37.096,40.068,37.914z
	 M44.36,28.969c0.738-0.627,1.942-0.627,2.681,0c1.002,0.849,0.947,2.688-0.094,4.931c-0.402-0.087-0.819-0.134-1.247-0.134
	s-0.844,0.047-1.248,0.134C43.411,31.657,43.358,29.818,44.36,28.969z M47.041,50.519c-0.739,0.627-1.943,0.627-2.681,0
	c-1.001-0.849-0.949-2.687,0.092-4.929c0.402,0.087,0.82,0.134,1.248,0.134s0.845-0.047,1.247-0.134
	C47.988,47.833,48.043,49.67,47.041,50.519z M45.7,42.163c-1.319,0-2.393-1.084-2.393-2.417c0-1.333,1.073-2.418,2.393-2.418
	c1.318,0,2.394,1.084,2.394,2.418C48.094,41.078,47.019,42.163,45.7,42.163z M54.263,46.306c-1.229,0.451-2.777-0.514-4.179-2.549
	c0.559-0.622,0.987-1.364,1.248-2.183c2.444,0.21,4.044,1.084,4.271,2.384C55.771,44.919,55.171,45.972,54.263,46.306z
	 M55.604,35.53c-0.228,1.301-1.827,2.174-4.271,2.384c-0.262-0.818-0.691-1.56-1.249-2.182c1.4-2.035,2.949-3.001,4.18-2.549
	C55.171,33.517,55.771,34.569,55.604,35.53z"/>
<path fill="none" d="M39.925,25.111c-0.014-0.069-0.035-0.138-0.062-0.204c-0.027-0.066-0.061-0.129-0.1-0.188
	c-0.04-0.06-0.084-0.116-0.135-0.166c-0.05-0.051-0.105-0.097-0.165-0.137c-0.058-0.04-0.121-0.074-0.186-0.101
	c-0.065-0.027-0.133-0.048-0.202-0.062c-0.14-0.028-0.284-0.028-0.424,0c-0.069,0.014-0.137,0.035-0.202,0.062
	c-0.066,0.027-0.129,0.062-0.187,0.101c-0.059,0.04-0.115,0.086-0.165,0.137c-0.05,0.05-0.095,0.106-0.134,0.166
	c-0.039,0.059-0.073,0.123-0.1,0.188c-0.027,0.066-0.047,0.135-0.062,0.204c-0.014,0.071-0.022,0.144-0.022,0.214
	c0,0.071,0.008,0.144,0.022,0.213c0.014,0.07,0.035,0.139,0.062,0.205c0.027,0.066,0.061,0.13,0.1,0.189
	c0.039,0.061,0.084,0.116,0.134,0.167s0.105,0.096,0.165,0.135c0.058,0.04,0.121,0.074,0.187,0.101
	c0.065,0.027,0.133,0.048,0.202,0.063c0.069,0.015,0.141,0.022,0.211,0.022c0.071,0,0.142-0.007,0.212-0.022
	c0.069-0.014,0.137-0.035,0.202-0.063c0.065-0.027,0.128-0.061,0.186-0.101c0.06-0.039,0.115-0.085,0.165-0.135
	c0.051-0.05,0.095-0.106,0.135-0.167c0.039-0.059,0.073-0.122,0.1-0.189c0.027-0.066,0.047-0.134,0.062-0.205
	s0.022-0.142,0.022-0.213C39.947,25.255,39.939,25.183,39.925,25.111z"/>
<path fill="none" d="M18.763,2.74c-0.014-0.07-0.034-0.139-0.062-0.205c-0.027-0.066-0.061-0.13-0.1-0.189
	c-0.04-0.06-0.084-0.116-0.135-0.167c-0.05-0.05-0.105-0.096-0.165-0.136c-0.059-0.04-0.121-0.073-0.186-0.101
	c-0.066-0.027-0.133-0.049-0.203-0.063c-0.14-0.029-0.283-0.028-0.423,0c-0.069,0.014-0.138,0.036-0.203,0.063
	c-0.066,0.027-0.128,0.061-0.187,0.101c-0.06,0.04-0.115,0.085-0.165,0.136c-0.05,0.051-0.095,0.106-0.134,0.167
	c-0.039,0.059-0.072,0.123-0.1,0.189c-0.027,0.066-0.048,0.135-0.062,0.205c-0.015,0.07-0.021,0.142-0.021,0.213
	s0.007,0.144,0.021,0.213c0.014,0.07,0.034,0.139,0.062,0.205c0.027,0.066,0.061,0.13,0.1,0.189c0.039,0.06,0.084,0.116,0.134,0.167
	c0.05,0.05,0.105,0.096,0.165,0.135c0.059,0.04,0.122,0.073,0.187,0.101c0.065,0.028,0.133,0.048,0.203,0.063
	c0.07,0.014,0.141,0.022,0.211,0.022c0.071,0,0.142-0.008,0.212-0.022c0.068-0.014,0.137-0.035,0.203-0.063
	c0.065-0.027,0.127-0.061,0.186-0.101c0.06-0.039,0.115-0.085,0.165-0.135c0.051-0.051,0.095-0.106,0.135-0.167
	c0.039-0.059,0.072-0.123,0.1-0.189c0.027-0.066,0.048-0.135,0.062-0.205c0.014-0.07,0.021-0.142,0.021-0.213
	S18.777,2.81,18.763,2.74z"/>
</svg>
