<?xml version="1.0" encoding="utf-8"?>
<!-- Generator: Adobe Illustrator 16.0.0, SVG Export Plug-In . SVG Version: 6.00 Build 0)  -->
<!DOCTYPE svg PUBLIC "-//W3C//DTD SVG 1.1//EN" "http://www.w3.org/Graphics/SVG/1.1/DTD/svg11.dtd">
<svg version="1.1" id="Capa_1" xmlns="http://www.w3.org/2000/svg" xmlns:xlink="http://www.w3.org/1999/xlink" x="0px" y="0px"
	 width="100px" height="100px" viewBox="0 0 100 100" enable-background="new 0 0 100 100" xml:space="preserve">
<path fill="#FB6506" d="M89.035,90.631c-15.302,12.492-63.081,12.492-78.07,0c-15.302-12.49-13.74-65.891,0-79.943
	c13.74-14.052,64.33-14.052,78.07,0C102.775,24.74,104.337,78.141,89.035,90.631z"/>
<g opacity="0.2">
	<path fill="#FFFFFF" d="M50.313,68.771C36.572,79.701,21.27,85.322,6.905,85.635c-10.618-18.111-8.432-62.144,4.06-74.947
		C22.207-0.866,57.494-3.053,77.793,4.13C82.789,24.741,72.484,50.972,50.313,68.771z"/>
</g>
<g>
	<g>
		<path fill="#FFFFFF" d="M77.393,24.453H34.154c-2.388,0-4.324,1.936-4.324,4.324c0,2.388,1.936,4.324,4.324,4.324h43.239
			c2.389,0,4.324-1.936,4.324-4.324C81.717,26.389,79.781,24.453,77.393,24.453z"/>
	</g>
</g>
<g>
	<g>
		<path fill="#FFFFFF" d="M25.506,28.776c-0.004-1.145-0.463-2.241-1.275-3.048c-1.687-1.676-4.411-1.676-6.097,0
			c-0.812,0.807-1.271,1.904-1.275,3.048c-0.033,0.28-0.033,0.563,0,0.843c0.049,0.282,0.128,0.557,0.238,0.821
			c0.116,0.256,0.253,0.502,0.411,0.735c0.155,0.242,0.336,0.467,0.541,0.67c0.197,0.196,0.414,0.37,0.648,0.519
			c0.228,0.166,0.475,0.304,0.735,0.411c0.286,0.148,0.592,0.258,0.908,0.324c0.28,0.031,0.563,0.031,0.843,0
			c1.142,0.001,2.238-0.45,3.049-1.254c0.204-0.203,0.385-0.428,0.541-0.67c0.157-0.233,0.294-0.479,0.41-0.735
			c0.138-0.261,0.247-0.536,0.325-0.821C25.539,29.34,25.539,29.057,25.506,28.776z"/>
	</g>
</g>
<g>
	<g>
		<path fill="#FFFFFF" d="M25.506,48.234c0.032-0.28,0.032-0.563,0-0.844c-0.075-0.278-0.184-0.547-0.325-0.799
			c-0.111-0.266-0.249-0.518-0.41-0.757c-0.15-0.24-0.333-0.458-0.541-0.648c-1.687-1.677-4.411-1.677-6.097,0
			c-0.812,0.807-1.271,1.903-1.275,3.048c0.009,0.57,0.118,1.133,0.324,1.665c0.108,0.256,0.239,0.502,0.389,0.736
			c0.165,0.233,0.353,0.451,0.562,0.647c0.191,0.208,0.409,0.392,0.648,0.541c0.228,0.166,0.475,0.305,0.735,0.411
			c0.263,0.111,0.539,0.19,0.821,0.238c0.277,0.062,0.56,0.09,0.843,0.086c0.28,0.032,0.563,0.032,0.843,0
			c0.275-0.048,0.544-0.127,0.8-0.237c0.268-0.107,0.522-0.245,0.757-0.412c0.24-0.149,0.458-0.332,0.649-0.541
			c0.208-0.189,0.39-0.408,0.541-0.648c0.166-0.226,0.304-0.473,0.41-0.734c0.148-0.287,0.257-0.592,0.325-0.908
			C25.539,48.797,25.539,48.515,25.506,48.234z"/>
	</g>
</g>
<g>
	<g>
		<path fill="#FFFFFF" d="M25.506,67.693c0.032-0.281,0.032-0.563,0-0.844c-0.075-0.286-0.184-0.563-0.325-0.821
			c-0.116-0.256-0.253-0.502-0.41-0.736c-0.15-0.238-0.333-0.457-0.541-0.648c-1.687-1.676-4.411-1.676-6.097,0
			c-0.208,0.191-0.39,0.41-0.541,0.648c-0.157,0.234-0.295,0.48-0.411,0.736c-0.112,0.262-0.192,0.538-0.238,0.821
			c-0.061,0.276-0.09,0.559-0.086,0.844c0.004,1.144,0.463,2.24,1.275,3.048c0.191,0.208,0.409,0.39,0.648,0.54
			c0.228,0.166,0.475,0.305,0.735,0.411c0.263,0.11,0.539,0.19,0.821,0.237c0.277,0.063,0.56,0.091,0.843,0.087
			c0.28,0.032,0.563,0.032,0.843,0c0.275-0.047,0.544-0.127,0.8-0.238c0.268-0.106,0.522-0.245,0.757-0.41
			c0.24-0.15,0.458-0.333,0.649-0.541c0.208-0.191,0.39-0.409,0.541-0.649c0.166-0.227,0.304-0.474,0.41-0.733
			c0.148-0.288,0.257-0.594,0.325-0.909C25.539,68.255,25.539,67.973,25.506,67.693z"/>
	</g>
</g>
<g>
	<g>
		<path fill="#FFFFFF" d="M81.717,43.91H34.154c-2.388,0-4.324,1.936-4.324,4.324s1.936,4.324,4.324,4.324h47.563
			c2.388,0,4.325-1.936,4.325-4.324S84.104,43.91,81.717,43.91z"/>
	</g>
</g>
<g>
	<g>
		<path fill="#FFFFFF" d="M62.26,63.368H34.154c-2.388,0-4.324,1.936-4.324,4.325c0,2.387,1.936,4.323,4.324,4.323H62.26
			c2.389,0,4.323-1.937,4.323-4.323C66.583,65.304,64.648,63.368,62.26,63.368z"/>
	</g>
</g>
</svg>
