<?xml version="1.0" encoding="utf-8"?>
<!-- Generator: Adobe Illustrator 16.0.0, SVG Export Plug-In . SVG Version: 6.00 Build 0)  -->
<!DOCTYPE svg PUBLIC "-//W3C//DTD SVG 1.1//EN" "http://www.w3.org/Graphics/SVG/1.1/DTD/svg11.dtd">
<svg version="1.1" id="Layer_1" xmlns="http://www.w3.org/2000/svg" xmlns:xlink="http://www.w3.org/1999/xlink" x="0px" y="0px"
	 width="100px" height="100px" viewBox="0 0 100 100" enable-background="new 0 0 100 100" xml:space="preserve">
<path d="M29.518,34.874c2.626,0,4.752,2.127,4.752,4.753s-2.126,4.753-4.752,4.753c-2.625,0-4.753-2.128-4.753-4.753
	S26.893,34.874,29.518,34.874 M29.518,55.244c6.724,0,13.807,3.303,13.807,4.752v2.489H15.71v-2.489
	C15.71,58.547,22.795,55.244,29.518,55.244 M29.518,30.573c-5.002,0-9.053,4.051-9.053,9.053c0,5.002,4.052,9.053,9.053,9.053
	c5.002,0,9.053-4.051,9.053-9.053C38.571,34.625,34.52,30.573,29.518,30.573z M29.518,50.943c-6.043,0-18.106,3.032-18.106,9.053
	v6.79h36.213v-6.79C47.624,53.976,35.561,50.943,29.518,50.943z"/>
<path d="M89.457,14.971h-79.03C5.781,14.971,2,18.751,2,23.398v50.564c0,4.646,3.781,8.428,8.427,8.428h79.03
	c4.647,0,8.428-3.781,8.428-8.428V23.398C97.885,18.751,94.104,14.971,89.457,14.971z M92.267,73.962c0,1.549-1.26,2.81-2.81,2.81
	h-79.03c-1.548,0-2.809-1.261-2.809-2.81V23.398c0-1.548,1.261-2.809,2.809-2.809h79.03c1.55,0,2.81,1.261,2.81,2.809V73.962z"/>
<path fill="#FF6300" d="M83.839,57.107H53.875c-1.552,0-2.809,1.258-2.809,2.81s1.257,2.809,2.809,2.809h29.964
	c1.552,0,2.81-1.257,2.81-2.809S85.391,57.107,83.839,57.107z"/>
<path fill="#FF6300" d="M83.839,45.871H53.875c-1.552,0-2.809,1.257-2.809,2.809s1.257,2.809,2.809,2.809h29.964
	c1.552,0,2.81-1.257,2.81-2.809S85.391,45.871,83.839,45.871z"/>
<path fill="#FF6300" d="M53.875,40.253h11.236c1.552,0,2.81-1.257,2.81-2.809s-1.258-2.809-2.81-2.809H53.875
	c-1.552,0-2.809,1.257-2.809,2.809S52.323,40.253,53.875,40.253z"/>
</svg>
