<?xml version="1.0" encoding="utf-8"?>
<!-- Generator: Adobe Illustrator 16.0.0, SVG Export Plug-In . SVG Version: 6.00 Build 0)  -->
<!DOCTYPE svg PUBLIC "-//W3C//DTD SVG 1.1//EN" "http://www.w3.org/Graphics/SVG/1.1/DTD/svg11.dtd">
<svg version="1.1" id="Layer_1" xmlns="http://www.w3.org/2000/svg" xmlns:xlink="http://www.w3.org/1999/xlink" x="0px" y="0px"
	 width="1024px" height="1024px" viewBox="0 0 1024 1024" enable-background="new 0 0 1024 1024" xml:space="preserve">
<path fill="#FF6300" d="M1024,844c0,99.411-80.589,180-180,180H180C80.589,1024,0,943.411,0,844V180C0,80.589,80.589,0,180,0h664
	c99.411,0,180,80.589,180,180V844z"/>
<g>
	<path fill="#FFFFFF" d="M286.72,482.4h-95.574c-11.307,0-20.48,9.173-20.48,20.48v232.106c0,11.313,9.173,20.48,20.48,20.48h95.574
		c11.307,0,20.48-9.167,20.48-20.48V502.88C307.2,491.573,298.027,482.4,286.72,482.4z"/>
	<path fill="#FFFFFF" d="M833.174,482.4H737.6c-11.307,0-20.479,9.173-20.479,20.48v232.106c0,11.313,9.173,20.48,20.479,20.48
		h95.574c11.307,0,20.479-9.167,20.479-20.48V502.88C853.653,491.573,844.48,482.4,833.174,482.4z"/>
	<path fill="#FFFFFF" d="M845.76,309.106l-2.06-1.453L523.733,81.106l-0.486-0.347c-3.233-2.126-7.087-3.386-11.247-3.386
		c-4.146,0-7.993,1.253-11.22,3.373l-0.553,0.4l-319.92,226.507l-2.066,1.46c-4.773,3.78-7.894,9.553-7.894,16.113
		c0,11.4,9.24,20.64,20.64,20.64h205.307h26.96c11.307,0,20.48,9.173,20.48,20.48v26.96v341.68c0,11.313,9.173,20.48,20.48,20.48
		h95.574c11.307,0,20.479-9.167,20.479-20.48v-341.68v-26.96c0-11.307,9.174-20.48,20.48-20.48h26.96h205.307
		c11.399,0,20.64-9.24,20.64-20.64C853.653,318.667,850.533,312.894,845.76,309.106z"/>
</g>
<g>
	<g>
		<path fill="#FFFFFF" d="M197.27,935.4c-10.999,0-19.347-2.772-24.814-8.241c-5.467-5.465-8.24-13.813-8.24-24.813v-29.832
			c0-10.991,2.768-19.357,8.228-24.865c5.387-5.436,13.522-8.191,24.18-8.191l16.211,0.002c9.01,0,16.105,1.99,21.088,5.917
			c5.131,4.044,8.145,10.267,8.956,18.497c0.518,3.831-0.898,6.163-2.184,7.448c-1.721,1.723-4.069,2.598-6.978,2.598
			c-2.822,0-5.105-0.853-6.785-2.533c-1.529-1.529-2.499-3.665-2.882-6.349l-0.016-0.122c-0.291-2.608-1.027-4.305-2.189-5.043
			c-0.893-0.566-3.253-1.518-9.011-1.518H197.14c-0.377-0.006-0.676-0.009-0.971-0.009c-3.636,0-6.44,0.416-8.336,1.236
			c-1.643,0.713-2.727,1.808-3.409,3.444c-0.6,1.438-1.313,4.249-1.313,9.487v29.832c0,5.203,0.732,7.955,1.346,9.347
			c0.724,1.644,1.824,2.743,3.463,3.464c1.396,0.616,4.147,1.349,9.35,1.349h15.565c5.76,0,8.119-0.951,9.012-1.518
			c1.161-0.736,1.897-2.434,2.188-5.043l0.016-0.122c0.383-2.684,1.353-4.819,2.882-6.349c1.682-1.682,3.964-2.533,6.785-2.533
			c2.905,0,5.252,0.874,6.978,2.597c1.288,1.29,2.702,3.623,2.184,7.449c-0.812,8.231-3.825,14.455-8.956,18.497
			c-4.983,3.927-12.079,5.917-21.088,5.917H197.27z"/>
		<path fill="#FFFFFF" d="M289.361,935.4c-10.999,0-19.347-2.772-24.814-8.241c-5.467-5.465-8.24-13.813-8.24-24.813v-53.438
			c0-5.828,3.62-9.448,9.448-9.448s9.448,3.62,9.448,9.448v53.438c0,5.203,0.732,7.955,1.346,9.347
			c0.724,1.644,1.824,2.743,3.463,3.464c1.396,0.616,4.147,1.349,9.35,1.349h15.565c5.201,0,7.954-0.732,9.347-1.347
			c1.642-0.723,2.742-1.823,3.466-3.465c0.614-1.394,1.346-4.148,1.346-9.348v-53.438c0-5.828,3.62-9.448,9.448-9.448
			s9.448,3.62,9.448,9.448v53.438c0,10.997-2.772,19.346-8.24,24.813c-5.468,5.469-13.817,8.241-24.814,8.241H289.361z"/>
		<path fill="#FFFFFF" d="M381.583,935.4c-8.266,0-14.883-1.763-19.667-5.238c-4.967-3.607-8.101-9.123-9.313-16.394l-0.022-0.137
			l-0.014-0.139c-0.36-3.758,1.03-6.078,2.26-7.362c1.19-1.244,3.378-2.727,7.04-2.727c2.777,0,5.012,0.783,6.643,2.329
			c1.515,1.445,2.493,3.494,3,6.272c0.455,2.211,1.373,2.934,2.022,3.277c0.862,0.458,3.047,1.222,8.051,1.222h18.678
			c4.043,0,6.141-0.531,7.188-0.978c1.083-0.46,1.77-1.148,2.231-2.231c0.446-1.049,0.978-3.125,0.978-7.059
			c0-5.996-1.358-8.002-1.942-8.586c-0.725-0.725-2.788-1.941-8.456-1.941h-16.084c-9.192,0-16.253-2.402-20.988-7.14
			c-4.736-4.731-7.138-11.837-7.138-21.115c0-9.19,2.38-16.229,7.074-20.922c4.692-4.694,11.732-7.074,20.922-7.074h15.435
			c19.697,0,25.85,11.097,27.542,20.405l0.024,0.15c0.549,3.845-0.844,6.227-2.108,7.547c-1.732,1.81-4.144,2.727-7.17,2.727
			c-2.826,0-5.088-0.832-6.724-2.475c-1.425-1.421-2.358-3.436-2.769-5.984c-0.507-1.671-1.248-2.211-1.769-2.472
			c-0.746-0.373-2.66-1.003-7.027-1.003h-15.435c-3.731,0-5.628,0.466-6.562,0.857c-0.866,0.362-1.378,0.881-1.716,1.735
			c-0.376,0.951-0.823,2.849-0.823,6.508c0,3.731,0.466,5.628,0.857,6.562c0.382,0.913,0.962,1.501,1.882,1.907
			c0.92,0.407,2.79,0.891,6.491,0.891h16.084c9.62,0,16.987,2.489,21.896,7.398c4.908,4.908,7.397,12.318,7.397,22.024
			c0,9.629-2.494,16.979-7.412,21.846c-4.906,4.855-12.268,7.317-21.88,7.317H381.583z"/>
		<path fill="#FFFFFF" d="M475.748,935.4c-5.828,0-9.448-3.62-9.448-9.447v-67.469h-21.163c-5.827,0-9.447-3.62-9.447-9.447
			c0-5.828,3.62-9.448,9.447-9.448h61.222c5.828,0,9.448,3.62,9.448,9.448c0,5.827-3.621,9.447-9.448,9.447h-21.163v67.469
			c0,3.515-1.414,5.665-2.599,6.85S479.26,935.4,475.748,935.4z"/>
		<path fill="#FFFFFF" d="M554.998,935.4c-10.999,0-19.348-2.772-24.814-8.241c-5.467-5.465-8.239-13.813-8.239-24.813v-29.962
			c0-11.004,2.799-19.356,8.318-24.826c5.423-5.375,13.569-8.101,24.214-8.101l16.087,0.002c10.994,0,19.342,2.772,24.813,8.24
			c5.469,5.47,8.241,13.818,8.241,24.814v29.832c0,10.998-2.772,19.347-8.241,24.814c-5.468,5.468-13.816,8.24-24.813,8.24H554.998z
			 M554.027,858.346c-3.636,0-6.44,0.416-8.336,1.236c-1.664,0.722-2.775,1.833-3.495,3.495c-0.901,2.078-1.357,5.209-1.357,9.307
			v29.962c0,5.203,0.732,7.954,1.346,9.347c0.725,1.644,1.824,2.743,3.464,3.464c1.396,0.616,4.147,1.349,9.35,1.349h15.565
			c5.2,0,7.953-0.732,9.347-1.347c1.641-0.723,2.741-1.823,3.466-3.466c0.613-1.393,1.346-4.148,1.346-9.347v-29.832
			c0-5.101-0.738-7.877-1.356-9.308c-0.721-1.661-1.833-2.773-3.498-3.495c-1.429-0.618-4.204-1.356-9.304-1.356h-15.565
			C554.621,858.349,554.322,858.346,554.027,858.346z"/>
		<path fill="#FFFFFF" d="M699.62,935.4c-3.518,0-5.668-1.415-6.852-2.602c-1.181-1.178-2.596-3.328-2.596-6.846V878.91
			l-16.557,24.386c-1.272,1.783-2.688,3.08-4.26,3.931c-1.615,0.877-3.523,1.324-5.665,1.324c-1.859,0-3.56-0.521-5.053-1.546
			c-1.218-0.83-2.373-2.021-3.522-3.636l-16.738-24.607v47.191c0,3.513-1.413,5.664-2.599,6.849
			c-1.185,1.186-3.336,2.599-6.849,2.599c-3.517,0-5.667-1.414-6.852-2.6c-1.182-1.18-2.597-3.33-2.597-6.848v-77.046
			c0-3.512,1.412-5.662,2.597-6.849c1.189-1.188,3.34-2.6,6.852-2.6c2.634,0,6.384,0.917,9.294,5.283l26.245,39.483l26.242-39.479
			c2.158-3.431,5.616-5.288,9.946-5.288c4.065,0,8.41,2.482,8.41,9.448v77.046c0,3.513-1.413,5.664-2.599,6.849
			C705.282,933.988,703.132,935.4,699.62,935.4z"/>
		<path fill="#FFFFFF" d="M737.494,935.4c-3.517,0-5.667-1.414-6.852-2.6c-1.182-1.18-2.597-3.33-2.597-6.848v-77.046
			c0-3.512,1.412-5.662,2.597-6.849c1.189-1.188,3.34-2.6,6.852-2.6h46.564c3.509,0,5.659,1.411,6.846,2.596
			c1.19,1.192,2.602,3.343,2.602,6.853c0,3.516-1.414,5.666-2.6,6.851c-1.182,1.183-3.332,2.597-6.848,2.597h-37.117v19.238h21.812
			c3.508,0,5.658,1.41,6.846,2.594c1.192,1.196,2.603,3.347,2.603,6.854c0,3.513-1.413,5.664-2.599,6.849
			c-1.188,1.187-3.338,2.599-6.85,2.599h-21.812v20.017h37.117c3.509,0,5.659,1.411,6.846,2.596c1.19,1.192,2.602,3.343,2.602,6.853
			c0,3.516-1.414,5.666-2.6,6.851c-1.184,1.184-3.335,2.597-6.848,2.597H737.494z"/>
		<path fill="#FFFFFF" d="M863.828,936.697c-2.186,0-5.31-0.816-7.785-4.706L837.05,900.38h-11.896v25.573
			c0,3.513-1.413,5.664-2.599,6.849c-1.185,1.186-3.336,2.599-6.849,2.599c-3.517,0-5.667-1.414-6.852-2.6
			c-1.182-1.18-2.597-3.33-2.597-6.848v-77.046c0-3.512,1.412-5.662,2.597-6.849c1.189-1.188,3.34-2.6,6.852-2.6h30.351
			c9.016,0,16.099,2.511,21.053,7.462c4.952,4.956,7.462,12.038,7.462,21.053v3.892c0,7.702-1.895,14.065-5.631,18.914
			c-2.757,3.576-6.391,6.175-10.846,7.765l14.22,23.662c0.896,1.496,1.35,3.147,1.35,4.914c0,3.313-1.711,6.147-4.818,7.983
			C867.119,936.165,865.459,936.697,863.828,936.697z M846.058,881.484c3.753,0,6.408-0.672,7.679-1.941
			c1.27-1.271,1.941-3.926,1.941-7.678v-3.892c0-3.683-0.682-6.325-1.972-7.644c-1.267-1.292-3.912-1.976-7.648-1.976h-20.903v23.13
			H846.058z"/>
	</g>
</g>
</svg>
