<?xml version="1.0" encoding="utf-8"?>
<!-- Generator: Adobe Illustrator 16.0.0, SVG Export Plug-In . SVG Version: 6.00 Build 0)  -->
<!DOCTYPE svg PUBLIC "-//W3C//DTD SVG 1.1//EN" "http://www.w3.org/Graphics/SVG/1.1/DTD/svg11.dtd">
<svg version="1.1" id="Layer_1" xmlns="http://www.w3.org/2000/svg" xmlns:xlink="http://www.w3.org/1999/xlink" x="0px" y="0px"
	 width="100px" height="100px" viewBox="0 0 100 100" enable-background="new 0 0 100 100" xml:space="preserve">
<path fill="#FF6300" d="M80.1,29c-1.1-1.2-2.899-1.3-4.3-0.4c-5,3.5-30.2,20.8-32.9,23.6C39,56.2,39,62.6,42.9,66.6c2,2,4.5,3,7.1,3
	c2.6,0,5.2-1,7.1-3C59.8,63.9,77,38.4,80.5,33.3C81.4,32,81.2,30.2,80.1,29z M52.4,61.8c-1.301,1.3-3.4,1.3-4.8,0
	c-1.3-1.3-1.3-3.5,0-4.8c1.1-1.1,8.2-6.2,17-12.4C58.5,53.5,53.4,60.7,52.4,61.8z"/>
<path d="M22.5,75.2l-4.1,2c-3-5.5-4.6-11.601-4.6-17.8c0-4.601,0.8-9,2.4-13l4.8,2.3c0.5,0.2,1,0.3,1.5,0.3
	c1.3,0,2.5-0.7,3-1.9c0.8-1.7,0.1-3.7-1.6-4.5L19,40.3c5.9-9.6,16-16.3,27.6-17.4V28c0,1.9,1.5,3.4,3.4,3.4c1.9,0,3.4-1.5,3.4-3.4
	v-5.1c4,0.4,7.899,1.4,11.6,3.1c1.7,0.8,3.7,0,4.4-1.7c0.8-1.7,0-3.7-1.7-4.5C62.1,17.3,56.2,16,50,16c-11.5,0-22.3,4.5-30.4,12.7
	C11.5,36.9,7,47.8,7,59.4C7,68,9.5,76.3,14.3,83.5c0.6,1,1.7,1.5,2.8,1.5c0.5,0,1-0.1,1.5-0.3l6.9-3.4c1.7-0.8,2.4-2.899,1.5-4.5
	C26.1,75.2,24.2,74.4,22.5,75.2z"/>
<path d="M89.2,41.6c-0.8-1.7-2.8-2.5-4.4-1.7c-1.7,0.8-2.399,2.8-1.7,4.5c2.101,4.7,3.2,9.8,3.2,15
	c0,6.3-1.6,12.399-4.6,17.8L77.4,75.1c-1.7-0.8-3.7-0.1-4.5,1.601c-0.801,1.7-0.101,3.7,1.6,4.5l7.1,3.399
	c0.5,0.2,1,0.301,1.4,0.301c1.1,0,2.2-0.5,2.8-1.5C90.5,76.3,93,68,93,59.4C93,53.2,91.7,47.2,89.2,41.6z"/>
</svg>
