<?xml version="1.0" encoding="utf-8"?>
<!-- Generator: Adobe Illustrator 16.0.0, SVG Export Plug-In . SVG Version: 6.00 Build 0)  -->
<!DOCTYPE svg PUBLIC "-//W3C//DTD SVG 1.1//EN" "http://www.w3.org/Graphics/SVG/1.1/DTD/svg11.dtd">
<svg version="1.1" id="Layer_1" xmlns="http://www.w3.org/2000/svg" xmlns:xlink="http://www.w3.org/1999/xlink" x="0px" y="0px"
	 width="100px" height="100px" viewBox="0 0 100 100" enable-background="new 0 0 100 100" xml:space="preserve">
<g>
	<g>
		<path fill="#FF6300" d="M96.876,21.462c1.328,0,2.417-1.087,2.44-2.417v-15.2c0-1.354-1.089-2.441-2.44-2.441h-15.2
			c-1.329,0-2.416,1.087-2.416,2.441v5.292H20.778V3.846c0-1.33-1.087-2.417-2.416-2.441h-15.2c-1.33,0-2.417,1.087-2.441,2.441
			v15.2c0,1.329,1.088,2.417,2.441,2.417h5.292v58.481H3.162c-1.33,0-2.417,1.087-2.441,2.416v15.199
			c0,1.329,1.088,2.418,2.441,2.441h15.2c1.329,0,2.416-1.089,2.416-2.441v-5.291H79.26v5.291c0,1.329,1.087,2.418,2.416,2.441h15.2
			c1.328,0,2.417-1.089,2.44-2.441V82.359c0-1.329-1.089-2.416-2.44-2.416h-5.292V21.462H96.876z M5.554,16.629V6.237h10.391v10.392
			H5.554z M15.945,95.167H5.554V84.775h10.391V95.167z M79.26,82.359v5.074H20.778v-5.074c0-1.329-1.087-2.416-2.416-2.416h-5.075
			V21.462h5.075c1.329,0,2.416-1.087,2.416-2.417V13.97H79.26v5.075c0,1.329,1.087,2.417,2.416,2.417h5.074v58.481h-5.074
			C80.347,79.943,79.26,81.03,79.26,82.359z M94.483,84.775v10.392H84.093V84.775H94.483z M84.093,16.629V6.237h10.391v10.392
			H84.093z"/>
	</g>
</g>
</svg>
