<?xml version="1.0" encoding="utf-8"?>
<!-- Generator: Adobe Illustrator 16.0.0, SVG Export Plug-In . SVG Version: 6.00 Build 0)  -->
<!DOCTYPE svg PUBLIC "-//W3C//DTD SVG 1.1//EN" "http://www.w3.org/Graphics/SVG/1.1/DTD/svg11.dtd">
<svg version="1.1" id="Layer_1" xmlns="http://www.w3.org/2000/svg" xmlns:xlink="http://www.w3.org/1999/xlink" x="0px" y="0px"
	 width="100px" height="100px" viewBox="0 0 100 100" enable-background="new 0 0 100 100" xml:space="preserve">
<g>
	<g>
		<path fill="#189DE8" d="M50,0.748c-19.671,0-35.674,16.003-35.674,35.674c0,24.412,31.925,60.25,33.284,61.765
			c1.277,1.421,3.506,1.419,4.78,0c1.359-1.515,33.284-37.353,33.284-61.765C85.673,16.751,69.67,0.748,50,0.748z M50,54.371
			c-9.897,0-17.948-8.052-17.948-17.949c0-9.896,8.052-17.948,17.948-17.948c9.897,0,17.948,8.052,17.948,17.949
			S59.896,54.371,50,54.371z"/>
	</g>
</g>
</svg>
