<?xml version="1.0" encoding="utf-8"?>
<!-- Generator: Adobe Illustrator 16.0.0, SVG Export Plug-In . SVG Version: 6.00 Build 0)  -->
<!DOCTYPE svg PUBLIC "-//W3C//DTD SVG 1.1//EN" "http://www.w3.org/Graphics/SVG/1.1/DTD/svg11.dtd">
<svg version="1.1" id="Layer_1" xmlns="http://www.w3.org/2000/svg" xmlns:xlink="http://www.w3.org/1999/xlink" x="0px" y="0px"
	 width="100px" height="100px" viewBox="0 0 100 100" enable-background="new 0 0 100 100" xml:space="preserve">
<path d="M50,23.8c5.1,0,9.3-4.2,9.3-9.4C59.3,9.2,55.1,5,50,5c-5.1,0-9.3,4.2-9.3,9.4C40.7,19.6,44.9,23.8,50,23.8z"
	/>
<path d="M65.8,52.6V36.2c0-3.6-2.3-6.7-5.6-7.9l0,0L57.6,27.5c-0.399-0.1-0.899,0.1-1,0.5L51,43.5
	c-0.3,0.9-1.6,0.9-1.9,0L43.5,28c-0.1-0.3-0.4-0.5-0.8-0.5c-0.1,0-2.9,0.9-2.9,0.9c-3.4,1.1-5.6,4.3-5.6,7.9v16.4
	c0,0.2,0,0.3,0.1,0.5l5.8,9v22.7c0,0.5,0.4,0.8,0.8,0.8H59c0.5,0,0.8-0.4,0.8-0.8V62l5.8-9C65.8,52.9,65.8,52.8,65.8,52.6z"/>
<path fill="#FF6300" d="M21.2,78.6c0.6-1.399,0-2.899-1.4-3.5c-1.3-0.6-2.9,0-3.5,1.4L12.2,86c-0.6,1.4,0,2.9,1.4,3.5l9.4,4.2
	c0.3,0.2,0.7,0.2,1.1,0.2c1,0,2-0.601,2.4-1.601c0.6-1.3,0-2.899-1.4-3.5l-3.5-1.6L37.2,81v-5.7l-17.6,6.9L21.2,78.6z"/>
<path fill="#FF6300" d="M25.7,56.4c1.4-0.5,2-2.101,1.5-3.5c-0.5-1.4-2.1-2.101-3.4-1.5l-9.5,3.8c-1.4,0.5-2,2.1-1.5,3.5l3.7,9.7
	c0.4,1.1,1.4,1.699,2.5,1.699c0.3,0,0.6-0.1,1-0.199c1.4-0.5,2-2.101,1.5-3.5L20,62.7l17.2,7.6v-5.8l-15.1-6.7L25.7,56.4z"/>
<path fill="#FF6300" d="M83.5,77.9c-0.5-1.4-2.1-2.101-3.4-1.5c-1.399,0.5-2,2.1-1.5,3.5L80,83.6L62.8,76v5.8L77.9,88.5L74.3,89.9
	c-1.399,0.5-2,2.1-1.5,3.5c0.4,1.1,1.4,1.699,2.5,1.699c0.3,0,0.601-0.1,1-0.199l9.5-3.801c1.4-0.5,2-2.1,1.5-3.5L83.5,77.9z"/>
<path fill="#FF6300" d="M86.4,56.7L77,52.6c-1.3-0.6-2.9,0-3.5,1.4s0,2.9,1.4,3.5l3.5,1.6l-15.7,6.2V71l17.7-7L78.8,67.6
	c-0.6,1.301,0,2.9,1.4,3.5c0.3,0.2,0.7,0.2,1.1,0.2c1,0,2-0.6,2.4-1.6l4.1-9.5C88.4,58.9,87.8,57.3,86.4,56.7z"/>
<path fill="#FF6300" d="M52.1,27.8c-0.199-0.2-0.6-0.4-0.899-0.4h-2.5c-0.3,0-0.7,0.1-0.9,0.4c-0.3,0.4-0.4,0.9-0.2,1.4l1.3,2
	l-0.6,5.3l1.2,3.3c0.1,0.3,0.6,0.3,0.7,0l1.2-3.3L50.8,31.2l1.3-2C52.5,28.8,52.5,28.2,52.1,27.8z"/>
</svg>
