<?xml version="1.0" encoding="utf-8"?>
<!-- Generator: Adobe Illustrator 16.0.0, SVG Export Plug-In . SVG Version: 6.00 Build 0)  -->
<!DOCTYPE svg PUBLIC "-//W3C//DTD SVG 1.1//EN" "http://www.w3.org/Graphics/SVG/1.1/DTD/svg11.dtd">
<svg version="1.1" id="Capa_1" xmlns="http://www.w3.org/2000/svg" xmlns:xlink="http://www.w3.org/1999/xlink" x="0px" y="0px"
	 width="100px" height="100px" viewBox="0 0 100 100" enable-background="new 0 0 100 100" xml:space="preserve">
<path fill="#8DC640" d="M89.035,90.631c-15.302,12.492-63.081,12.492-78.07,0c-15.302-12.49-13.74-65.891,0-79.943
	c13.74-14.052,64.33-14.052,78.07,0C102.775,24.74,104.337,78.141,89.035,90.631z"/>
<g opacity="0.2">
	<path fill="#FFFFFF" d="M50.313,68.771C36.572,79.701,21.27,85.322,6.905,85.635c-10.618-18.111-8.432-62.144,4.06-74.947
		C22.207-0.866,57.494-3.053,77.793,4.13C82.789,24.741,72.484,50.972,50.313,68.771z"/>
</g>
<path fill="#FFFFFF" d="M42.817,77.828c-2.186,0-4.372-0.938-5.621-2.811L19.709,52.533c-2.499-3.123-1.874-7.495,1.249-9.993
	c3.123-2.499,7.495-1.874,9.993,1.249l11.867,15.302l26.231-34.039c2.498-3.123,6.871-3.748,9.993-1.249
	c3.122,2.498,3.747,6.87,1.249,9.993L48.438,75.018C46.877,76.579,45.003,77.828,42.817,77.828z"/>
</svg>
