<?xml version="1.0" encoding="utf-8"?>
<!-- Generator: Adobe Illustrator 16.0.0, SVG Export Plug-In . SVG Version: 6.00 Build 0)  -->
<!DOCTYPE svg PUBLIC "-//W3C//DTD SVG 1.1//EN" "http://www.w3.org/Graphics/SVG/1.1/DTD/svg11.dtd">
<svg version="1.1" id="Layer_1" xmlns="http://www.w3.org/2000/svg" xmlns:xlink="http://www.w3.org/1999/xlink" x="0px" y="0px"
	 width="100px" height="100px" viewBox="0 0 100 100" enable-background="new 0 0 100 100" xml:space="preserve">
<path fill="#FF6300" d="M89.22,14.293H11.772c-4.548,0-8.258,3.698-8.258,8.24v54.933c0,4.527,3.694,8.24,8.258,8.24H89.22
	c4.537,0,8.259-3.686,8.259-8.24V22.534C97.479,18.007,93.784,14.293,89.22,14.293z M88.079,19.786L50.671,57.111L12.939,19.786
	H88.079z M9.02,76.33V23.645l26.516,26.229L9.02,76.33z M12.913,80.213l26.532-26.472l9.297,9.195
	c1.077,1.065,2.813,1.062,3.885-0.007l9.064-9.045L88.08,80.213H12.913z M91.973,76.328L65.583,50l26.39-26.329V76.328z"/>
</svg>
