<?xml version="1.0" encoding="utf-8"?>
<!-- Generator: Adobe Illustrator 16.0.0, SVG Export Plug-In . SVG Version: 6.00 Build 0)  -->
<!DOCTYPE svg PUBLIC "-//W3C//DTD SVG 1.1//EN" "http://www.w3.org/Graphics/SVG/1.1/DTD/svg11.dtd">
<svg version="1.1" id="Layer_1" xmlns="http://www.w3.org/2000/svg" xmlns:xlink="http://www.w3.org/1999/xlink" x="0px" y="0px"
	 width="100px" height="100px" viewBox="0 0 100 100" enable-background="new 0 0 100 100" xml:space="preserve">
<path fill="#888888" d="M88.329,98.334H41.663L1.663,25h46.667L88.329,98.334z"/>
<g>
	<circle fill="#FF6300" cx="78.329" cy="21.667" r="11.667"/>
	<g>
		<path id="SVGCleanerId_0" fill="#FF6300" d="M76.662,0h3.334v5h-3.334V0z"/>
	</g>
	<g>
		<path id="SVGCleanerId_1" fill="#FF6300" d="M76.662,38.333h3.334v5h-3.334V38.333z"/>
	</g>
	<g>
		<path id="SVGCleanerId_2" fill="#FF6300" d="M56.662,20h5v3.333h-5V20z"/>
	</g>
	<g>
		<path id="SVGCleanerId_3" fill="#FF6300" d="M94.996,20h5v3.333h-5V20z"/>
	</g>
	<g>
		<path id="SVGCleanerId_4" fill="#FF6300" d="M61.829,7.524l2.356-2.357l3.536,3.536l-2.356,2.357L61.829,7.524z"/>
	</g>
	<g>
		<path id="SVGCleanerId_5" fill="#FF6300" d="M88.938,34.625l2.356-2.357l3.536,3.536l-2.357,2.357L88.938,34.625z"/>
	</g>
	<g>
		<path id="SVGCleanerId_6" fill="#FF6300" d="M61.83,35.809l3.535-3.536l2.357,2.357l-3.536,3.536L61.83,35.809z"/>
	</g>
	<g>
		<path id="SVGCleanerId_7" fill="#FF6300" d="M88.936,8.702l3.536-3.536l2.357,2.357l-3.536,3.536L88.936,8.702z"/>
	</g>
</g>
<path fill="#888888" d="M1.663,25v11.667l33.333,61.667h6.667L1.663,25z"/>
<path fill="#3570AB" d="M64.416,78.334l-8.199-15h13.021L67.421,60H54.396l-8.199-15h13.04l-1.816-3.333H44.376L35.268,25h-3.8
	l9.108,16.667h-11.2L20.268,25h-3.8l9.108,16.667H10.754L12.571,45h14.833l8.198,15H20.769l1.817,3.334h14.847l8.198,15H30.754
	l1.816,3.332h14.867l9.108,16.668h3.8l-9.108-16.668h11.2l9.108,16.668h3.8l-9.108-16.668h13l-1.816-3.332H64.416z M31.197,45h11.2
	l8.198,15h-11.2L31.197,45z M49.416,78.334l-8.199-15h11.201l8.197,15H49.416z"/>
<path fill="#FF6300" d="M78.329,35c7.364,0,13.333-5.97,13.333-13.333S85.693,8.333,78.329,8.333s-13.333,5.969-13.333,13.333
	C65.004,29.027,70.969,34.992,78.329,35z M78.329,11.667c5.522,0,10,4.477,10,10s-4.478,10-10,10s-10-4.477-10-10
	C68.334,16.146,72.809,11.672,78.329,11.667z"/>
<path id="SVGCleanerId_0_1_" fill="#FF6300" d="M76.662,0h3.334v5h-3.334V0z"/>
<path id="SVGCleanerId_1_1_" fill="#FF6300" d="M76.662,38.333h3.334v5h-3.334V38.333z"/>
<path id="SVGCleanerId_2_1_" fill="#FF6300" d="M56.662,20h5v3.333h-5V20z"/>
<path id="SVGCleanerId_3_1_" fill="#FF6300" d="M94.996,20h5v3.333h-5V20z"/>
<path id="SVGCleanerId_4_1_" fill="#FF6300" d="M61.829,7.524l2.356-2.357l3.536,3.536l-2.356,2.357L61.829,7.524z"/>
<path id="SVGCleanerId_5_1_" fill="#FF6300" d="M88.938,34.625l2.356-2.357l3.536,3.536l-2.357,2.357L88.938,34.625z"/>
<path id="SVGCleanerId_6_1_" fill="#FF6300" d="M61.83,35.809l3.535-3.536l2.357,2.357l-3.536,3.536L61.83,35.809z"/>
<path id="SVGCleanerId_7_1_" fill="#FF6300" d="M88.936,8.702l3.536-3.536l2.357,2.357l-3.536,3.536L88.936,8.702z"/>
<path fill="#FFFFFF" d="M33.529,99.127c0.292,0.538,0.854,0.873,1.466,0.873h53.333c0.921,0,1.667-0.746,1.667-1.666
	c0-0.279-0.07-0.555-0.203-0.799l-40-73.333c-0.292-0.536-0.854-0.869-1.463-0.868H1.663c-0.125,0.002-0.25,0.019-0.372,0.048
	c-0.014,0-0.027,0-0.04,0c-0.163,0.043-0.317,0.112-0.458,0.203c-0.042,0.027-0.082,0.058-0.12,0.09
	c-0.137,0.104-0.259,0.229-0.36,0.369c-0.023,0.035-0.055,0.063-0.077,0.1c-0.036,0.067-0.065,0.138-0.09,0.21
	c-0.022,0.043-0.042,0.088-0.059,0.133c-0.053,0.161-0.081,0.33-0.083,0.5v11.68c0,0.277,0.068,0.55,0.2,0.793L33.529,99.127z
	 M3.329,36.245v-4.708l35.525,65.129h-2.858L3.329,36.245z M17.339,26.667l8.182,15H12.652l-8.182-15H17.339z M32.339,26.667
	l8.182,15H29.319l-8.182-15H32.339z M65.521,60H54.319l-8.182-15H57.34L65.521,60z M59.319,96.666l-8.182-15H62.34l8.182,15H59.319z
	 M42.652,96.666l-8.182-15h12.869l8.182,15H42.652z M24.471,63.334h12.869l8.182,15H32.652L24.471,63.334z M22.652,60l-8.182-15
	h12.869l8.182,15H22.652z M49.319,78.334l-8.182-15H52.34l8.182,15H49.319z M56.138,63.334H67.34l8.182,15H64.319L56.138,63.334z
	 M50.521,60H39.319l-8.182-15h11.202L50.521,60z M74.319,96.666l-8.182-15H77.34l8.182,15H74.319z M55.521,41.667H44.319l-8.182-15
	h11.202L55.521,41.667z"/>
</svg>
