<?xml version="1.0" encoding="utf-8"?>
<!-- Generator: Adobe Illustrator 16.0.0, SVG Export Plug-In . SVG Version: 6.00 Build 0)  -->
<!DOCTYPE svg PUBLIC "-//W3C//DTD SVG 1.1//EN" "http://www.w3.org/Graphics/SVG/1.1/DTD/svg11.dtd">
<svg version="1.1" id="Layer_1" xmlns="http://www.w3.org/2000/svg" xmlns:xlink="http://www.w3.org/1999/xlink" x="0px" y="0px"
	 width="100px" height="100px" viewBox="0 0 100 100" enable-background="new 0 0 100 100" xml:space="preserve">
<path fill="#FF6300" d="M6.9,83.2c0,3.2,2.6,5.8,5.9,5.8h31.3c3.2,0,5.9-2.6,5.9-5.8V69.8H6.9V83.2z"/>
<path d="M95,23.6H80.6L78.3,19c-1-2-3-3.2-5.3-3.2h-9l-6.6-2.2c-3.4-1-6.9-1.6-10.5-1.6h-38C5.6,12,3,14.6,3,17.8
	v15.4C3,36.4,5.6,39,8.9,39h9.5l-3.5,22l-6.7,4.9h40.2l-11.9-5l1.3-8.5c0.1,0,0.3,0,0.4,0c0.9,0,1.7-0.601,1.9-1.5l2-7.7
	c0.3-1-0.4-2.1-1.4-2.3c-0.4-0.1-0.7,0-1.1,0.1l0.3-2.1h6.9c3.6,0,7.101-0.6,10.5-1.7L63.9,35h9c2.199,0,4.3-1.2,5.3-3.2l2.3-4.5H95
	c1.1,0,2-0.9,2-1.9S96.1,23.6,95,23.6z M24.5,31.3H12.8c-1.1,0-2-0.9-2-1.9s0.9-1.9,2-1.9h11.8c1.1,0,2,0.9,2,1.9
	S25.6,31.3,24.5,31.3z M24.5,23.6H12.8c-1.1,0-2-0.9-2-1.9c0-1.1,0.9-1.9,2-1.9h11.8c1.1,0,2,0.9,2,1.9
	C26.5,22.7,25.6,23.6,24.5,23.6z M65.7,29.3c0,1.1-0.9,1.9-2,1.9c-1.101,0-2-0.9-2-1.9v-7.7c0-1.1,0.899-1.9,2-1.9
	c1.1,0,2,0.9,2,1.9V29.3z"/>
</svg>
