<?xml version="1.0" encoding="utf-8"?>
<!-- Generator: Adobe Illustrator 16.0.0, SVG Export Plug-In . SVG Version: 6.00 Build 0)  -->
<!DOCTYPE svg PUBLIC "-//W3C//DTD SVG 1.1//EN" "http://www.w3.org/Graphics/SVG/1.1/DTD/svg11.dtd">
<svg version="1.1" id="Layer_1" xmlns="http://www.w3.org/2000/svg" xmlns:xlink="http://www.w3.org/1999/xlink" x="0px" y="0px"
	 width="100px" height="100px" viewBox="0 0 100 100" enable-background="new 0 0 100 100" xml:space="preserve">
<g>
	<path d="M97.833,15.111v23.327H83.452L31.713,90.174H3.121V66.848h18.932l51.738-51.736H97.833z"/>
</g>
<path fill="#FF6300" d="M38.996,16.983l-19.963,2.609c-0.293,0.036-0.521,0.266-0.561,0.556c-0.041,0.29,0.116,0.571,0.384,0.689
	l8.016,3.476L13.571,37.612c-0.253,0.256-0.253,0.668,0,0.922l4.604,4.604c0.254,0.255,0.666,0.254,0.922,0l13.301-13.3l3.475,8.014
	c0.116,0.268,0.398,0.428,0.689,0.386c0.145-0.021,0.273-0.088,0.371-0.185c0.096-0.098,0.164-0.229,0.184-0.375l2.608-19.963
	c0.026-0.202-0.039-0.402-0.185-0.545C39.398,17.026,39.195,16.957,38.996,16.983z"/>
</svg>
