
<svg version="1.1" id="Layer_1" xmlns="http://www.w3.org/2000/svg" xmlns:xlink="http://www.w3.org/1999/xlink" x="0px" y="0px"
	 width="100px" height="100px" viewBox="0 0 100 100" enable-background="new 0 0 100 100" xml:space="preserve">
<path fill="#888888" d="M17.674,60.127c0.635,0.426,1.354,0.63,2.065,0.63c1.199,0,2.378-0.58,3.095-1.651
	c6.011-8.983,16.06-14.346,26.88-14.346c10.788,0,20.82,5.338,26.837,14.28c1.146,1.704,3.458,2.156,5.162,1.01
	c1.705-1.147,2.157-3.459,1.01-5.164c-4.807-7.143-11.696-12.415-19.571-15.235c4.723-3.857,7.742-9.723,7.742-16.282
	c0-11.59-9.428-21.019-21.018-21.019c-11.591,0-21.02,9.429-21.02,21.019c0,6.511,2.977,12.341,7.641,16.199
	c-7.997,2.81-14.992,8.145-19.846,15.399C15.509,56.675,15.967,58.985,17.674,60.127z M49.877,9.791
	c7.487,0,13.578,6.091,13.578,13.579c0,7.487-6.091,13.579-13.578,13.579c-7.488,0-13.579-6.092-13.579-13.579
	C36.298,15.882,42.389,9.791,49.877,9.791z"/>
<path fill="#FF6300" d="M64.836,63.976l-5.546,4.001c-0.826,0.596-1.17,1.65-0.854,2.614l2.233,6.473
	c0.095,0.288,0.13,0.569,0.117,0.839c-0.078,1.738-2.257,2.929-3.856,1.775l-5.545-4.003c-0.412-0.297-0.898-0.446-1.384-0.446
	c-0.486,0-0.972,0.149-1.385,0.446l-5.545,4.003c-1.599,1.153-3.788-0.037-3.857-1.775c-0.011-0.27,0.027-0.551,0.121-0.839
	l2.23-6.473c0.316-0.964-0.029-2.019-0.854-2.614l-5.546-4.001c-1.846-1.33-0.896-4.489,1.384-4.489h6.855
	c1.02,0,1.923-0.392,2.239-1.354l2.118-6.516C48.114,50.54,49.058,50,50.001,50s1.886,0.54,2.239,1.616l2.118,6.516
	c0.315,0.963,1.219,1.354,2.238,1.354h6.855C65.732,59.486,66.681,62.646,64.836,63.976z"/>
<path fill="#888888" d="M32.836,80.976l-5.546,4.001c-0.826,0.596-1.17,1.65-0.854,2.614l2.233,6.473
	c0.095,0.288,0.13,0.569,0.117,0.839c-0.078,1.738-2.257,2.929-3.856,1.775l-5.545-4.003c-0.412-0.297-0.898-0.446-1.384-0.446
	c-0.486,0-0.972,0.149-1.385,0.446l-5.545,4.003c-1.599,1.153-3.788-0.037-3.857-1.775c-0.011-0.27,0.027-0.551,0.121-0.839
	l2.23-6.473c0.316-0.964-0.029-2.019-0.854-2.614l-5.546-4.001c-1.846-1.33-0.896-4.489,1.384-4.489h6.855
	c1.02,0,1.923-0.392,2.239-1.354l2.118-6.516C16.114,67.54,17.058,67,18.001,67s1.886,0.54,2.239,1.616l2.118,6.516
	c0.315,0.963,1.219,1.354,2.238,1.354h6.855C33.732,76.486,34.681,79.646,32.836,80.976z"/>
<path fill="#888888" d="M96.836,80.976l-5.546,4.001c-0.826,0.596-1.17,1.65-0.854,2.614l2.233,6.473
	c0.095,0.288,0.13,0.569,0.117,0.839c-0.078,1.738-2.257,2.929-3.856,1.775l-5.545-4.003c-0.412-0.297-0.898-0.446-1.384-0.446
	c-0.486,0-0.972,0.149-1.385,0.446l-5.545,4.003c-1.599,1.153-3.788-0.037-3.857-1.775c-0.011-0.27,0.027-0.551,0.121-0.839
	l2.23-6.473c0.316-0.964-0.029-2.019-0.854-2.614l-5.546-4.001c-1.846-1.33-0.896-4.489,1.384-4.489h6.855
	c1.02,0,1.923-0.392,2.239-1.354l2.118-6.516C80.114,67.54,81.058,67,82.001,67s1.886,0.54,2.239,1.616l2.118,6.516
	c0.315,0.963,1.219,1.354,2.238,1.354h6.855C97.732,76.486,98.681,79.646,96.836,80.976z"/>
</svg>
