<?xml version="1.0" encoding="utf-8"?>
<!-- Generator: Adobe Illustrator 16.0.0, SVG Export Plug-In . SVG Version: 6.00 Build 0)  -->
<!DOCTYPE svg PUBLIC "-//W3C//DTD SVG 1.1//EN" "http://www.w3.org/Graphics/SVG/1.1/DTD/svg11.dtd">
<svg version="1.1" id="Capa_1" xmlns="http://www.w3.org/2000/svg" xmlns:xlink="http://www.w3.org/1999/xlink" x="0px" y="0px"
	 width="100px" height="100px" viewBox="0 0 100 100" enable-background="new 0 0 100 100" xml:space="preserve">
<path fill="#CAD1DE" d="M89.035,90.631c-15.302,12.492-63.081,12.492-78.07,0c-15.302-12.49-13.74-65.891,0-79.943
	c13.74-14.052,64.33-14.052,78.07,0C102.775,24.74,104.337,78.141,89.035,90.631z"/>
<g opacity="0.2">
	<path fill="#FFFFFF" d="M50.313,68.771C36.572,79.701,21.27,85.322,6.905,85.635c-10.618-18.111-8.432-62.144,4.06-74.947
		C22.207-0.866,57.494-3.053,77.793,4.13C82.789,24.741,72.484,50.972,50.313,68.771z"/>
</g>
<g>
	<g>
		<path fill="#FFFFFF" d="M66.869,29.841h-5.682c-0.758-0.842-1.73-1.486-2.85-1.808c-0.941-0.271-1.667-0.996-1.938-1.938
			c-0.736-2.563-3.099-4.438-5.899-4.438c-2.8,0-5.163,1.875-5.9,4.438c-0.271,0.943-0.998,1.667-1.942,1.939
			c-1.117,0.322-2.089,0.965-2.847,1.807h-5.681c-2.26,0-4.092,1.832-4.092,4.092v36.831c0,2.26,1.832,4.092,4.092,4.092h32.738
			c2.26,0,4.092-1.832,4.092-4.092V33.933C70.961,31.673,69.129,29.841,66.869,29.841z M50.525,25.749
			c1.131,0,2.047,0.916,2.047,2.046c0,1.13-0.916,2.046-2.047,2.046c-1.129,0-2.045-0.916-2.045-2.046
			C48.48,26.665,49.396,25.749,50.525,25.749z M66.869,70.764H34.131V33.933h4.092v4.092h24.553v-4.092h4.093V70.764z"/>
	</g>
</g>
<g>
	<g>
		<polygon fill="#FFFFFF" points="58.282,45.779 46.904,57.156 42.156,52.509 39.262,55.404 46.904,62.944 61.176,48.673 		"/>
	</g>
</g>
</svg>
