
<svg version="1.1" id="Layer_1" xmlns="http://www.w3.org/2000/svg" xmlns:xlink="http://www.w3.org/1999/xlink" x="0px" y="0px"
	 width="100px" height="100px" viewBox="0 0 100 100" enable-background="new 0 0 100 100" xml:space="preserve">
<path fill="#888888" d="M74.335,43.438C73.064,37.205,67.54,32.5,60.938,32.5H39.063c-6.603,0-12.127,4.705-13.397,10.938H3.333
	v53.229h93.334V43.438H74.335z M39.063,37.969h21.875c3.564,0,6.604,2.286,7.733,5.469H31.33
	C32.458,40.254,35.498,37.969,39.063,37.969z M91.198,48.906v5.469H8.802v-5.469H91.198z M8.802,91.198V59.844h82.396v31.354H8.802z
	"/>
<path fill="#FF6300" d="M50,27.031c6.533,0,11.849-5.316,11.849-11.849c0-6.534-5.315-11.849-11.849-11.849
	S38.151,8.648,38.151,15.182C38.151,21.715,43.467,27.031,50,27.031z M50,8.802c3.519,0,6.38,2.862,6.38,6.38
	c0,3.518-2.861,6.38-6.38,6.38c-3.518,0-6.38-2.862-6.38-6.38C43.62,11.664,46.482,8.802,50,8.802z"/>
</svg>
