<?xml version="1.0" encoding="utf-8"?>
<!-- Generator: Adobe Illustrator 16.0.0, SVG Export Plug-In . SVG Version: 6.00 Build 0)  -->
<!DOCTYPE svg PUBLIC "-//W3C//DTD SVG 1.1//EN" "http://www.w3.org/Graphics/SVG/1.1/DTD/svg11.dtd">
<svg version="1.1" id="Layer_1" xmlns="http://www.w3.org/2000/svg" xmlns:xlink="http://www.w3.org/1999/xlink" x="0px" y="0px"
	 width="100px" height="100px" viewBox="0 0 100 100" enable-background="new 0 0 100 100" xml:space="preserve">
<g>
	<path fill="#FF6300" d="M80.7,88.061h-7.912v-9.492c0-12.012-6.561-22.847-16.95-28.48c10.39-5.633,16.95-16.468,16.95-28.479
		v-9.493H80.7c2.615,0,4.746-2.129,4.746-4.746c0-2.617-2.131-4.747-4.746-4.747H17.413c-2.617,0-4.747,2.129-4.747,4.747
		c0,2.617,2.13,4.746,4.747,4.746h7.911v9.493c0,12.011,6.561,22.846,16.951,28.479c-10.39,5.633-16.951,16.468-16.951,28.48v9.492
		h-7.911c-2.617,0-4.747,2.129-4.747,4.746s2.13,4.747,4.747,4.747H80.7c2.615,0,4.746-2.13,4.746-4.747S83.315,88.061,80.7,88.061z
		 M17.413,8.953c-0.872,0-1.583-0.709-1.583-1.582c0-0.874,0.711-1.583,1.583-1.583H80.7c0.871,0,1.58,0.709,1.58,1.583
		c0,0.873-0.709,1.582-1.58,1.582h-7.912H25.324H17.413z M28.489,21.61v-9.493h41.135v9.493c0,11.75-6.948,22.273-17.724,26.896
		h-5.688C35.436,43.883,28.489,33.36,28.489,21.61z M28.489,78.568c0-11.752,6.947-22.273,17.724-26.897H51.9
		c10.775,4.624,17.724,15.146,17.724,26.897v9.492c0-0.873-0.708-1.581-1.582-1.581c-0.873,0-1.581,0.708-1.581,1.581h-3.166
		c0-0.873-0.709-1.581-1.58-1.581c-0.874,0-1.584,0.708-1.584,1.581h-3.163c0-0.873-0.711-1.581-1.584-1.581
		s-1.582,0.708-1.582,1.581h-3.164c0-0.873-0.709-1.581-1.582-1.581s-1.583,0.708-1.583,1.581H44.31
		c0-0.873-0.708-1.581-1.582-1.581c-0.873,0-1.582,0.708-1.582,1.581h-3.165c0-0.873-0.708-1.581-1.582-1.581
		s-1.582,0.708-1.582,1.581h-3.165c0-0.873-0.708-1.581-1.582-1.581s-1.582,0.708-1.582,1.581V78.568z M80.7,94.388H17.413
		c-0.872,0-1.583-0.707-1.583-1.581s0.711-1.581,1.583-1.581h7.911h47.464H80.7c0.871,0,1.58,0.707,1.58,1.581
		S81.571,94.388,80.7,94.388z"/>
	<circle fill="#FF6300" cx="33.234" cy="84.896" r="1.583"/>
	<circle fill="#FF6300" cx="39.563" cy="84.896" r="1.583"/>
	<circle fill="#FF6300" cx="45.892" cy="84.896" r="1.583"/>
	<circle fill="#FF6300" cx="52.222" cy="84.896" r="1.583"/>
	<circle fill="#FF6300" cx="58.549" cy="84.896" r="1.583"/>
	<circle fill="#FF6300" cx="64.877" cy="84.896" r="1.583"/>
	<circle fill="#FF6300" cx="36.399" cy="81.731" r="1.583"/>
	<circle fill="#FF6300" cx="42.728" cy="81.731" r="1.583"/>
	<circle fill="#FF6300" cx="49.056" cy="54.835" r="1.582"/>
	<circle fill="#FF6300" cx="39.563" cy="37.432" r="1.582"/>
	<circle fill="#FF6300" cx="45.892" cy="37.432" r="1.582"/>
	<circle fill="#FF6300" cx="52.222" cy="37.432" r="1.582"/>
	<circle fill="#FF6300" cx="58.549" cy="37.432" r="1.582"/>
	<circle fill="#FF6300" cx="55.384" cy="34.267" r="1.583"/>
	<circle fill="#FF6300" cx="58.549" cy="31.103" r="1.582"/>
	<circle fill="#FF6300" cx="42.728" cy="34.267" r="1.583"/>
	<circle fill="#FF6300" cx="49.056" cy="34.267" r="1.583"/>
	<circle fill="#FF6300" cx="39.563" cy="31.103" r="1.582"/>
	<circle fill="#FF6300" cx="42.728" cy="40.595" r="1.582"/>
	<circle fill="#FF6300" cx="45.892" cy="43.76" r="1.583"/>
	<circle fill="#FF6300" cx="52.222" cy="43.76" r="1.583"/>
	<circle fill="#FF6300" cx="49.056" cy="40.595" r="1.582"/>
	<circle fill="#FF6300" cx="55.384" cy="40.595" r="1.582"/>
	<circle fill="#FF6300" cx="49.056" cy="59.582" r="1.582"/>
	<circle fill="#FF6300" cx="49.056" cy="64.328" r="1.582"/>
	<circle fill="#FF6300" cx="49.056" cy="69.075" r="1.582"/>
	<circle fill="#FF6300" cx="49.056" cy="73.82" r="1.582"/>
	<circle fill="#FF6300" cx="49.056" cy="78.567" r="1.582"/>
	<circle fill="#FF6300" cx="55.384" cy="81.731" r="1.583"/>
	<circle fill="#FF6300" cx="61.715" cy="81.731" r="1.583"/>
</g>
</svg>
