<?xml version="1.0" encoding="utf-8"?>
<!-- Generator: Adobe Illustrator 16.0.0, SVG Export Plug-In . SVG Version: 6.00 Build 0)  -->
<!DOCTYPE svg PUBLIC "-//W3C//DTD SVG 1.1//EN" "http://www.w3.org/Graphics/SVG/1.1/DTD/svg11.dtd">
<svg version="1.1" id="Capa_1" xmlns="http://www.w3.org/2000/svg" xmlns:xlink="http://www.w3.org/1999/xlink" x="0px" y="0px"
	 width="512px" height="512px" viewBox="0 0 512 512" enable-background="new 0 0 512 512" xml:space="preserve">
<path fill="#FFFFFF" d="M235.968,160l-0.046,111.938c0,4.25,1.687,8.313,4.688,11.313l80.078,80.063l22.625-22.625l-75.392-75.375
	L267.968,160H235.968z"/>
<path fill="#FFFFFF" d="M84.157,76.768c90.67-87.236,230.946-91.629,328.026-15.879l53.585-51.554l-2.011,126.819l-126.802-2.887
	l49.198-47.334c-83.033-61.638-200.594-56.771-277.039,16.775c-85.237,82.007-87.403,218.536-4.825,304.363
	c82.575,85.827,219.084,88.935,304.323,6.929c47.913-46.102,71.334-110.684,64.25-177.189l35.659-3.574
	c8.261,77.569-19.049,152.917-74.953,206.703c-99.438,95.673-258.72,92.035-355.044-8.079
	C-17.797,331.743-15.282,172.44,84.157,76.768L84.157,76.768z"/>
</svg>
