<?xml version="1.0" encoding="utf-8"?>
<!-- Generator: Adobe Illustrator 16.0.0, SVG Export Plug-In . SVG Version: 6.00 Build 0)  -->
<!DOCTYPE svg PUBLIC "-//W3C//DTD SVG 1.1//EN" "http://www.w3.org/Graphics/SVG/1.1/DTD/svg11.dtd">
<svg version="1.1" id="Layer_1" xmlns="http://www.w3.org/2000/svg" xmlns:xlink="http://www.w3.org/1999/xlink" x="0px" y="0px"
	 width="100px" height="100px" viewBox="0 0 100 100" enable-background="new 0 0 100 100" xml:space="preserve">
<g>
	<path fill="#FF6300" d="M65.429,0H25.265c-5.868,0-10.643,4.779-10.643,10.643V50h-1.04c-2.368,0-4.289,1.918-4.289,4.289v26.01
		c0,2.37,1.92,4.289,4.289,4.289h1.04v4.769c0,5.871,4.775,10.644,10.643,10.644h54.802c5.864,0,10.641-4.773,10.641-10.644V25.189
		L65.429,0z M80.066,93.482H25.265c-2.272,0-4.122-1.851-4.122-4.126v-4.769h51.087c2.368,0,4.289-1.919,4.289-4.289v-26.01
		c0-2.371-1.921-4.289-4.289-4.289H21.143V10.643c0-2.269,1.85-4.119,4.122-4.119l37.726-0.04V20.43
		c0,4.073,3.305,7.381,7.381,7.381l13.66-0.039l0.154,61.585C84.186,91.632,82.338,93.482,80.066,93.482z"/>
</g>
<text transform="matrix(1 0 0 1 20.8799 75.8027)" fill="#FFFFFF" font-family="'OpenSans-Bold'" font-size="24">IMG</text>
</svg>
