<?xml version="1.0" encoding="utf-8"?>
<!-- Generator: Adobe Illustrator 16.0.0, SVG Export Plug-In . SVG Version: 6.00 Build 0)  -->
<!DOCTYPE svg PUBLIC "-//W3C//DTD SVG 1.1//EN" "http://www.w3.org/Graphics/SVG/1.1/DTD/svg11.dtd">
<svg version="1.1" id="Layer_1" xmlns="http://www.w3.org/2000/svg" xmlns:xlink="http://www.w3.org/1999/xlink" x="0px" y="0px"
	 width="100px" height="100px" viewBox="0 0 100 100" enable-background="new 0 0 100 100" xml:space="preserve">
<g>
	<path fill="#888888" d="M50,3.667C24.452,3.667,3.667,24.452,3.667,50c0,25.547,20.785,46.333,46.333,46.333
		S96.333,75.548,96.333,50C96.333,24.452,75.548,3.667,50,3.667z M50,87.909c-20.903,0-37.909-17.006-37.909-37.909
		c0-20.903,17.005-37.909,37.909-37.909S87.909,29.097,87.909,50C87.909,70.903,70.902,87.909,50,87.909z"/>
	<path fill="#888888" d="M50,23.323c-3.096,0-5.615,2.521-5.615,5.619c0,3.096,2.519,5.614,5.615,5.614s5.615-2.518,5.615-5.614
		C55.614,25.844,53.096,23.323,50,23.323z"/>
	<path fill="#888888" d="M50,42.98c-2.326,0-4.212,1.886-4.212,4.212v25.272c0,2.327,1.886,4.213,4.212,4.213
		s4.212-1.886,4.212-4.213V47.192C54.212,44.866,52.326,42.98,50,42.98z"/>
</g>
</svg>
