<?xml version="1.0" encoding="utf-8"?>
<!-- Generator: Adobe Illustrator 16.0.0, SVG Export Plug-In . SVG Version: 6.00 Build 0)  -->
<!DOCTYPE svg PUBLIC "-//W3C//DTD SVG 1.1//EN" "http://www.w3.org/Graphics/SVG/1.1/DTD/svg11.dtd">
<svg version="1.1" id="Layer_1" xmlns="http://www.w3.org/2000/svg" xmlns:xlink="http://www.w3.org/1999/xlink" x="0px" y="0px"
	 width="100px" height="100px" viewBox="0 0 100 100" enable-background="new 0 0 100 100" xml:space="preserve">
<g id="Solid">
	<path fill="#FF6300" d="M12.84,46.423h7.065v7.065H12.84V46.423z"/>
	<path fill="#595959" d="M65.277,11.098h0.552V7.565h-5.3c-0.975,0-1.765-0.791-1.765-1.767c0-0.145,0.017-0.289,0.052-0.428
		L60.033,0.5h-9.605l1.218,4.871c0.236,0.946-0.339,1.905-1.286,2.142c-0.14,0.035-0.284,0.053-0.428,0.053h-5.299v3.533H65.277z"/>
	<path fill="#FF6300" d="M23.438,83.517c0,0.975-0.792,1.766-1.767,1.766H11.074c-0.976,0-1.766-0.791-1.766-1.766v-8.832H2.242
		v24.729h28.261V74.685h-7.065V83.517z M26.97,95.881h-3.532v-3.534h3.532V95.881z"/>
	<path fill="#FF6300" d="M44.633,74.685h7.066v7.065h-7.066V74.685z"/>
	<path fill="#595959" d="M79.96,12.864v34.065l3.532-1.057V11.098c-0.003-1.951-1.584-3.53-3.532-3.533H69.362v3.533h8.831
		C79.169,11.098,79.96,11.889,79.96,12.864z"/>
	<path fill="#595959" d="M41.101,7.565H30.503c-1.95,0.002-3.53,1.582-3.533,3.533v31.793h3.533V12.864
		c0-0.976,0.791-1.766,1.766-1.766h8.832V7.565z"/>
	<path fill="#FF6300" d="M23.438,55.255c0,0.977-0.792,1.768-1.767,1.768H11.074c-0.976,0-1.766-0.791-1.766-1.768v-8.832H2.242
		v24.729h28.261V46.423h-7.065V55.255z M26.97,67.619h-3.532v-3.532h3.532V67.619z"/>
	<path fill="#FF6300" d="M55.231,83.517c0,0.975-0.791,1.766-1.767,1.766H42.867c-0.976,0-1.766-0.791-1.766-1.766v-8.832h-7.065
		v24.729h28.26V74.685h-7.064V83.517z M58.765,95.881h-3.533v-3.534h3.533V95.881z"/>
	<path fill="#595959" d="M41.101,21.695h3.532v3.533h-3.532V21.695z"/>
	<path fill="#595959" d="M79.96,81.75c0,0.975-0.791,1.767-1.767,1.767H65.829v3.532H79.96c1.948-0.003,3.529-1.583,3.532-3.532
		V56.935l-3.532,1.057V81.75z"/>
	<path fill="#595959" d="M44.885,62.954l3.89,0.681l8.062-2.412l-1.013-3.385l-8.061,2.412L44.885,62.954z"/>
	<path fill="#595959" d="M96.943,47.379c-0.28-0.935-1.265-1.465-2.199-1.186l0,0L59.209,56.825l1.012,3.385l35.536-10.632
		C96.691,49.298,97.223,48.313,96.943,47.379L96.943,47.379z"/>
	<path fill="#595959" d="M65.829,79.982h10.598V59.048l-27.039,8.091c-0.263,0.078-0.54,0.094-0.81,0.047l-7.781-1.359
		c-0.961-0.167-1.604-1.082-1.436-2.043c0.066-0.377,0.252-0.722,0.531-0.983l5.756-5.409c0.2-0.188,0.44-0.327,0.703-0.406
		l30.076-8.998V14.63H34.036v56.522h30.027c0.976,0,1.767,0.79,1.767,1.766V79.982z M72.894,37.592H58.765V34.06h14.129V37.592z
		 M58.765,18.163h14.129v3.532H58.765V18.163z M51.699,18.163h3.532v3.532h-3.532V18.163z M51.699,25.228h21.194v3.533H51.699
		V25.228z M51.699,34.06h3.532v3.533h-3.532V34.06z M51.699,41.125h21.194v3.533H51.699V41.125z M37.568,19.929
		c0-0.976,0.791-1.766,1.767-1.766H46.4c0.975,0,1.766,0.791,1.766,1.766v7.065c0,0.976-0.792,1.767-1.766,1.767h-7.065
		c-0.976,0-1.767-0.792-1.767-1.767V19.929z M37.568,42.891v-7.065c0-0.976,0.791-1.767,1.767-1.767H46.4
		c0.975,0,1.766,0.791,1.766,1.767v7.065c0,0.976-0.792,1.767-1.766,1.767h-7.065C38.359,44.658,37.568,43.867,37.568,42.891z"/>
	<path fill="#595959" d="M41.101,37.592h3.532v3.533h-3.532V37.592z"/>
	<path fill="#FF6300" d="M12.84,74.685h7.065v7.065H12.84V74.685z"/>
</g>
</svg>
