<?xml version="1.0" encoding="utf-8"?>
<!-- Generator: Adobe Illustrator 16.0.0, SVG Export Plug-In . SVG Version: 6.00 Build 0)  -->
<!DOCTYPE svg PUBLIC "-//W3C//DTD SVG 1.1//EN" "http://www.w3.org/Graphics/SVG/1.1/DTD/svg11.dtd">
<svg version="1.1" id="Layer_1" xmlns="http://www.w3.org/2000/svg" xmlns:xlink="http://www.w3.org/1999/xlink" x="0px" y="0px"
	 width="100px" height="100px" viewBox="0 0 100 100" enable-background="new 0 0 100 100" xml:space="preserve">
<path fill="#FF6300" d="M68.2,69.5c-0.8-0.1-1.601,0.5-1.7,1.3s0.5,1.601,1.3,1.7C83.6,74.3,92,79.4,92,82.3c0,4.101-16,9.8-42,9.8
	S8,86.3,8,82.3c0-2.899,8.4-7.899,24.2-9.8c0.8-0.1,1.4-0.8,1.3-1.7c-0.1-0.8-0.8-1.399-1.7-1.3C16,71.4,5,76.6,5,82.3
	C5,88.6,20.5,95,50,95s45-6.4,45-12.8C95,76.6,84,71.4,68.2,69.5z"/>
<path d="M49.7,87.1l23-33.199C81.3,42.4,80.1,23.5,70,13.4C64.6,8,57.4,5,49.7,5s-14.9,3-20.3,8.4
	c-10.1,10.1-11.3,29-2.7,40.4L49.7,87.1z M50,23c5.8,0,10.5,4.7,10.5,10.5S55.8,44,50,44s-10.5-4.7-10.5-10.5S44.2,23,50,23z"/>
</svg>
