<?xml version="1.0" encoding="utf-8"?>
<!-- Generator: Adobe Illustrator 16.0.0, SVG Export Plug-In . SVG Version: 6.00 Build 0)  -->
<!DOCTYPE svg PUBLIC "-//W3C//DTD SVG 1.1//EN" "http://www.w3.org/Graphics/SVG/1.1/DTD/svg11.dtd">
<svg version="1.1" id="Layer_1" xmlns="http://www.w3.org/2000/svg" xmlns:xlink="http://www.w3.org/1999/xlink" x="0px" y="0px"
	 width="100px" height="100px" viewBox="0 0 100 100" enable-background="new 0 0 100 100" xml:space="preserve">
<path d="M87.607,22.844h-1.599V13.26c0-2.646-2.145-4.792-4.792-4.792H79.62V6.871c0-2.647-2.146-4.792-4.793-4.792
	H14.126c-2.646,0-4.792,2.146-4.792,4.792v79.87c0,2.646,2.146,4.792,4.792,4.792l0,0h1.598v1.598c0,2.646,2.146,4.792,4.792,4.792
	h60.701c2.647,0,4.792-2.146,4.792-4.792V64.376h1.599c2.646,0,4.792-2.146,4.792-4.791V27.636
	C92.399,24.99,90.253,22.844,87.607,22.844z M81.217,11.663c0.883,0,1.598,0.715,1.598,1.597v9.584H79.62V11.663H81.217z
	 M22.113,5.273h3.195v4.313L25.04,9.184c-0.548-0.734-1.589-0.884-2.323-0.335c-0.127,0.095-0.24,0.208-0.335,0.335l-0.269,0.402
	V5.273z M12.529,86.74V6.871c0-0.883,0.715-1.598,1.597-1.598h4.792v9.584c0,0.882,0.714,1.597,1.597,1.598
	c0.534,0,1.033-0.267,1.33-0.711l1.866-2.803l1.866,2.799c0.489,0.734,1.481,0.932,2.215,0.443c0.443-0.296,0.709-0.792,0.711-1.325
	V5.273h46.324c0.882,0,1.599,0.715,1.599,1.598v15.974h-49.52c-2.646,0-4.792,2.146-4.792,4.792v31.949
	c0,2.646,2.146,4.791,4.792,4.791h49.52V86.74c0,0.882-0.717,1.597-1.599,1.597H14.126C13.244,88.337,12.529,87.622,12.529,86.74z
	 M82.814,93.13c0,0.882-0.715,1.598-1.598,1.598H20.516c-0.882,0-1.597-0.716-1.597-1.598v-1.598h55.908
	c2.646,0,4.793-2.146,4.793-4.792l0,0V64.376h3.194V93.13z M89.204,59.585c0,0.882-0.716,1.597-1.597,1.597H26.906
	c-0.882,0-1.597-0.715-1.597-1.597V27.636c0-0.882,0.715-1.597,1.597-1.597h60.702c0.881,0,1.597,0.715,1.597,1.597V59.585z"/>
<path fill="#FF6300" d="M39.685,34.026H36.49v17.572c0,0.882,0.715,1.597,1.597,1.597h7.987V50h-6.389V34.026z"/>
<path fill="#FF6300" d="M57.256,34.026h-3.194c-2.646,0-4.792,2.146-4.792,4.792v9.584c0,2.646,2.146,4.792,4.792,4.792h3.194
	c2.647,0,4.792-2.146,4.792-4.792v-9.584C62.048,36.171,59.903,34.026,57.256,34.026z M58.854,48.403
	c0,0.882-0.715,1.597-1.598,1.597h-3.194c-0.882,0-1.597-0.715-1.597-1.597v-9.584c0-0.883,0.715-1.598,1.597-1.598h3.194
	c0.883,0,1.598,0.715,1.598,1.598V48.403z"/>
<path fill="#FF6300" d="M70.035,37.221h3.194c0.883,0,1.598,0.715,1.598,1.598h3.195c0-2.647-2.146-4.792-4.793-4.792h-3.194
	c-2.646,0-4.792,2.146-4.792,4.792v9.584c0,2.646,2.146,4.792,4.792,4.792h3.194c2.647,0,4.793-2.146,4.793-4.792V43.61
	c0-0.882-0.716-1.597-1.597-1.597h-4.793v3.194h3.194v3.195c0,0.882-0.715,1.597-1.598,1.597h-3.194
	c-0.882,0-1.597-0.715-1.597-1.597v-9.584C68.438,37.936,69.153,37.221,70.035,37.221z"/>
</svg>
