<?xml version="1.0" encoding="utf-8"?>
<!-- Generator: Adobe Illustrator 16.0.0, SVG Export Plug-In . SVG Version: 6.00 Build 0)  -->
<!DOCTYPE svg PUBLIC "-//W3C//DTD SVG 1.1//EN" "http://www.w3.org/Graphics/SVG/1.1/DTD/svg11.dtd">
<svg version="1.1" id="Layer_1" xmlns="http://www.w3.org/2000/svg" xmlns:xlink="http://www.w3.org/1999/xlink" x="0px" y="0px"
	 width="100px" height="100px" viewBox="0 0 100 100" enable-background="new 0 0 100 100" xml:space="preserve">
<path fill="#FF6300" d="M55.066,4.788H44.919v50.739h10.147V4.788z M79.571,15.798l-7.204,7.205
	c8.017,6.441,13.141,16.342,13.141,27.451c0,19.637-15.876,35.518-35.515,35.518c-19.637,0-35.517-15.881-35.517-35.518
	c0-11.109,5.123-21.009,13.091-27.5l-7.155-7.155C10.568,24.172,4.328,36.549,4.328,50.453c0,25.216,20.447,45.665,45.665,45.665
	s45.663-20.449,45.663-45.665C95.655,36.549,89.412,24.172,79.571,15.798z"/>
</svg>
