<?xml version="1.0" encoding="utf-8"?>
<!-- Generator: Adobe Illustrator 16.0.0, SVG Export Plug-In . SVG Version: 6.00 Build 0)  -->
<!DOCTYPE svg PUBLIC "-//W3C//DTD SVG 1.1//EN" "http://www.w3.org/Graphics/SVG/1.1/DTD/svg11.dtd">
<svg version="1.1" id="Layer_1" xmlns="http://www.w3.org/2000/svg" xmlns:xlink="http://www.w3.org/1999/xlink" x="0px" y="0px"
	 width="100px" height="100px" viewBox="0 0 100 100" enable-background="new 0 0 100 100" xml:space="preserve">
<g>
	<path fill="#F26422" d="M24.453,41.185h7.393c2.019,0,3.662-1.639,3.662-3.652v-7.375c0-2.013-1.643-3.652-3.662-3.652h-7.393
		c-2.016,0-3.656,1.639-3.656,3.652v7.375C20.796,39.546,22.437,41.185,24.453,41.185z M24.593,30.301h7.118v7.087h-7.118V30.301z"
		/>
	<path fill="#F26422" d="M90.374,54.456c-0.909,0-1.821,0.194-2.653,0.578c-0.641-2.028-2.164-3.333-3.907-3.877V10.365
		c0-4.938-4.025-8.956-8.973-8.956H12.47c-4.948,0-8.973,4.018-8.973,8.956v5.052c0,2.373,1.933,4.302,4.309,4.302h1.85v71.288
		c0,2.373,1.933,4.303,4.309,4.303h50.233c3.329,2.157,6.962,3.281,10.652,3.281c2.051,0,4.12-0.348,6.165-1.057
		c4.409-1.529,8.35-4.728,11.094-9.005c2.91-4.537,4.429-10.118,4.395-16.131V60.816C96.503,56.641,93.419,54.456,90.374,54.456
		L90.374,54.456z M13.452,91.007V19.719h17.391c1.048,0,1.898-0.85,1.898-1.898s-0.85-1.897-1.898-1.897H7.806
		c-0.277,0-0.512-0.232-0.512-0.507v-5.051c0-2.846,2.322-5.16,5.177-5.16h55.041c-1.035,1.459-1.644,3.24-1.644,5.16v5.052
		c0,0.275-0.234,0.507-0.512,0.507H47.926c-1.048,0-1.898,0.85-1.898,1.898s0.85,1.897,1.898,1.897h17.429
		c2.375,0,4.309-1.93,4.309-4.302v-5.052c0-2.846,2.322-5.16,5.177-5.16s5.177,2.314,5.177,5.16v40.791
		c-0.256,0.08-0.509,0.174-0.753,0.287c-0.865-2.746-3.347-4.169-5.805-4.169c-0.793,0-1.587,0.147-2.33,0.44V37.027
		c0-4.176-3.08-6.36-6.125-6.36c-3.044,0-6.126,2.185-6.126,6.36v27.425c0,0.864,0.016,1.652,0.029,2.347
		c0.001,0.075,0.003,0.151,0.004,0.228l-4.411-4.729c-2.57-2.752-6.287-3.034-9.037-0.687c-2.707,2.31-3.953,6.857-0.933,10.733
		l13.174,16.909c0.627,0.804,1.277,1.557,1.95,2.261H13.964C13.686,91.514,13.452,91.282,13.452,91.007z M92.707,72.41
		c0.06,10.337-5.019,18.792-12.937,21.539c-6.699,2.322-13.829-0.305-19.071-7.029L47.525,70.011
		c-1.571-2.017-0.965-4.346,0.403-5.513c0.319-0.273,0.93-0.686,1.703-0.686c0.617,0,1.338,0.264,2.095,1.074l4.622,4.955
		c1.304,1.396,2.926,3.136,4.726,2.407c1.433-0.581,1.566-2.201,1.61-2.733c0.06-0.732,0.042-1.641,0.02-2.793
		c-0.014-0.677-0.029-1.443-0.029-2.27V37.027c0-2.441,1.94-2.565,2.33-2.565c0.389,0,2.329,0.124,2.329,2.565V64.2
		c0,1.048,0.851,1.897,1.898,1.897c1.049,0,1.897-0.85,1.897-1.897V53.634c0-2.44,1.941-2.564,2.33-2.564
		c0.614,0,1.2,0.22,1.608,0.602c0.479,0.45,0.722,1.11,0.722,1.964V64.2c0,1.049,0.851,1.897,1.898,1.897
		c1.047,0,1.897-0.849,1.897-1.897v-6.972c0-2.443,1.939-2.566,2.328-2.566c0.614,0,1.201,0.219,1.609,0.602
		c0.479,0.449,0.723,1.111,0.723,1.965V64.2c0,1.048,0.85,1.897,1.897,1.897s1.898-0.85,1.898-1.897v-3.384
		c0-2.441,1.943-2.564,2.332-2.564c0.614,0,1.202,0.219,1.61,0.602c0.479,0.449,0.723,1.109,0.723,1.963V72.41L92.707,72.41z"/>
	<path fill="#F26422" d="M39.698,28.403c0,1.048,0.849,1.898,1.898,1.898h15.191c1.048,0,1.897-0.85,1.897-1.898
		c0-1.048-0.85-1.898-1.897-1.898H41.596C40.547,26.505,39.698,27.355,39.698,28.403z"/>
	<path fill="#F26422" d="M53.562,37.389H41.596c-1.049,0-1.898,0.85-1.898,1.897c0,1.048,0.849,1.898,1.898,1.898h11.966
		c1.049,0,1.897-0.85,1.897-1.898C55.459,38.239,54.61,37.389,53.562,37.389z"/>
	<path fill="#F26422" d="M22.695,52.073h28.991c1.047,0,1.897-0.851,1.897-1.898s-0.851-1.898-1.897-1.898H22.695
		c-1.048,0-1.898,0.85-1.898,1.898S21.646,52.073,22.695,52.073z"/>
	<path fill="#F26422" d="M22.695,62.956h15.638c1.048,0,1.898-0.851,1.898-1.898s-0.85-1.897-1.898-1.897H22.695
		c-1.048,0-1.898,0.85-1.898,1.897S21.646,62.956,22.695,62.956z"/>
	<path fill="#F26422" d="M22.695,73.845h13.772c1.048,0,1.898-0.851,1.898-1.897c0-1.049-0.85-1.898-1.898-1.898H22.695
		c-1.048,0-1.898,0.85-1.898,1.898C20.796,72.994,21.646,73.845,22.695,73.845z"/>
	<path fill="#F26422" d="M42.9,80.932H22.695c-1.048,0-1.898,0.851-1.898,1.898c0,1.049,0.85,1.897,1.898,1.897H42.9
		c1.049,0,1.898-0.849,1.898-1.897C44.798,81.782,43.949,80.932,42.9,80.932z"/>
	<path fill="#F26422" d="M39.384,19.719h0.011c1.048,0,1.893-0.85,1.893-1.898s-0.855-1.897-1.903-1.897s-1.898,0.849-1.898,1.897
		S38.336,19.719,39.384,19.719z"/>
</g>
</svg>
