<?xml version="1.0" encoding="utf-8"?>
<!-- Generator: Adobe Illustrator 16.0.0, SVG Export Plug-In . SVG Version: 6.00 Build 0)  -->
<!DOCTYPE svg PUBLIC "-//W3C//DTD SVG 1.1//EN" "http://www.w3.org/Graphics/SVG/1.1/DTD/svg11.dtd">
<svg version="1.1" id="Layer_1" xmlns="http://www.w3.org/2000/svg" xmlns:xlink="http://www.w3.org/1999/xlink" x="0px" y="0px"
	 width="100px" height="100px" viewBox="0 0 100 100" enable-background="new 0 0 100 100" xml:space="preserve">
<path fill="#FF6300" d="M37.374,13.967c-0.023-0.113-0.057-0.227-0.101-0.335c-0.044-0.108-0.1-0.213-0.164-0.31
	c-0.066-0.099-0.139-0.191-0.222-0.272c-0.082-0.083-0.173-0.159-0.271-0.225c-0.096-0.065-0.199-0.122-0.306-0.167
	c-0.107-0.045-0.219-0.079-0.333-0.102c-0.229-0.047-0.467-0.047-0.696,0c-0.114,0.023-0.226,0.057-0.332,0.102
	c-0.108,0.045-0.212,0.101-0.308,0.167c-0.096,0.065-0.188,0.141-0.27,0.225c-0.082,0.082-0.157,0.174-0.221,0.272
	c-0.063,0.097-0.12,0.202-0.164,0.31c-0.044,0.109-0.078,0.222-0.102,0.335c-0.023,0.117-0.036,0.236-0.036,0.352
	c0,0.117,0.013,0.236,0.036,0.351c0.023,0.116,0.057,0.228,0.102,0.336c0.044,0.109,0.099,0.214,0.164,0.311
	c0.064,0.099,0.139,0.191,0.221,0.273c0.082,0.083,0.172,0.158,0.27,0.222c0.096,0.065,0.199,0.121,0.308,0.166
	c0.106,0.045,0.218,0.079,0.332,0.103c0.114,0.024,0.232,0.036,0.348,0.036c0.117,0,0.232-0.012,0.349-0.036
	c0.113-0.023,0.226-0.058,0.333-0.103c0.106-0.044,0.21-0.101,0.306-0.166c0.098-0.064,0.188-0.14,0.271-0.222
	c0.083-0.083,0.156-0.174,0.222-0.273c0.064-0.097,0.12-0.201,0.164-0.311c0.044-0.108,0.078-0.221,0.101-0.336
	s0.036-0.233,0.036-0.351C37.41,14.203,37.397,14.084,37.374,13.967z"/>
<path fill="none" d="M18.763,2.74c-0.014-0.07-0.034-0.139-0.062-0.205c-0.027-0.066-0.061-0.13-0.1-0.189
	c-0.04-0.06-0.084-0.116-0.135-0.167c-0.05-0.05-0.105-0.096-0.165-0.136c-0.059-0.04-0.121-0.073-0.186-0.101
	c-0.066-0.027-0.133-0.049-0.203-0.063c-0.14-0.029-0.283-0.028-0.423,0c-0.069,0.014-0.138,0.036-0.203,0.063
	c-0.066,0.027-0.128,0.061-0.187,0.101c-0.06,0.04-0.115,0.085-0.165,0.136c-0.05,0.051-0.095,0.106-0.134,0.167
	c-0.039,0.059-0.072,0.123-0.1,0.189c-0.027,0.066-0.048,0.135-0.062,0.205c-0.015,0.07-0.021,0.142-0.021,0.213
	s0.007,0.144,0.021,0.213c0.014,0.07,0.034,0.139,0.062,0.205c0.027,0.066,0.061,0.13,0.1,0.189c0.039,0.06,0.084,0.116,0.134,0.167
	c0.05,0.05,0.105,0.096,0.165,0.135c0.059,0.04,0.122,0.073,0.187,0.101c0.065,0.028,0.133,0.048,0.203,0.063
	c0.07,0.014,0.141,0.022,0.211,0.022c0.071,0,0.142-0.008,0.212-0.022c0.068-0.014,0.137-0.035,0.203-0.063
	c0.065-0.027,0.127-0.061,0.186-0.101c0.06-0.039,0.115-0.085,0.165-0.135c0.051-0.051,0.095-0.106,0.135-0.167
	c0.039-0.059,0.072-0.123,0.1-0.189c0.027-0.066,0.048-0.135,0.062-0.205c0.014-0.07,0.021-0.142,0.021-0.213
	S18.777,2.81,18.763,2.74z"/>
<path fill="#FF6300" d="M56.49,7.95H41.51c-0.828,0-1.499,0.699-1.499,1.561s0.671,1.562,1.499,1.562h14.98
	c0.828,0,1.499-0.7,1.499-1.562S57.318,7.95,56.49,7.95z"/>
<path fill="#FF6300" d="M66.979,7.95H65.48c-0.825,0-1.497,0.699-1.497,1.561s0.672,1.562,1.497,1.562h1.499
	c0.828,0,1.499-0.7,1.499-1.562S67.808,7.95,66.979,7.95z"/>
<path fill="#FF6300" d="M50.861,82.883h-3.721c-2.279,0-4.133,1.933-4.133,4.308v0.752c0,2.375,1.854,4.308,4.132,4.308h3.721
	c2.278,0,4.133-1.933,4.133-4.308V87.19C54.993,84.815,53.139,82.883,50.861,82.883z M51.996,87.942
	c0,0.653-0.508,1.185-1.134,1.185h-3.721c-0.627,0-1.136-0.531-1.136-1.185V87.19c0-0.655,0.509-1.187,1.136-1.187h3.72
	c0.628,0,1.136,0.531,1.136,1.187V87.942z"/>
<path fill="#FF6300" d="M69.056,3.267h-40.11c-2.986,0-5.416,2.532-5.416,5.643v82.38c0,3.11,2.43,5.643,5.416,5.643h40.11
	c2.985,0,5.415-2.532,5.415-5.643V8.91C74.471,5.799,72.041,3.267,69.056,3.267z M71.476,91.29c0,1.389-1.085,2.52-2.42,2.52h-40.11
	c-1.335,0-2.42-1.131-2.42-2.52V8.91c0-1.389,1.085-2.521,2.42-2.521h40.11c1.335,0,2.419,1.132,2.419,2.521L71.476,91.29
	L71.476,91.29z"/>
<path fill="#FF6300" d="M72.972,12.633H25.029c-0.828,0-1.499,0.699-1.499,1.561V79.76c0,0.862,0.671,1.562,1.499,1.562h47.944
	c0.827,0,1.498-0.699,1.498-1.562V14.194C74.471,13.333,73.8,12.633,72.972,12.633z M71.476,78.199h-44.95V15.755h44.95V78.199z"/>
</svg>
