<?xml version="1.0" encoding="utf-8"?>
<!-- Generator: Adobe Illustrator 16.0.0, SVG Export Plug-In . SVG Version: 6.00 Build 0)  -->
<!DOCTYPE svg PUBLIC "-//W3C//DTD SVG 1.1//EN" "http://www.w3.org/Graphics/SVG/1.1/DTD/svg11.dtd">
<svg version="1.1" id="Capa_1" xmlns="http://www.w3.org/2000/svg" xmlns:xlink="http://www.w3.org/1999/xlink" x="0px" y="0px"
	 width="100px" height="100px" viewBox="0 0 100 100" enable-background="new 0 0 100 100" xml:space="preserve">
<path fill="#CF2222" d="M89.035,90.631c-15.302,12.492-63.081,12.492-78.07,0c-15.302-12.49-13.74-65.891,0-79.943
	c13.74-14.052,64.33-14.052,78.07,0C102.775,24.74,104.337,78.141,89.035,90.631z"/>
<g opacity="0.2">
	<path fill="#FFFFFF" d="M50.313,68.771C36.572,79.701,21.27,85.322,6.905,85.635c-10.618-18.111-8.432-62.144,4.06-74.947
		C22.207-0.866,57.494-3.053,77.793,4.13C82.789,24.741,72.484,50.972,50.313,68.771z"/>
</g>
<path fill="#FFFFFF" d="M60.184,49.934l17.344-17.346c1.916-1.917,1.916-5.023,0-6.937l-2.312-2.312
	c-1.916-1.918-5.024-1.918-6.937,0L50.934,40.684L33.588,23.335c-1.917-1.917-5.023-1.917-6.937,0l-2.316,2.313
	c-1.917,1.917-1.917,5.023,0,6.937l17.349,17.349L24.339,67.279c-1.918,1.915-1.918,5.023,0,6.937l2.312,2.312
	c1.917,1.916,5.023,1.916,6.937,0l17.345-17.344l17.346,17.344c1.915,1.916,5.023,1.916,6.937,0l2.312-2.312
	c1.916-1.916,1.916-5.024,0-6.937L60.184,49.934z"/>
</svg>
