<?xml version="1.0" encoding="utf-8"?>
<!-- Generator: Adobe Illustrator 16.0.0, SVG Export Plug-In . SVG Version: 6.00 Build 0)  -->
<!DOCTYPE svg PUBLIC "-//W3C//DTD SVG 1.1//EN" "http://www.w3.org/Graphics/SVG/1.1/DTD/svg11.dtd">
<svg version="1.1" id="Layer_1" xmlns="http://www.w3.org/2000/svg" xmlns:xlink="http://www.w3.org/1999/xlink" x="0px" y="0px"
	 width="100px" height="100px" viewBox="0 0 100 100" enable-background="new 0 0 100 100" xml:space="preserve">
<g>
	<g>
		<path fill="#888888" d="M90.21,83.384l-6.953-11.591c-3.212-5.35-4.908-11.478-4.908-17.715V43.925
			c0-12.818-8.554-23.66-20.25-27.155V9.5c0-4.467-3.633-8.1-8.1-8.1c-4.467,0-8.1,3.633-8.1,8.1v7.27
			c-11.696,3.495-20.25,14.337-20.25,27.155v10.153c0,6.237-1.697,12.36-4.904,17.711L9.791,83.38
			c-0.376,0.628-0.384,1.405-0.024,2.041c0.361,0.636,1.029,1.028,1.758,1.028h76.949c0.729,0,1.4-0.393,1.762-1.023
			C90.596,84.793,90.583,84.008,90.21,83.384z"/>
	</g>
</g>
<g>
	<g>
		<path fill="#FF6300" d="M37.246,90.499c2.284,4.771,7.12,8.101,12.753,8.101c5.634,0,10.469-3.329,12.753-8.101H37.246z"/>
	</g>
</g>
</svg>
