<?xml version="1.0" encoding="utf-8"?>
<!-- Generator: Adobe Illustrator 16.0.0, SVG Export Plug-In . SVG Version: 6.00 Build 0)  -->
<!DOCTYPE svg PUBLIC "-//W3C//DTD SVG 1.1//EN" "http://www.w3.org/Graphics/SVG/1.1/DTD/svg11.dtd">
<svg version="1.1" id="Layer_1" xmlns="http://www.w3.org/2000/svg" xmlns:xlink="http://www.w3.org/1999/xlink" x="0px" y="0px"
	 width="100px" height="100px" viewBox="0 0 100 100" enable-background="new 0 0 100 100" xml:space="preserve">
<g id="Page-1">
	<g id="_x30_32---alarm-settings">
		<path id="Shape_6_" fill="#888888" d="M46.194,9.922c0.418,0,0.829,0.03,1.245,0.047l0.906-1.562
			c0.854-1.486,2.66-2.135,4.266-1.532l3.456,1.29c-1.449-4.213-5.418-7.037-9.873-7.023c-5.816,0.005-10.529,4.719-10.535,10.535
			v0.086C39.039,10.552,42.603,9.929,46.194,9.922z"/>
		<path id="Shape_8_" fill="#888888" d="M34.027,88.937c0.869,6.052,6.053,10.546,12.167,10.546s11.298-4.494,12.167-10.546H34.027z
			"/>
		<path id="Shape_9_" fill="#888888" d="M74.288,60.844v-7.024h-7.287c-1.724,0.003-3.194-1.247-3.471-2.948l-1.307-7.854
			c-0.749-0.363-1.474-0.774-2.169-1.229l-7.449,2.796c-0.389,0.148-0.801,0.224-1.218,0.224c-1.266,0-2.433-0.681-3.057-1.782
			l-3.779-6.507c-0.847-1.489-0.512-3.37,0.796-4.476l6.177-5.056c-0.027-0.425-0.063-0.839-0.063-1.262s0.036-0.837,0.063-1.254
			l-6.162-5.042c-1.313-1.096-1.66-2.971-0.825-4.464l0.866-1.491C30.216,13.909,18.123,26.334,18.1,41.528v19.315
			c-0.48,8.065-3.773,15.709-9.306,21.598c-0.5,0.53-0.631,1.311-0.332,1.977c0.268,0.632,0.894,1.035,1.58,1.018h72.307
			c0.686,0.018,1.312-0.386,1.579-1.018c0.299-0.668,0.167-1.449-0.336-1.982C78.061,76.548,74.77,68.907,74.288,60.844
			L74.288,60.844z M23.367,81.913h-7.023c-0.97,0-1.756-0.785-1.756-1.755s0.786-1.756,1.756-1.756h7.023
			c0.97,0,1.755,0.786,1.755,1.756S24.337,81.913,23.367,81.913z M23.367,43.285c-0.97,0-1.755-0.787-1.755-1.756
			c-0.012-7.469,3.387-14.535,9.23-19.187c0.489-0.406,1.158-0.518,1.751-0.292c0.593,0.227,1.017,0.756,1.11,1.385
			c0.092,0.628-0.162,1.257-0.665,1.645c-5.009,3.989-7.924,10.046-7.916,16.448c0,0.465-0.184,0.913-0.514,1.241
			C24.28,43.099,23.833,43.285,23.367,43.285z M76.044,81.913H30.391c-0.97,0-1.755-0.785-1.755-1.755s0.786-1.756,1.755-1.756
			h45.653c0.97,0,1.755,0.786,1.755,1.756S77.014,81.913,76.044,81.913z"/>
	</g>
</g>
<g>
	<path id="Shape" fill="#FF6300" d="M66.592,44.422l0.979,5.886h7.55l0.983-5.886c-3.119,0.824-6.4,0.824-9.52,0H66.592z"/>
	<path id="Shape_1_" fill="#FF6300" d="M48.163,34.74l3.796,6.539l5.573-2.089c-2.245-2.303-3.88-5.131-4.753-8.227L48.163,34.74z"
		/>
	<path id="Shape_2_" fill="#FF6300" d="M71.353,41.528c8.728,0,15.803-7.075,15.803-15.803S80.08,9.922,71.353,9.922
		c-8.729,0-15.803,7.075-15.803,15.803C55.561,34.448,62.629,41.518,71.353,41.528z M71.353,16.945c4.85,0,8.779,3.931,8.779,8.78
		s-3.93,8.78-8.779,8.78c-4.849,0-8.78-3.931-8.78-8.78C62.579,20.878,66.507,16.951,71.353,16.945z"/>
	<circle id="Oval" fill="#FF6300" cx="71.353" cy="25.725" r="5.268"/>
	<path id="Shape_3_" fill="#FF6300" d="M94.543,16.71l-3.796-6.539l-5.573,2.089c2.244,2.303,3.88,5.131,4.752,8.227L94.543,16.71z"
		/>
	<path id="Shape_4_" fill="#FF6300" d="M50.614,12.466c-0.033,0.068-0.07,0.134-0.112,0.196l-2.336,4.039l4.614,3.782
		c0.875-3.095,2.509-5.922,4.755-8.225l-5.588-2.098L50.614,12.466z"/>
	<path id="Shape_5_" fill="#FF6300" d="M76.113,7.028l-0.978-5.886h-7.552l-0.983,5.886c3.12-0.824,6.4-0.824,9.52,0H76.113z"/>
	<path id="Shape_7_" fill="#FF6300" d="M85.173,39.191l5.587,2.107l3.78-6.543l-4.614-3.782
		C89.051,34.066,87.417,36.891,85.173,39.191L85.173,39.191z"/>
</g>
</svg>
