<?xml version="1.0" encoding="utf-8"?>
<!-- Generator: Adobe Illustrator 16.0.0, SVG Export Plug-In . SVG Version: 6.00 Build 0)  -->
<!DOCTYPE svg PUBLIC "-//W3C//DTD SVG 1.1//EN" "http://www.w3.org/Graphics/SVG/1.1/DTD/svg11.dtd">
<svg version="1.1" id="Layer_1" xmlns="http://www.w3.org/2000/svg" xmlns:xlink="http://www.w3.org/1999/xlink" x="0px" y="0px"
	 width="100px" height="100px" viewBox="0 0 100 100" enable-background="new 0 0 100 100" xml:space="preserve">
<g>
	<g>
		<path fill="#FF6300" d="M61.35,51c0-6.257-5.094-11.35-11.35-11.35c-6.257,0-11.35,5.093-11.35,11.35
			c0,6.256,5.093,11.35,11.35,11.35C56.256,62.35,61.35,57.256,61.35,51z M50,57.676c-3.682,0-6.677-2.993-6.677-6.676
			c0-3.682,2.995-6.677,6.677-6.677c3.683,0,6.676,2.995,6.676,6.677C56.676,54.683,53.683,57.676,50,57.676z"/>
		<path fill="#FF6300" d="M14.615,39.65c-6.257,0-11.35,5.093-11.35,11.35c0,6.256,5.093,11.35,11.35,11.35
			c6.257,0,11.35-5.094,11.35-11.35C25.965,44.743,20.872,39.65,14.615,39.65z M14.615,57.676c-3.682,0-6.677-2.993-6.677-6.676
			c0-3.682,2.995-6.677,6.677-6.677c3.681,0,6.676,2.995,6.676,6.677C21.292,54.683,18.296,57.676,14.615,57.676z"/>
		<path fill="#FF6300" d="M85.385,39.65c-6.257,0-11.35,5.093-11.35,11.35c0,6.256,5.093,11.35,11.35,11.35s11.35-5.094,11.35-11.35
			C96.734,44.743,91.642,39.65,85.385,39.65z M85.385,57.676c-3.682,0-6.676-2.993-6.676-6.676c0-3.682,2.994-6.677,6.676-6.677
			s6.677,2.995,6.677,6.677C92.062,54.683,89.066,57.676,85.385,57.676z"/>
	</g>
</g>
</svg>
