<?xml version="1.0" encoding="utf-8"?>
<!-- Generator: Adobe Illustrator 16.0.0, SVG Export Plug-In . SVG Version: 6.00 Build 0)  -->
<!DOCTYPE svg PUBLIC "-//W3C//DTD SVG 1.1//EN" "http://www.w3.org/Graphics/SVG/1.1/DTD/svg11.dtd">
<svg version="1.1" id="Layer_1" xmlns="http://www.w3.org/2000/svg" xmlns:xlink="http://www.w3.org/1999/xlink" x="0px" y="0px"
	 width="100px" height="100px" viewBox="0 0 100 100" enable-background="new 0 0 100 100" xml:space="preserve">
<g>
	<g>
		<path fill="#8C8C8C" d="M86.11,15.186H13.89c-0.865,0-1.566,0.701-1.566,1.566v9.958c0,0.865,0.701,1.566,1.566,1.566H86.11
			c0.865,0,1.566-0.701,1.566-1.566v-9.958C87.677,15.887,86.976,15.186,86.11,15.186z M84.545,25.144H15.456v-6.826h69.089V25.144
			L84.545,25.144z"/>
		<path fill="#8C8C8C" d="M98.979,46.222l-5.539-14.77V11.727c0-0.865-0.699-1.566-1.565-1.566H8.126
			c-0.865,0-1.566,0.701-1.566,1.566v19.726l-5.538,14.77c-0.18,0.48-0.113,1.02,0.179,1.441c0.293,0.422,0.774,0.674,1.288,0.674
			H6.56v40.371H4.267c-0.865,0-1.566,0.7-1.566,1.566c0,0.864,0.701,1.565,1.566,1.565h91.465c0.866,0,1.566-0.701,1.566-1.565
			c0-0.866-0.7-1.566-1.566-1.566h-2.293V48.337h4.072c0.514,0,0.995-0.252,1.287-0.674C99.092,47.241,99.158,46.702,98.979,46.222z
			 M9.692,13.293h80.617v16.876H9.692V13.293z M20.078,33.302l-2.975,11.903h-4.565l3.719-11.903H20.078L20.078,33.302z
			 M23.307,33.302h3.869l-2.231,11.902h-4.613L23.307,33.302z M30.362,33.302h3.905L32.78,45.205h-4.649L30.362,33.302z
			 M37.425,33.302h3.929L40.61,45.205h-4.673L37.425,33.302z M44.493,33.302h3.941v11.902h-4.686L44.493,33.302z M51.566,33.302
			h3.941l0.744,11.902h-4.686V33.302L51.566,33.302z M59.39,45.205l-0.743-11.903h3.929l1.487,11.903H59.39z M67.22,45.205
			l-1.488-11.903h3.905l2.231,11.903H67.22z M75.056,45.205l-2.231-11.903h3.87l2.974,11.903H75.056z M82.897,45.205l-2.976-11.903
			h3.821l3.719,11.903H82.897z M9.211,33.302h3.763L9.255,45.205H4.748L9.211,33.302z M68.333,69.908h11.073v10.968H68.333V69.908z
			 M68.333,84.009h11.073v4.698H68.333V84.009z M65.064,62.368l1.737-5.448h14.136l1.738,5.448H65.064z M79.406,65.501v1.275H68.333
			v-1.275H79.406z M90.309,88.707h-7.77V65.501h2.28c0.5,0,0.97-0.237,1.265-0.643c0.295-0.402,0.38-0.923,0.229-1.399l-2.738-8.582
			c-0.207-0.648-0.811-1.09-1.492-1.09H65.658c-0.682,0-1.285,0.441-1.492,1.09l-2.738,8.582c-0.151,0.477-0.067,0.997,0.229,1.399
			c0.295,0.405,0.765,0.643,1.265,0.643h2.281v23.206H9.692v-40.37h80.617V88.707z M90.744,45.205l-3.718-11.903h3.762l4.464,11.903
			H90.744z"/>
		<path fill="#8C8C8C" d="M14.84,65.501h1.883v16.486c0,0.865,0.701,1.566,1.566,1.566h34.032c0.865,0,1.566-0.701,1.566-1.566
			V65.501h1.883c0.5,0,0.97-0.237,1.266-0.643c0.295-0.402,0.379-0.923,0.227-1.399l-2.736-8.582
			c-0.207-0.648-0.811-1.09-1.493-1.09H17.577c-0.681,0-1.285,0.441-1.492,1.09l-2.738,8.582c-0.151,0.477-0.067,0.997,0.228,1.399
			C13.87,65.264,14.34,65.501,14.84,65.501z M50.755,80.421h-30.9v-14.92h30.9V80.421L50.755,80.421z M18.721,56.92h33.167
			l1.738,5.448H16.983L18.721,56.92z"/>
	</g>
</g>
</svg>
