<?xml version="1.0" encoding="utf-8"?>
<!-- Generator: Adobe Illustrator 16.0.0, SVG Export Plug-In . SVG Version: 6.00 Build 0)  -->
<!DOCTYPE svg PUBLIC "-//W3C//DTD SVG 1.1//EN" "http://www.w3.org/Graphics/SVG/1.1/DTD/svg11.dtd">
<svg version="1.1" id="Layer_1" xmlns="http://www.w3.org/2000/svg" xmlns:xlink="http://www.w3.org/1999/xlink" x="0px" y="0px"
	 width="100px" height="100px" viewBox="0 0 100 100" enable-background="new 0 0 100 100" xml:space="preserve">
<g>
	<path fill="#FF6300" d="M28.143,46.597c5.613,0,10.18-4.566,10.18-10.178c0-5.616-4.566-10.182-10.18-10.182
		c-5.614,0-10.18,4.566-10.18,10.18C17.963,42.03,22.529,46.597,28.143,46.597z M28.143,29.894c3.597,0,6.524,2.928,6.524,6.523
		c0,3.595-2.927,6.524-6.524,6.524s-6.524-2.927-6.524-6.522C21.619,32.823,24.545,29.894,28.143,29.894z"/>
	<path fill="#FF6300" d="M4.38,2.475V75.59v21.936h91.395V75.59V2.475H4.38z M8.036,6.131h84.083v48.854L73.247,37.686
		c-0.358-0.327-0.829-0.49-1.315-0.479c-0.485,0.021-0.941,0.235-1.269,0.594L52.761,57.409l-8.67-8.67
		c-0.684-0.682-1.777-0.716-2.5-0.081L11.001,75.59H8.036V6.131z M92.118,93.869H8.036V79.246h84.083V93.869z M16.534,75.59
		l26.183-23.051l18.831,18.828c0.715,0.715,1.871,0.715,2.585,0c0.715-0.714,0.715-1.869,0-2.584l-8.786-8.786l16.781-18.378
		l19.991,18.324V75.59H16.534z"/>
</g>
</svg>
