<?xml version="1.0" encoding="utf-8"?>
<!-- Generator: Adobe Illustrator 16.0.0, SVG Export Plug-In . SVG Version: 6.00 Build 0)  -->
<!DOCTYPE svg PUBLIC "-//W3C//DTD SVG 1.1//EN" "http://www.w3.org/Graphics/SVG/1.1/DTD/svg11.dtd">
<svg version="1.1" id="Layer_1" xmlns="http://www.w3.org/2000/svg" xmlns:xlink="http://www.w3.org/1999/xlink" x="0px" y="0px"
	 width="100px" height="100px" viewBox="0 0 100 100" enable-background="new 0 0 100 100" xml:space="preserve">
<path fill="#FF6300" d="M57.929,36.088l-0.002,7.333h18.298v-7.419c5.644-3.269,9.198-9.338,9.198-15.944
	c0-3.812-1.155-7.47-3.34-10.58c-2.135-3.035-5.092-5.333-8.55-6.645l-3.865-1.466v12.375l-2.665,1.645l-2.665-1.645V1.367
	l-3.864,1.466c-3.459,1.312-6.415,3.61-8.549,6.645c-2.186,3.11-3.341,6.768-3.341,10.58C48.583,26.74,52.194,32.842,57.929,36.088z
	"/>
<path d="M93.685,57.381c0-4.197-3.119-7.68-7.161-8.254H52.221v-9.2H45.25L29.934,52.242v42.032l8.378,4.362h41.21
	V98.48c3.833-0.75,6.735-4.134,6.735-8.183c0-1.475-0.387-2.859-1.06-4.063c2.216-1.5,3.675-4.037,3.675-6.91
	c0-1.509-0.404-2.924-1.108-4.146c2.148-1.51,3.557-4.006,3.557-6.825c0-1.526-0.415-2.957-1.135-4.188
	C92.302,62.651,93.685,60.176,93.685,57.381z"/>
<path d="M6.617,47.692h17.61v50.943H6.617V47.692z"/>
</svg>
