<?xml version="1.0" encoding="utf-8"?>
<!-- Generator: Adobe Illustrator 16.0.0, SVG Export Plug-In . SVG Version: 6.00 Build 0)  -->
<!DOCTYPE svg PUBLIC "-//W3C//DTD SVG 1.1//EN" "http://www.w3.org/Graphics/SVG/1.1/DTD/svg11.dtd">
<svg version="1.1" id="Layer_1" xmlns="http://www.w3.org/2000/svg" xmlns:xlink="http://www.w3.org/1999/xlink" x="0px" y="0px"
	 width="100px" height="100px" viewBox="0 0 100 100" enable-background="new 0 0 100 100" xml:space="preserve">
<g>
	<g>
		<path fill="#FF6500" d="M48.746,53.188c0.096,0,0.193,0,0.308,0c0.039,0,0.078,0,0.117,0c0.057,0,0.135,0,0.193,0
			c5.65-0.096,10.222-2.082,13.597-5.882c7.426-8.371,6.191-22.722,6.058-24.091C68.536,12.933,63.675,8.015,59.663,5.72
			c-2.99-1.717-6.48-2.643-10.377-2.72h-0.135c-0.019,0-0.058,0-0.077,0h-0.116c-2.141,0-6.346,0.347-10.377,2.643
			c-4.051,2.295-8.988,7.214-9.47,17.571c-0.135,1.37-1.37,15.72,6.056,24.091C38.523,51.105,43.095,53.092,48.746,53.188z
			 M34.261,23.696c0-0.058,0.019-0.115,0.019-0.154C34.917,9.712,44.734,8.227,48.939,8.227h0.077c0.038,0,0.097,0,0.155,0
			c5.207,0.116,14.061,2.237,14.659,15.315c0,0.058,0,0.116,0.018,0.154c0.021,0.135,1.37,13.251-4.763,20.156
			c-2.431,2.739-5.672,4.089-9.934,4.128c-0.038,0-0.058,0-0.097,0l0,0c-0.038,0-0.058,0-0.096,0
			c-4.243-0.039-7.503-1.389-9.914-4.128C32.93,36.986,34.241,23.812,34.261,23.696z"/>
		<path d="M88.691,76.989c0-0.02,0-0.038,0-0.058c0-0.154-0.019-0.309-0.019-0.481
			c-0.116-3.819-0.367-12.75-8.737-15.605c-0.059-0.02-0.135-0.038-0.193-0.058c-8.699-2.218-15.933-7.232-16.009-7.29
			c-1.177-0.829-2.798-0.54-3.627,0.636s-0.54,2.797,0.637,3.627c0.328,0.23,8.004,5.573,17.61,8.042
			c4.494,1.602,4.995,6.404,5.131,10.802c0,0.174,0,0.328,0.019,0.482c0.02,1.736-0.097,4.417-0.404,5.96
			c-3.125,1.774-15.373,7.908-34.006,7.908c-18.555,0-30.88-6.152-34.024-7.928c-0.309-1.543-0.443-4.225-0.405-5.96
			c0-0.154,0.019-0.309,0.019-0.482c0.135-4.397,0.637-9.2,5.13-10.801c9.606-2.47,17.283-7.831,17.61-8.044
			c1.177-0.829,1.466-2.448,0.636-3.626c-0.829-1.177-2.45-1.466-3.626-0.637c-0.077,0.059-7.271,5.073-16.009,7.292
			c-0.078,0.019-0.135,0.038-0.193,0.057C9.861,63.7,9.61,72.631,9.495,76.43c0,0.174,0,0.328-0.02,0.482c0,0.02,0,0.039,0,0.058
			c-0.019,1.003-0.039,6.152,0.984,8.738c0.193,0.502,0.54,0.926,1.003,1.215c0.579,0.386,14.447,9.22,37.651,9.22
			c23.204,0,37.071-8.854,37.65-9.22c0.443-0.289,0.811-0.713,1.003-1.215C88.73,83.143,88.711,77.992,88.691,76.989z"/>
	</g>
</g>
</svg>
