<?xml version="1.0" encoding="utf-8"?>
<!-- Generator: Adobe Illustrator 16.0.0, SVG Export Plug-In . SVG Version: 6.00 Build 0)  -->
<!DOCTYPE svg PUBLIC "-//W3C//DTD SVG 1.1//EN" "http://www.w3.org/Graphics/SVG/1.1/DTD/svg11.dtd">
<svg version="1.1" id="Layer_1" xmlns="http://www.w3.org/2000/svg" xmlns:xlink="http://www.w3.org/1999/xlink" x="0px" y="0px"
	 width="100px" height="100px" viewBox="0 0 100 100" enable-background="new 0 0 100 100" xml:space="preserve">
<g>
	<path fill="#35454D" d="M98.488,41.098V84.85c0,7.521-6.117,13.639-13.639,13.639c-3.469,0-6.774-1.303-9.309-3.672
		c-1.529-1.43-1.609-3.825-0.182-5.354c1.428-1.528,3.824-1.61,5.354-0.183c1.126,1.053,2.596,1.632,4.137,1.632
		c3.342,0,6.062-2.72,6.062-6.062c0-3.343-2.72-6.062-6.062-6.062H15.148c-7.52,0-13.637-6.118-13.637-13.638V5.299
		c0-2.092,1.696-3.788,3.788-3.788c2.093,0,3.789,1.696,3.789,3.788c0,3.342,2.719,6.062,6.061,6.062H50
		c2.093,0,3.789,1.696,3.789,3.788c0,2.092-8.123,26.685-3.195,32.57C55.833,54,79,48,94.701,37.309
		C96.793,37.31,98.488,39.005,98.488,41.098L98.488,41.098z M67.426,59.279c0-2.09-1.695-3.786-3.787-3.786h-35.61
		c-2.093,0-3.789,1.696-3.789,3.786c0,2.094,1.696,3.789,3.789,3.789h35.61C65.729,63.068,67.426,61.373,67.426,59.279z"/>
</g>
<path fill="#F26422" d="M53.186,42.359l2.145-10.733c1.064-5.322,3.654-10.164,7.492-14.002L74.396,6.05
	C77.008,3.438,80.48,2,84.174,2c3.692,0,7.165,1.438,9.776,4.05C96.563,8.662,98,12.134,98,15.827c0,3.693-1.438,7.165-4.05,9.777
	L82.376,37.179c-3.838,3.837-8.681,6.429-14.002,7.492l-10.733,2.146c-0.246,0.049-0.494,0.073-0.742,0.073
	c-0.994,0-1.961-0.392-2.678-1.109C53.325,44.885,52.936,43.601,53.186,42.359L53.186,42.359z"/>
<path fill="#FFFFFF" d="M61.727,38.273l5.162-1.032c3.852-0.77,7.354-2.644,10.129-5.42l11.575-11.575
	c1.181-1.181,1.831-2.75,1.831-4.42s-0.65-3.239-1.831-4.419c-1.18-1.181-2.75-1.831-4.42-1.831c-1.669,0-3.237,0.65-4.419,1.831
	L68.18,22.981c-2.777,2.777-4.65,6.28-5.421,10.13L61.727,38.273z"/>
<path fill="#35454D" d="M31.75,45.25"/>
<path fill="#FFFFFF" d="M40.211,47.489h-12.69c-2.093,0-3.789-1.696-3.789-3.788c0-2.094,1.696-3.789,3.789-3.789h12.69
	c2.094,0,3.789,1.695,3.789,3.789C43.999,45.792,42.305,47.489,40.211,47.489z"/>
</svg>
