<?xml version="1.0" encoding="utf-8"?>
<!-- Generator: Adobe Illustrator 16.0.0, SVG Export Plug-In . SVG Version: 6.00 Build 0)  -->
<!DOCTYPE svg PUBLIC "-//W3C//DTD SVG 1.1//EN" "http://www.w3.org/Graphics/SVG/1.1/DTD/svg11.dtd">
<svg version="1.1" id="Layer_1" xmlns="http://www.w3.org/2000/svg" xmlns:xlink="http://www.w3.org/1999/xlink" x="0px" y="0px"
	 width="100px" height="100px" viewBox="0 0 100 100" enable-background="new 0 0 100 100" xml:space="preserve">
<path fill="#888888" d="M39.308,69.819h12.968v7.628H39.308V69.819z M25.004,68.866c-2.633,0-4.768,2.134-4.768,4.768
	c0,2.633,2.134,4.768,4.768,4.768s4.768-2.135,4.768-4.768C29.772,71,27.638,68.866,25.004,68.866z M77.829,45.6H39.308v7.627
	h38.521V45.6z M25.004,44.647c-2.633,0-4.768,2.134-4.768,4.767c0,2.634,2.134,4.768,4.768,4.768s4.768-2.134,4.768-4.768
	C29.772,46.781,27.638,44.647,25.004,44.647z M77.829,22.716H39.308v7.628h38.521V22.716z M25.004,21.762
	c-2.633,0-4.768,2.135-4.768,4.767c0,2.634,2.134,4.769,4.768,4.769s4.768-2.135,4.768-4.769
	C29.772,23.897,27.638,21.762,25.004,21.762z M8.794,87.364V12.609c0-2.104,1.711-3.814,3.814-3.814h74.755
	c2.103,0,3.813,1.711,3.813,3.814v43.098h7.628V12.609c0-6.309-5.133-11.442-11.441-11.442H12.609C6.3,1.167,1.167,6.3,1.167,12.609
	v74.755c0,6.309,5.133,11.441,11.442,11.441h44.052v-7.628H12.609C10.505,91.178,8.794,89.467,8.794,87.364z"/>
<g>
	<g>
		<path fill="#FF6300" d="M79.674,77.169c-2.27-0.91-2.925-1.46-2.925-2.454c0-0.795,0.602-1.725,2.3-1.725
			c1.502,0,2.654,0.594,2.664,0.599c0.121,0.064,0.257,0.1,0.394,0.1c0.327,0,0.618-0.199,0.739-0.508l0.412-1.055
			c0.143-0.385-0.074-0.719-0.353-0.838c-0.925-0.404-2.731-0.716-2.75-0.719c-0.028-0.005-0.13-0.027-0.13-0.145l-0.006-1.53
			c0-0.461-0.386-0.836-0.857-0.836h-0.74c-0.472,0-0.856,0.375-0.856,0.836l0.001,1.608c0,0.123-0.134,0.178-0.183,0.188
			c-2.281,0.545-3.706,2.215-3.706,4.323c0,2.629,2.172,3.815,4.517,4.706c1.876,0.737,2.641,1.482,2.641,2.577
			c0,1.191-1.084,2.024-2.635,2.024c-1.326,0-3.119-0.841-3.137-0.85c-0.115-0.054-0.237-0.081-0.361-0.081
			c-0.342,0-0.638,0.206-0.757,0.525l-0.395,1.067c-0.14,0.398,0.076,0.722,0.352,0.865c1.102,0.573,3.232,0.91,3.327,0.925
			c0.025,0.004,0.155,0.049,0.155,0.168v1.601c0,0.462,0.386,0.837,0.857,0.837h0.766c0.472,0,0.857-0.375,0.857-0.837v-1.685
			c0-0.158,0.116-0.172,0.14-0.178c2.431-0.546,3.927-2.323,3.927-4.556C83.932,79.83,82.658,78.349,79.674,77.169z"/>
		<path fill="#FF6300" d="M78.719,58.631c-11.094,0-20.087,8.994-20.087,20.088c0,11.093,8.993,20.087,20.087,20.087
			c11.095,0,20.087-8.994,20.087-20.087C98.806,67.625,89.813,58.631,78.719,58.631z M78.719,94.15
			c-8.522,0-15.432-6.91-15.432-15.432c0-8.522,6.909-15.432,15.432-15.432c8.523,0,15.432,6.909,15.432,15.432
			C94.15,87.24,87.242,94.15,78.719,94.15z"/>
	</g>
</g>
</svg>
