<?xml version="1.0" encoding="utf-8"?>
<!-- Generator: Adobe Illustrator 16.0.0, SVG Export Plug-In . SVG Version: 6.00 Build 0)  -->
<!DOCTYPE svg PUBLIC "-//W3C//DTD SVG 1.1//EN" "http://www.w3.org/Graphics/SVG/1.1/DTD/svg11.dtd">
<svg version="1.1" id="Layer_1" xmlns="http://www.w3.org/2000/svg" xmlns:xlink="http://www.w3.org/1999/xlink" x="0px" y="0px"
	 width="100px" height="100px" viewBox="0 0 100 100" enable-background="new 0 0 100 100" xml:space="preserve">
<path fill="#FF6300" d="M39.705,70.082H52.19v7.346H39.705V70.082z M25.931,69.165c-2.535,0-4.591,2.055-4.591,4.591
	s2.055,4.592,4.591,4.592c2.537,0,4.591-2.056,4.591-4.592S28.468,69.165,25.931,69.165z M76.796,46.763H39.705v7.344h37.091V46.763
	L76.796,46.763z M25.931,45.845c-2.535,0-4.591,2.055-4.591,4.59c0,2.536,2.055,4.591,4.591,4.591c2.537,0,4.591-2.055,4.591-4.591
	C30.522,47.9,28.468,45.845,25.931,45.845z M76.796,24.728H39.705v7.345h37.091V24.728L76.796,24.728z M25.931,23.81
	c-2.535,0-4.591,2.056-4.591,4.59c0,2.537,2.055,4.592,4.591,4.592c2.537,0,4.591-2.056,4.591-4.592
	C30.522,25.865,28.468,23.81,25.931,23.81z M10.323,86.977v-71.98c0-2.026,1.647-3.672,3.672-3.672h71.98
	c2.025,0,3.672,1.647,3.672,3.672v41.499h7.346V14.996c0-6.075-4.943-11.017-11.018-11.017H13.996
	c-6.075,0-11.017,4.942-11.017,11.017v71.98c0,6.075,4.942,11.017,11.017,11.017h42.417v-7.346H13.996
	C11.97,90.648,10.323,89.001,10.323,86.977z"/>
<g>
	<g>
		<path fill="#FF6300" d="M78.572,77.16c-2.186-0.877-2.816-1.406-2.816-2.363c0-0.766,0.58-1.66,2.214-1.66
			c1.446,0,2.557,0.571,2.565,0.576c0.117,0.062,0.248,0.097,0.38,0.097c0.314,0,0.595-0.191,0.711-0.489l0.396-1.016
			c0.138-0.371-0.071-0.692-0.34-0.808c-0.89-0.389-2.629-0.688-2.648-0.692c-0.026-0.004-0.124-0.025-0.124-0.14l-0.005-1.473
			c0-0.443-0.373-0.805-0.826-0.805h-0.713c-0.454,0-0.823,0.361-0.823,0.805v1.548c0,0.119-0.128,0.172-0.176,0.181
			c-2.196,0.524-3.568,2.133-3.568,4.164c0,2.531,2.091,3.673,4.35,4.53c1.806,0.71,2.543,1.428,2.543,2.481
			c0,1.146-1.044,1.949-2.537,1.949c-1.277,0-3.004-0.811-3.021-0.818c-0.111-0.053-0.229-0.079-0.348-0.079
			c-0.329,0-0.615,0.2-0.73,0.507l-0.38,1.026c-0.134,0.384,0.074,0.696,0.339,0.833c1.062,0.552,3.112,0.877,3.205,0.892
			c0.023,0.004,0.148,0.047,0.148,0.162v1.541c0,0.444,0.372,0.806,0.825,0.806h0.737c0.455,0,0.825-0.361,0.825-0.806v-1.622
			c0-0.152,0.111-0.166,0.135-0.172c2.341-0.526,3.781-2.237,3.781-4.387C82.672,79.723,81.445,78.297,78.572,77.16z"/>
		<path fill="#FF6300" d="M77.652,59.31c-10.682,0-19.342,8.661-19.342,19.343s8.66,19.342,19.342,19.342
			c10.684,0,19.342-8.66,19.342-19.342S88.334,59.31,77.652,59.31z M77.652,93.511c-8.205,0-14.859-6.653-14.859-14.859
			s6.652-14.858,14.859-14.858s14.858,6.652,14.858,14.858S85.859,93.511,77.652,93.511z"/>
	</g>
</g>
</svg>
