<?xml version="1.0" encoding="utf-8"?>
<!-- Generator: Adobe Illustrator 16.0.0, SVG Export Plug-In . SVG Version: 6.00 Build 0)  -->
<!DOCTYPE svg PUBLIC "-//W3C//DTD SVG 1.1//EN" "http://www.w3.org/Graphics/SVG/1.1/DTD/svg11.dtd">
<svg version="1.1" id="Layer_1" xmlns="http://www.w3.org/2000/svg" xmlns:xlink="http://www.w3.org/1999/xlink" x="0px" y="0px"
	 width="100px" height="100px" viewBox="0 0 100 100" enable-background="new 0 0 100 100" xml:space="preserve">
<g>
	<path fill="#FF6300" d="M51.584,27.814H29.399V50h22.185V27.814z M48.416,46.831H32.568V30.984h15.847V46.831z"/>
	<path fill="#FF6300" d="M84.862,27.814H59.508c-0.876,0-1.584,0.708-1.584,1.585c0,0.876,0.708,1.584,1.584,1.584h25.354
		c0.876,0,1.586-0.708,1.586-1.584C86.448,28.523,85.738,27.814,84.862,27.814z"/>
	<path fill="#FF6300" d="M84.862,37.322H59.508c-0.876,0-1.584,0.708-1.584,1.585s0.708,1.585,1.584,1.585h25.354
		c0.876,0,1.586-0.708,1.586-1.585S85.738,37.322,84.862,37.322z"/>
	<path fill="#FF6300" d="M84.862,46.831H59.508c-0.876,0-1.584,0.708-1.584,1.585c0,0.876,0.708,1.584,1.584,1.584h25.354
		c0.876,0,1.586-0.708,1.586-1.584C86.448,47.539,85.738,46.831,84.862,46.831z"/>
	<path fill="#FF6300" d="M84.862,56.338H32.568c-0.876,0-1.584,0.71-1.584,1.586s0.708,1.584,1.584,1.584h52.294
		c0.876,0,1.586-0.708,1.586-1.584S85.738,56.338,84.862,56.338z"/>
	<path fill="#FF6300" d="M56.338,65.846h-23.77c-0.876,0-1.584,0.71-1.584,1.586s0.708,1.584,1.584,1.584h23.77
		c0.877,0,1.586-0.708,1.586-1.584S57.215,65.846,56.338,65.846z"/>
	<path fill="#FF6300" d="M56.338,75.354h-23.77c-0.876,0-1.584,0.709-1.584,1.586c0,0.875,0.708,1.584,1.584,1.584h23.77
		c0.877,0,1.586-0.709,1.586-1.584C57.924,76.063,57.215,75.354,56.338,75.354z"/>
	<path fill="#FF6300" d="M56.338,84.862h-23.77c-0.876,0-1.584,0.709-1.584,1.586c0,0.875,0.708,1.584,1.584,1.584h23.77
		c0.877,0,1.586-0.709,1.586-1.584C57.924,85.571,57.215,84.862,56.338,84.862z"/>
	<path fill="#FF6300" d="M64.262,88.032h22.187V65.846H64.262V88.032z M67.432,69.016h15.847v15.847H67.432V69.016z"/>
	<path fill="#FF6300" d="M95.956,23.061c0-0.027-0.015-0.049-0.017-0.076V2.46H19.892V50H4.044v38.032
		c0,5.244,4.265,9.508,9.508,9.508h72.896c5.233,0,9.491-4.26,9.491-9.492V23.137C95.941,23.11,95.956,23.087,95.956,23.061z
		 M92.771,5.629v15.847h-69.71V5.629H92.771z M7.214,88.032V53.17h12.678v34.862c0,3.496-2.843,6.338-6.339,6.338
		C10.057,94.37,7.214,91.528,7.214,88.032z M86.448,94.37H20.635c0.025-0.028,0.042-0.062,0.066-0.089
		c0.323-0.37,0.618-0.765,0.881-1.182c0.043-0.066,0.083-0.134,0.124-0.202c0.257-0.429,0.483-0.875,0.67-1.345
		c0.025-0.064,0.047-0.13,0.071-0.194c0.183-0.485,0.332-0.985,0.433-1.505c0.01-0.046,0.013-0.097,0.022-0.142
		c0.098-0.545,0.158-1.106,0.158-1.68V50V24.646h69.71v63.402C92.771,91.534,89.934,94.37,86.448,94.37z"/>
	<path fill="#FF6300" d="M76.94,8.798H38.908v9.508H76.94V8.798z M73.771,15.137H42.077v-3.169h31.694V15.137z"/>
</g>
</svg>
