<?xml version="1.0" encoding="utf-8"?>
<!-- Generator: Adobe Illustrator 16.0.0, SVG Export Plug-In . SVG Version: 6.00 Build 0)  -->
<!DOCTYPE svg PUBLIC "-//W3C//DTD SVG 1.1//EN" "http://www.w3.org/Graphics/SVG/1.1/DTD/svg11.dtd">
<svg version="1.1" id="Layer_1" xmlns="http://www.w3.org/2000/svg" xmlns:xlink="http://www.w3.org/1999/xlink" x="0px" y="0px"
	 width="100px" height="100px" viewBox="0 0 100 100" enable-background="new 0 0 100 100" xml:space="preserve">
<path fill="#FF6300" d="M86.484,2.667h-36.15c-6.545,0-11.851,5.295-11.851,11.85v54.224c0,2.302,2.639,3.647,4.5,2.25l11.3-8.476
	h32.201c6.545,0,11.85-5.294,11.85-11.849v-36.15C98.334,7.972,93.038,2.667,86.484,2.667z M65.596,47.455h-12.25
	c-1.554,0-2.813-1.259-2.813-2.813s1.259-2.813,2.813-2.813h12.25c1.554,0,2.813,1.259,2.813,2.813S67.149,47.455,65.596,47.455z
	 M83.471,35.404H53.346c-1.554,0-2.813-1.259-2.813-2.813s1.259-2.813,2.813-2.813h30.125c1.554,0,2.813,1.259,2.813,2.813
	S85.024,35.404,83.471,35.404z M83.471,23.354H53.346c-1.554,0-2.813-1.259-2.813-2.813s1.259-2.813,2.813-2.813h30.125
	c1.554,0,2.813,1.259,2.813,2.813S85.024,23.354,83.471,23.354z"/>
<path fill="#585858" d="M33.503,61.147c0,7.343-5.953,13.295-13.295,13.295c-7.342,0-13.295-5.952-13.295-13.295
	s5.953-13.295,13.295-13.295C27.55,47.852,33.503,53.805,33.503,61.147z"/>
<path fill="#585858" d="M20.208,74.442c-9.872,0-17.875,8.004-17.875,17.875v3.536c0,1.555,1.259,2.814,2.813,2.814h30.125
	c1.553,0,2.813-1.26,2.813-2.814v-3.536C38.083,82.446,30.081,74.442,20.208,74.442z"/>
</svg>
