<?xml version="1.0" encoding="utf-8"?>
<!-- Generator: Adobe Illustrator 16.0.0, SVG Export Plug-In . SVG Version: 6.00 Build 0)  -->
<!DOCTYPE svg PUBLIC "-//W3C//DTD SVG 1.1//EN" "http://www.w3.org/Graphics/SVG/1.1/DTD/svg11.dtd">
<svg version="1.1" id="Layer_1" xmlns="http://www.w3.org/2000/svg" xmlns:xlink="http://www.w3.org/1999/xlink" x="0px" y="0px"
	 width="100px" height="100px" viewBox="0 0 100 100" enable-background="new 0 0 100 100" xml:space="preserve">
<path d="M39.151,61.083l2.081-1.204c0.848-0.491,1.139-1.577,0.649-2.427l-3.942-6.842
	c-0.329-0.57-0.925-0.889-1.538-0.889c-0.301,0-0.605,0.077-0.885,0.238l-2.081,1.204c-0.286,0.166-0.589,0.241-0.884,0.241
	c-0.926,0-1.776-0.742-1.776-1.779v-2.407c0-0.981-0.794-1.777-1.773-1.777h-7.886c-0.979,0-1.773,0.795-1.773,1.777v2.407
	c0,1.037-0.85,1.779-1.776,1.779c-0.295,0-0.598-0.075-0.884-0.241l-2.081-1.204c-0.279-0.161-0.584-0.238-0.885-0.238
	c-0.613,0-1.209,0.319-1.537,0.889l-3.943,6.842c-0.49,0.85-0.199,1.937,0.649,2.427l2.081,1.204c1.182,0.684,1.182,2.394,0,3.078
	l-2.081,1.204c-0.848,0.491-1.139,1.577-0.649,2.427l3.943,6.842c0.328,0.57,0.924,0.889,1.537,0.889
	c0.301,0,0.606-0.077,0.885-0.239l2.081-1.204c0.286-0.165,0.589-0.24,0.884-0.24c0.927,0,1.776,0.742,1.776,1.779v2.407
	c0,0.981,0.794,1.777,1.773,1.777h7.885c0.979,0,1.773-0.795,1.773-1.777v-2.407c0-1.037,0.85-1.779,1.776-1.779
	c0.295,0,0.598,0.075,0.884,0.24l2.081,1.204c0.279,0.162,0.584,0.239,0.885,0.239c0.613,0,1.208-0.319,1.537-0.889l3.943-6.842
	c0.489-0.85,0.199-1.937-0.649-2.427l-2.081-1.204C37.969,63.477,37.969,61.767,39.151,61.083z M25.06,67.893
	c-2.906,0-5.261-2.36-5.261-5.271c0-2.911,2.355-5.271,5.261-5.271s5.261,2.36,5.261,5.271
	C30.321,65.533,27.965,67.893,25.06,67.893z"/>
<path fill="#F26422" d="M37.784,12.169c-0.952-0.953-2.493-0.953-3.445,0c-0.951,0.953-0.951,2.498,0,3.451l4.353,4.36
	C22.695,20.774,9.747,33.363,8.346,49.225l0.36-0.625c1.03-1.788,2.951-2.898,5.012-2.898c0.043,0,0.087,0.004,0.13,0.005
	C16.592,34.277,26.54,25.631,38.592,24.88l-4.253,4.261c-0.951,0.953-0.951,2.499,0,3.451c0.476,0.477,1.099,0.715,1.723,0.715
	c0.623,0,1.247-0.238,1.722-0.715l8.47-8.486c0.457-0.458,0.713-1.079,0.713-1.726c0-0.647-0.257-1.268-0.713-1.726L37.784,12.169z"
	/>
<path d="M68.56,24.654c5.408,0,9.808-4.408,9.808-9.827c0-5.419-4.4-9.827-9.808-9.827
	c-5.408,0-9.808,4.408-9.808,9.827S63.152,24.654,68.56,24.654z"/>
<path d="M87.666,51.144V37.635c0-3.739-2.398-7.056-5.945-8.22l-0.017-0.005l-5.188-0.86
	c-0.441-0.136-0.913,0.098-1.072,0.534l-5.886,16.182c-0.34,0.934-1.658,0.934-1.997,0l-5.886-16.182
	c-0.128-0.352-0.46-0.573-0.816-0.573c-0.084,0-5.443,0.898-5.443,0.898c-3.576,1.194-5.965,4.515-5.965,8.271v13.464
	c0,2.018,1.633,3.653,3.646,3.653h30.922C86.033,54.797,87.666,53.162,87.666,51.144z"/>
<path fill="#F26422" d="M92,54.374c-0.204,2.792-2.49,4.502-5.278,4.705c-2.136,12.25-12.462,21.709-25.096,22.496l4.252-4.261
	c0.951-0.953,0.951-2.498,0-3.451c-0.951-0.953-2.493-0.953-3.444,0l-8.469,8.486c-0.951,0.953-0.951,2.498,0,3.451l8.469,8.486
	C62.91,94.762,63.533,95,64.156,95c0.623,0,1.247-0.238,1.722-0.714c0.951-0.953,0.951-2.499,0-3.452l-4.352-4.36
	C78.472,85.633,92,71.557,92,54.374z"/>
<path fill="#F26422" d="M70.698,28.365c-0.226-0.247-0.557-0.371-0.891-0.371h-2.494c-0.334,0-0.665,0.125-0.891,0.371
	c-0.35,0.382-0.4,0.934-0.152,1.365l1.333,2.013l-0.624,5.274l1.229,3.275c0.12,0.33,0.584,0.33,0.705,0l1.229-3.275l-0.624-5.274
	l1.333-2.013C71.099,29.299,71.047,28.747,70.698,28.365z"/>
</svg>
