<?xml version="1.0" encoding="utf-8"?>
<!-- Generator: Adobe Illustrator 16.0.0, SVG Export Plug-In . SVG Version: 6.00 Build 0)  -->
<!DOCTYPE svg PUBLIC "-//W3C//DTD SVG 1.1//EN" "http://www.w3.org/Graphics/SVG/1.1/DTD/svg11.dtd">
<svg version="1.1" id="Layer_1" xmlns="http://www.w3.org/2000/svg" xmlns:xlink="http://www.w3.org/1999/xlink" x="0px" y="0px"
	 width="100px" height="100px" viewBox="0 0 100 100" enable-background="new 0 0 100 100" xml:space="preserve">
<g>
	<g>
		<path d="M60.542,69.269c0-0.326-0.114-0.653-0.343-0.979c-1.829-2.188-3.298-4.065-4.408-5.632
			c0.686-1.338,1.208-2.579,1.566-3.721l7.591-1.175c0.295-0.034,0.556-0.204,0.785-0.515c0.228-0.311,0.341-0.628,0.341-0.955
			v-9.061c0-0.358-0.113-0.677-0.341-0.954C65.504,46,65.227,45.828,64.9,45.764l-7.444-1.126c-0.359-1.111-0.915-2.45-1.665-4.016
			c0.488-0.719,1.224-1.699,2.204-2.938c0.979-1.241,1.666-2.122,2.057-2.645c0.229-0.327,0.343-0.637,0.343-0.931
			c0-0.882-2.351-3.493-7.051-7.836c-0.326-0.261-0.669-0.392-1.029-0.392c-0.392,0-0.718,0.114-0.98,0.343l-5.779,4.359
			c-1.337-0.686-2.562-1.191-3.672-1.519l-1.126-7.492c-0.032-0.326-0.196-0.613-0.49-0.857c-0.293-0.245-0.62-0.367-0.979-0.367
			h-9.108c-0.75,0-1.241,0.392-1.469,1.175c-0.392,1.501-0.767,4.016-1.126,7.542c-1.404,0.457-2.661,0.98-3.771,1.567l-5.631-4.408
			c-0.327-0.229-0.669-0.342-1.029-0.342c-0.621,0-1.91,0.963-3.869,2.89s-3.298,3.379-4.016,4.358
			c-0.229,0.262-0.343,0.588-0.343,0.98c0,0.293,0.114,0.62,0.343,0.979c1.828,2.188,3.297,4.065,4.408,5.632
			c-0.686,1.338-1.208,2.579-1.566,3.721l-7.592,1.175c-0.293,0.033-0.554,0.204-0.783,0.513c-0.229,0.311-0.343,0.629-0.343,0.956
			v9.06c0,0.359,0.114,0.678,0.343,0.954c0.229,0.278,0.506,0.434,0.833,0.466l7.444,1.175c0.392,1.241,0.963,2.58,1.714,4.017
			c-0.522,0.719-1.29,1.715-2.302,2.987c-1.013,1.274-1.682,2.139-2.008,2.596c-0.229,0.327-0.343,0.638-0.343,0.931
			c0,0.883,2.351,3.493,7.052,7.836c0.326,0.261,0.669,0.391,1.028,0.391c0.425,0,0.751-0.113,0.979-0.342l5.779-4.358
			c1.338,0.686,2.562,1.191,3.673,1.517l1.126,7.494c0.032,0.327,0.196,0.612,0.49,0.856c0.294,0.245,0.62,0.368,0.979,0.368h9.108
			c0.751,0,1.241-0.392,1.47-1.177c0.392-1.534,0.767-4.064,1.126-7.59c1.306-0.391,2.563-0.899,3.771-1.519l5.631,4.408
			c0.327,0.229,0.67,0.342,1.03,0.342c0.62,0,1.902-0.971,3.845-2.915c1.94-1.94,3.288-3.403,4.04-4.383
			C60.428,69.97,60.542,69.66,60.542,69.269z M43.597,60.552c-2.448,2.449-5.403,3.673-8.864,3.673
			c-3.461,0-6.416-1.224-8.864-3.673c-2.449-2.448-3.673-5.403-3.673-8.863c0-3.461,1.224-6.416,3.673-8.865
			c2.448-2.449,5.403-3.673,8.864-3.673c3.46,0,6.416,1.224,8.864,3.673c2.449,2.449,3.672,5.404,3.672,8.865
			C47.269,55.148,46.045,58.104,43.597,60.552z"/>
		<path fill="#FF6300" d="M90.121,71.815c-0.424-0.946-0.914-1.794-1.469-2.546c1.666-3.689,2.497-5.943,2.497-6.759
			c0-0.13-0.063-0.244-0.195-0.343c-3.919-2.285-5.942-3.428-6.073-3.428l-0.293,0.099c-1.339,1.339-2.842,3.167-4.506,5.485
			c-0.652-0.065-1.142-0.099-1.468-0.099c-0.328,0-0.816,0.033-1.471,0.099c-0.455-0.687-1.305-1.789-2.546-3.307
			c-1.239-1.517-1.991-2.277-2.252-2.277c-0.065,0-0.555,0.262-1.47,0.785c-0.915,0.522-1.877,1.077-2.89,1.666
			c-1.013,0.588-1.582,0.913-1.713,0.979c-0.132,0.097-0.196,0.211-0.196,0.341c0,0.817,0.832,3.068,2.497,6.76
			c-0.554,0.751-1.045,1.6-1.469,2.545c-4.865,0.489-7.298,0.996-7.298,1.519v6.855c0,0.522,2.433,1.028,7.298,1.518
			c0.391,0.882,0.881,1.731,1.469,2.546c-1.665,3.69-2.497,5.942-2.497,6.759c0,0.13,0.064,0.245,0.196,0.343
			c3.981,2.318,6.007,3.477,6.072,3.477c0.261,0,1.013-0.767,2.252-2.302c1.241-1.535,2.09-2.643,2.546-3.33
			c0.653,0.064,1.143,0.098,1.471,0.098c0.326,0,0.815-0.033,1.468-0.098c0.455,0.688,1.306,1.795,2.545,3.33
			c1.241,1.535,1.992,2.302,2.254,2.302c0.065,0,2.091-1.159,6.073-3.477c0.132-0.098,0.195-0.212,0.195-0.343
			c0-0.816-0.832-3.068-2.497-6.759c0.588-0.814,1.077-1.664,1.469-2.546c4.865-0.489,7.298-0.995,7.298-1.518v-6.855
			C97.419,72.812,94.986,72.306,90.121,71.815z M83.045,81.194c-1.223,1.224-2.701,1.837-4.432,1.837
			c-1.731,0-3.209-0.613-4.433-1.837c-1.224-1.226-1.837-2.702-1.837-4.433c0-1.696,0.62-3.167,1.861-4.407
			c1.24-1.239,2.711-1.86,4.408-1.86c1.696,0,3.167,0.619,4.407,1.86c1.241,1.24,1.861,2.711,1.861,4.407
			C84.881,78.492,84.27,79.969,83.045,81.194z"/>
		<path d="M90.121,21.667c-0.424-0.947-0.914-1.795-1.469-2.546c1.666-3.689,2.497-5.942,2.497-6.758
			c0-0.13-0.063-0.245-0.195-0.343c-3.919-2.286-5.942-3.428-6.073-3.428l-0.293,0.098c-1.339,1.34-2.842,3.167-4.506,5.485
			c-0.652-0.065-1.142-0.098-1.468-0.098c-0.328,0-0.816,0.033-1.471,0.098c-0.455-0.686-1.305-1.788-2.546-3.305
			c-1.239-1.519-1.991-2.277-2.252-2.277c-0.065,0-0.555,0.261-1.47,0.783c-0.915,0.523-1.877,1.078-2.89,1.666
			s-1.582,0.914-1.713,0.979c-0.132,0.098-0.196,0.212-0.196,0.343c0,0.816,0.832,3.069,2.497,6.758
			c-0.554,0.751-1.045,1.6-1.469,2.547c-4.865,0.489-7.298,0.995-7.298,1.518v6.856c0,0.522,2.433,1.029,7.298,1.518
			c0.391,0.881,0.881,1.73,1.469,2.546c-1.665,3.69-2.497,5.942-2.497,6.758c0,0.13,0.064,0.245,0.196,0.343
			c3.981,2.318,6.007,3.477,6.072,3.477c0.261,0,1.013-0.766,2.252-2.301c1.241-1.535,2.09-2.644,2.546-3.33
			c0.653,0.065,1.143,0.098,1.471,0.098c0.326,0,0.815-0.033,1.468-0.098c0.455,0.686,1.306,1.795,2.545,3.33
			c1.241,1.535,1.992,2.301,2.254,2.301c0.065,0,2.091-1.159,6.073-3.477c0.132-0.098,0.195-0.212,0.195-0.343
			c0-0.816-0.832-3.068-2.497-6.758c0.588-0.816,1.077-1.665,1.469-2.546c4.865-0.49,7.298-0.996,7.298-1.518v-6.856
			C97.419,22.663,94.986,22.157,90.121,21.667z M83.045,31.046c-1.223,1.224-2.701,1.836-4.432,1.836
			c-1.731,0-3.209-0.612-4.433-1.836c-1.224-1.225-1.837-2.702-1.837-4.432c0-1.698,0.62-3.167,1.861-4.408
			c1.24-1.241,2.711-1.861,4.408-1.861c1.696,0,3.167,0.621,4.407,1.861c1.241,1.241,1.861,2.71,1.861,4.408
			C84.881,28.344,84.27,29.822,83.045,31.046z"/>
	</g>
</g>
</svg>
