<?xml version="1.0" encoding="utf-8"?>
<!-- Generator: Adobe Illustrator 16.0.0, SVG Export Plug-In . SVG Version: 6.00 Build 0)  -->
<!DOCTYPE svg PUBLIC "-//W3C//DTD SVG 1.1//EN" "http://www.w3.org/Graphics/SVG/1.1/DTD/svg11.dtd">
<svg version="1.1" id="Layer_1" xmlns="http://www.w3.org/2000/svg" xmlns:xlink="http://www.w3.org/1999/xlink" x="0px" y="0px"
	 width="100px" height="100px" viewBox="0 0 100 100" enable-background="new 0 0 100 100" xml:space="preserve">
<path d="M50.6,22.2c4.7,0,8.601-3.9,8.601-8.6C59.2,8.9,55.3,5,50.6,5C45.9,5,42,8.9,42,13.6
	C42,18.4,45.9,22.2,50.6,22.2z"/>
<path d="M37.1,48.7h27.1c1.8,0,3.2-1.4,3.2-3.2V33.6c0-3.3-2.101-6.2-5.2-7.2l0,0l-4.5-0.8c-0.4-0.1-0.8,0.1-0.9,0.5
	l-5.2,14.2c-0.3,0.8-1.5,0.8-1.7,0l-5.2-14.2c-0.1-0.3-0.4-0.5-0.7-0.5c-0.1,0-4.8,0.8-4.8,0.8c-3.1,1-5.2,4-5.2,7.3v11.8
	C33.9,47.2,35.3,48.7,37.1,48.7z"/>
<path d="M89.8,70.5L89.8,70.5l-2.5-0.8c-0.7-0.2-1.5,0-2.1,0.5L79.9,75L74.6,70.2c-0.6-0.5-1.399-0.7-2.1-0.5
	L70,70.5c0,0,0,0-0.1,0c-3.7,1.2-6.2,4.7-6.2,8.6v13.7c0,1.2,1,2.2,2.2,2.2H93.8c1.2,0,2.2-1,2.2-2.2V79.1
	C96,75.2,93.5,71.7,89.8,70.5z"/>
<path d="M79.9,68.2C85,68.2,89.1,64.1,89.1,59S85,49.8,79.9,49.8c-5.101,0-9.2,4.101-9.2,9.2S74.8,68.2,79.9,68.2z"
	/>
<path d="M31.1,70.5C31.1,70.5,31,70.5,31.1,70.5l-2.5-0.8c-0.7-0.2-1.5,0-2.1,0.5L21.1,75l-5.3-4.8
	c-0.6-0.5-1.4-0.7-2.1-0.5l-2.5,0.8C7.5,71.7,5,75.2,5,79.1v13.7C5,94,6,95,7.2,95h27.9c1.2,0,2.2-1,2.2-2.2V79.1
	C37.3,75.2,34.8,71.7,31.1,70.5z"/>
<path d="M12,59c0,5.1,4.1,9.2,9.2,9.2c5.1,0,9.2-4.101,9.2-9.2s-4.1-9.2-9.2-9.2C16.1,49.8,12,54,12,59z"/>
<path fill="#FF6300" d="M82.4,34.8c-0.801-0.2-1.601-0.1-2.2,0.5c-1,0.9-1.101,2.3-0.2,3.3l3.2,3.7c0.399,0.5,1.1,0.8,1.8,0.8
	s1.3-0.3,1.8-0.8l3.2-3.7c0.9-1,0.8-2.5-0.2-3.3c-0.7-0.6-1.7-0.7-2.6-0.4c-0.5-5.2-2.5-10-5.8-13.8c-0.9-1-2.301-1.1-3.301-0.2
	S77,23.2,77.9,24.2C80.3,27.2,81.9,30.8,82.4,34.8z"/>
<path fill="#FF6300" d="M14.5,42.3c0.4,0.5,1.1,0.8,1.8,0.8c0.7,0,1.3-0.3,1.8-0.8l3.2-3.7c0.9-1,0.8-2.5-0.2-3.3
	c-0.6-0.6-1.5-0.7-2.2-0.5c0.5-4,2.1-7.6,4.6-10.5c0.9-1,0.8-2.5-0.2-3.3c-1-0.9-2.5-0.8-3.3,0.2c-3.3,3.8-5.3,8.6-5.8,13.8
	c-0.8-0.4-1.8-0.3-2.6,0.4c-1,0.9-1.1,2.3-0.2,3.3L14.5,42.3z"/>
<path fill="#FF6300" d="M52.4,25.8c-0.2-0.2-0.5-0.3-0.801-0.3h-2.2c-0.3,0-0.6,0.1-0.8,0.3c-0.3,0.3-0.4,0.8-0.1,1.2l1.2,1.8
	l-0.5,4.6l1.1,2.9c0.1,0.3,0.5,0.3,0.601,0l1.1-2.9l-0.5-4.6l1.2-1.8C52.7,26.6,52.7,26.1,52.4,25.8z"/>
</svg>
