<?xml version="1.0" encoding="utf-8"?>
<!-- Generator: Adobe Illustrator 16.0.0, SVG Export Plug-In . SVG Version: 6.00 Build 0)  -->
<!DOCTYPE svg PUBLIC "-//W3C//DTD SVG 1.1//EN" "http://www.w3.org/Graphics/SVG/1.1/DTD/svg11.dtd">
<svg version="1.1" id="Layer_1" xmlns="http://www.w3.org/2000/svg" xmlns:xlink="http://www.w3.org/1999/xlink" x="0px" y="0px"
	 width="100px" height="100px" viewBox="0 0 100 100" enable-background="new 0 0 100 100" xml:space="preserve">
<path fill="#FF6300" d="M26.028,14.942c-0.026-0.134-0.065-0.267-0.118-0.393c-0.052-0.127-0.116-0.249-0.191-0.363
	c-0.077-0.115-0.163-0.222-0.26-0.319c-0.096-0.097-0.202-0.185-0.316-0.261c-0.113-0.077-0.232-0.141-0.357-0.193
	c-0.126-0.052-0.256-0.094-0.389-0.121c-0.268-0.056-0.543-0.054-0.812,0c-0.133,0.027-0.265,0.068-0.389,0.121
	c-0.126,0.053-0.247,0.116-0.359,0.193c-0.115,0.076-0.221,0.164-0.316,0.261c-0.096,0.097-0.183,0.204-0.258,0.319
	c-0.075,0.114-0.139,0.235-0.191,0.363c-0.053,0.127-0.092,0.259-0.118,0.393c-0.028,0.134-0.041,0.273-0.041,0.41
	s0.013,0.275,0.041,0.41c0.026,0.134,0.065,0.266,0.118,0.393c0.052,0.127,0.116,0.25,0.191,0.363
	c0.075,0.115,0.162,0.222,0.258,0.32c0.095,0.096,0.201,0.185,0.316,0.26c0.112,0.076,0.234,0.141,0.359,0.193
	c0.125,0.054,0.256,0.093,0.389,0.12c0.135,0.027,0.27,0.042,0.405,0.042c0.137,0,0.272-0.015,0.407-0.042
	c0.131-0.027,0.263-0.066,0.389-0.12c0.125-0.052,0.245-0.117,0.357-0.193c0.114-0.075,0.22-0.164,0.316-0.26
	c0.097-0.098,0.183-0.205,0.26-0.32c0.075-0.113,0.139-0.235,0.191-0.363c0.053-0.126,0.092-0.259,0.118-0.393
	c0.027-0.135,0.04-0.273,0.04-0.41S26.057,15.076,26.028,14.942z"/>
<path fill="#FF6300" d="M74.209,89.003c-0.517-0.896-1.664-1.2-2.561-0.681l-0.073,0.043c-0.895,0.518-1.2,1.665-0.681,2.562
	c0.349,0.6,0.977,0.934,1.624,0.934c0.318,0,0.643-0.082,0.939-0.253l0.072-0.041C74.425,91.047,74.73,89.899,74.209,89.003z"/>
<path fill="#FF6300" d="M91.092,26.015C84.683,14.914,74.333,6.973,61.953,3.655C49.57,0.338,36.639,2.041,25.537,8.45
	S6.495,25.207,3.178,37.588C-0.14,49.97,1.563,62.903,7.973,74.003c5.749,9.956,14.885,17.525,25.728,21.308
	c5.139,1.794,10.505,2.688,15.862,2.688c5.826,0,11.64-1.058,17.135-3.169c0.968-0.371,1.449-1.456,1.076-2.424
	c-0.371-0.966-1.455-1.449-2.422-1.078c-14.629,5.625-30.466,3.069-42.298-5.813l1.68-8.768l0.81-0.263
	c3.058-0.993,4.738-4.291,3.744-7.35l-0.593-1.83c-0.138-0.422-0.137-0.87,0.001-1.292c0.521-1.588,0.335-3.326-0.511-4.768
	c-0.846-1.443-2.272-2.453-3.913-2.775l-4.232-0.825l-8.166-6.21c-0.489-0.371-1.128-0.479-1.713-0.29l-4.781,1.554
	c-0.101-1.71-0.103-3.42-0.006-5.12c0.188,0.175,0.312,0.295,0.386,0.373c0.094,0.155,0.21,0.299,0.345,0.423
	c0.39,0.355,0.744,0.516,1.487,0.516c0.683,0,1.692-0.136,3.36-0.382c1.583-0.233,3.156-0.497,3.17-0.5
	c0.632-0.106,1.165-0.526,1.416-1.114c0.25-0.588,0.184-1.263-0.176-1.792l-2.299-3.372l3.292-2.354
	c0.219-0.158,0.403-0.359,0.537-0.594l5.104-8.911l2.057-2.205c2.103-2.253,2.703-5.55,1.528-8.4
	c-0.692-1.68-1.901-3.08-3.415-4.021c1.64-1.289,3.386-2.479,5.243-3.55c6.813-3.934,14.25-5.841,21.607-5.913l-3.349,4.2
	l-12.416,4.352c-0.503,0.177-0.908,0.561-1.112,1.055l-3.468,8.406c-0.247,0.596-0.167,1.278,0.208,1.804l5.064,7.094
	c-0.726,0.661-1.432,1.626-2.274,2.822c-0.369,0.525-0.719,1.02-0.96,1.299c-0.21,0.242-0.42,0.478-0.628,0.711
	c-1.089,1.225-2.216,2.493-3.016,4.186c-1.759,3.724-1.403,8.051,0.927,11.294c2.254,3.137,5.97,4.73,9.937,4.265
	c0.646-0.076,1.248-0.226,1.831-0.37c1.607-0.397,2.117-0.438,2.632,0.045c0.251,0.235,0.274,0.28,0.27,1.077
	c-0.004,0.507-0.007,1.138,0.167,1.858c0.279,1.151,1.003,1.946,1.584,2.588c0.289,0.318,0.588,0.645,0.681,0.866
	c0.584,1.402,0.33,2.179-0.229,3.879c-0.047,0.145-0.096,0.295-0.146,0.446c-0.847,2.623,0.335,5.226,1.377,7.522
	c0.337,0.746,0.658,1.449,0.867,2.072c1.686,5.002,2.95,6.147,3.963,6.608c0.532,0.242,1.081,0.348,1.636,0.348
	c2.704,0,5.524-2.509,6.819-4.099c0.813-1.002,1.015-2.001,1.161-2.73c0.073-0.363,0.129-0.652,0.239-0.84
	c0.167-0.285,0.366-0.508,0.615-0.791c0.503-0.566,1.129-1.27,1.534-2.547c0.308-0.969,0.53-1.207,1.272-1.994
	c0.128-0.139,0.267-0.285,0.413-0.446c2.497-2.717,1.854-4.793,1.174-6.99c-0.574-1.849,0.429-3.034,2.854-5.29
	c1.05-0.978,2.138-1.99,2.978-3.206c0.367-0.531,1.484-2.15,0.793-3.755c-0.679-1.573-2.402-1.837-3.787-2.05
	c-0.546-0.083-1.373-0.21-1.638-0.382c-1.158-0.759-1.869-2.341-2.555-3.872c-0.138-0.305-0.272-0.605-0.409-0.897
	c-0.242-0.521-0.485-1.151-0.744-1.819c-0.683-1.765-1.455-3.767-2.771-5.162c-1.183-1.253-3.412-1.857-5.381-2.39
	c-0.662-0.179-1.286-0.349-1.698-0.501c-0.345-0.127-0.72-0.15-1.077-0.066c-0.958,0.225-1.554,0.472-1.999,0.828
	c-0.117,0.094-0.463,0.402-0.667,0.898c-0.686-0.33-1.63-0.959-2.21-1.346c-0.013-0.008-0.024-0.016-0.037-0.024
	c0.196-0.783,0.018-1.412-0.168-1.805c-1.046-2.215-4.523-2.042-5.209-1.984c-0.389,0.033-0.882,0.051-1.403,0.068
	c-0.819,0.029-1.725,0.062-2.622,0.162l0.047-0.128c0.68-1.895,2.489-3.167,4.502-3.167h1.066c1.035,0,1.874-0.84,1.874-1.875
	c0-1.035-0.839-1.875-1.874-1.875h-1.066c-2.989,0-5.724,1.573-7.258,4.048l-2.797-3.917l2.752-6.669l12.131-4.253
	c0.334-0.116,0.626-0.324,0.847-0.6l5.394-6.765c13.78,1.311,26.752,9.037,34.184,21.911c1.98,3.43,3.444,7.04,4.418,10.731
	l-0.795,0.71c-1.037,0.925-1.645,2.252-1.667,3.642c-0.002,0.016-0.002,0.031-0.002,0.046l-1.294-3.562
	c-0.194-0.532-0.478-1.019-0.846-1.448l-2.31-2.704c-0.895-1.049-2.199-1.65-3.577-1.65h-2.828c-1.003,0-1.922,0.55-2.394,1.435
	c-0.473,0.885-0.422,1.953,0.135,2.788l0.285,0.429c-1.826,1.571-3.939,2.829-6.189,3.676l-3.876-7.423v-1.657
	c0-0.513-0.21-1.003-0.581-1.355l-3.489-3.332c-0.193-0.184-0.422-0.325-0.673-0.414l-3.143-1.104
	c-0.977-0.344-2.048,0.171-2.389,1.146c-0.345,0.978,0.169,2.047,1.147,2.391l2.76,0.97l2.617,2.5v1.313
	c0,0.303,0.073,0.6,0.214,0.868l4.853,9.293c0.436,0.837,1.425,1.219,2.311,0.892l1.413-0.52c3.281-1.211,6.322-3.158,8.798-5.632
	c0.632-0.632,0.729-1.621,0.234-2.365l-0.1-0.15h0.895c0.279,0,0.545,0.122,0.726,0.335l2.31,2.704
	c0.075,0.087,0.133,0.186,0.173,0.294l2.55,7.009c0.218,0.602,0.729,1.05,1.354,1.19c0.135,0.029,0.272,0.044,0.407,0.044
	c0.493,0,0.971-0.194,1.325-0.549l1.213-1.213c0.77-0.769,1.298-1.741,1.551-2.819c1.877,15.038-4.02,30.595-16.484,40.376
	c-0.813,0.642-0.956,1.819-0.317,2.633c0.64,0.815,1.817,0.958,2.633,0.318c8.998-7.063,15.182-17.163,17.407-28.443
	C98.865,47.896,96.902,36.079,91.092,26.015z M10.388,55.016l7.731,5.878c0.229,0.173,0.494,0.292,0.775,0.349l4.66,0.909
	c0.595,0.116,1.09,0.467,1.398,0.992c0.306,0.521,0.37,1.125,0.182,1.702c-0.388,1.184-0.39,2.434-0.006,3.619l0.594,1.83
	c0.355,1.091-0.246,2.269-1.337,2.625l-1.863,0.604c-0.651,0.212-1.134,0.761-1.262,1.431l-1.5,7.828
	c-3.296-3.02-6.191-6.585-8.541-10.654c-2.867-4.965-4.658-10.26-5.447-15.613L10.388,55.016z M21.315,25.111l-2.206,2.363
	c-0.099,0.105-0.185,0.222-0.256,0.347l-5.009,8.745l-4.451,3.183c-0.83,0.592-1.032,1.739-0.458,2.582l1.665,2.441
	c-0.96,0.144-1.82,0.261-2.394,0.324c-0.11-0.106-0.225-0.213-0.344-0.324c-0.445-0.414-1.065-0.966-1.988-1.774
	c1.522-9.425,6.063-18.303,13.207-25.081c1.367,0.431,2.49,1.451,3.038,2.782C22.734,22.195,22.419,23.927,21.315,25.111z
	 M36.602,35.356c0.836-0.471,2.777-0.54,4.195-0.59c0.567-0.021,1.104-0.039,1.583-0.08c0.253-0.021,0.535-0.017,0.799,0.004
	c-0.118,0.304-0.157,0.637-0.105,0.967c0.09,0.583,0.449,1.087,0.967,1.365c0.353,0.188,0.842,0.515,1.359,0.86
	c1.466,0.977,3.127,2.084,4.688,2.184c1.42,0.092,2.209-0.717,2.546-1.062c0.028-0.027,0.053-0.054,0.081-0.08
	c0.189-0.155,0.368-0.363,0.501-0.614c0.3,0.085,0.614,0.17,0.938,0.259c1.11,0.3,3.177,0.859,3.632,1.343
	c0.813,0.859,1.444,2.496,2.001,3.939c0.281,0.729,0.55,1.418,0.848,2.057c0.127,0.274,0.255,0.556,0.383,0.842
	c0.866,1.929,1.845,4.117,3.926,5.477c0.943,0.616,2.1,0.794,3.12,0.95c0.124,0.02,0.265,0.041,0.408,0.064
	c-0.605,0.846-1.468,1.647-2.379,2.496c-2.321,2.162-5.211,4.852-3.879,9.144c0.628,2.026,0.656,2.246-0.353,3.345
	c-0.139,0.149-0.267,0.285-0.387,0.412c-0.864,0.923-1.549,1.65-2.113,3.432c-0.165,0.516-0.377,0.756-0.763,1.19
	c-0.31,0.347-0.694,0.782-1.05,1.39c-0.424,0.728-0.566,1.429-0.679,1.991c-0.111,0.555-0.173,0.832-0.391,1.099
	c-0.497,0.607-1.419,1.492-2.368,2.092c-0.881,0.561-1.396,0.638-1.571,0.627c-0.199-0.214-0.924-1.153-2.019-4.402
	c-0.271-0.803-0.646-1.628-1.007-2.427c-0.799-1.759-1.624-3.577-1.222-4.818c0.047-0.146,0.094-0.291,0.141-0.432
	c0.641-1.953,1.247-3.802,0.125-6.491c-0.342-0.817-0.886-1.417-1.365-1.944c-0.31-0.343-0.662-0.729-0.716-0.951
	c-0.066-0.271-0.064-0.585-0.061-0.949c0.005-0.979,0.016-2.46-1.456-3.837c-2.075-1.943-4.495-1.344-6.096-0.949
	c-0.492,0.123-0.957,0.238-1.367,0.285c-2.634,0.309-4.986-0.685-6.455-2.728c-1.537-2.137-1.759-5.013-0.582-7.504
	c0.57-1.206,1.431-2.175,2.428-3.296c0.217-0.245,0.437-0.492,0.657-0.745c0.365-0.421,0.768-0.992,1.193-1.597
	C35.246,36.954,36.191,35.611,36.602,35.356z"/>
<path fill="#FF6300" d="M78.402,66.552l-0.902-3.4c-0.197-0.743-0.827-1.288-1.588-1.381c-0.766-0.09-1.506,0.293-1.871,0.968
	c-0.207,0.379-0.391,0.78-0.57,1.168c-0.3,0.654-0.611,1.33-0.936,1.701c-0.182,0.21-0.648,0.435-1.101,0.652
	c-1.08,0.521-2.558,1.233-3.124,3.033c-0.349,1.118-0.219,2.003-0.123,2.647c0.082,0.56,0.101,0.752-0.049,1.103l-0.018,0.045
	c-0.598,1.401-1.708,4.009-0.151,6.226c1.111,1.582,2.28,1.987,3.188,1.987c0.178,0,0.345-0.016,0.5-0.041
	c1.913-0.312,3.351-2.301,4.524-6.259l2.205-7.435C78.486,67.236,78.492,66.886,78.402,66.552z M72.588,73.932
	c-0.599,2.02-1.129,2.963-1.435,3.379c-0.036-0.045-0.073-0.096-0.114-0.153c-0.358-0.511,0.178-1.767,0.53-2.599l0.019-0.045
	c0.574-1.341,0.42-2.37,0.308-3.124c-0.071-0.48-0.096-0.688-0.007-0.972c0.074-0.236,0.514-0.461,1.175-0.779
	c0.295-0.143,0.617-0.301,0.943-0.488L72.588,73.932z"/>
<path fill="#FF6300" d="M52.154,24.286l-0.128-0.044c-0.976-0.342-2.046,0.171-2.389,1.149c-0.342,0.977,0.171,2.046,1.148,2.39
	l0.128,0.044c0.204,0.072,0.414,0.106,0.62,0.106c0.773,0,1.498-0.483,1.769-1.254C53.645,25.698,53.131,24.629,52.154,24.286z"/>
</svg>
