<?xml version="1.0" encoding="utf-8"?>
<!-- Generator: Adobe Illustrator 16.0.0, SVG Export Plug-In . SVG Version: 6.00 Build 0)  -->
<!DOCTYPE svg PUBLIC "-//W3C//DTD SVG 1.1//EN" "http://www.w3.org/Graphics/SVG/1.1/DTD/svg11.dtd">
<svg version="1.1" id="Layer_1" xmlns="http://www.w3.org/2000/svg" xmlns:xlink="http://www.w3.org/1999/xlink" x="0px" y="0px"
	 width="100px" height="100px" viewBox="0 0 100 100" enable-background="new 0 0 100 100" xml:space="preserve">
<path fill="#888888" d="M77.133,63.811c-3.737,5.138-9.79,8.483-16.61,8.483h-9.569c-3.306,0-6.121-2.101-7.188-5.041
	c-1.315-0.393-2.605-0.903-3.865-1.529c-2.667-1.326-5.088-3.123-7.22-5.35C18.856,63.415,8.509,75.746,8.509,90.499v1.929
	c0,2.65,2.146,4.8,4.794,4.8h74.393c2.648,0,4.795-2.149,4.795-4.8v-1.929C92.491,79.103,86.316,69.15,77.133,63.811z"/>
<path fill="#888888" d="M27.585,50.482c2.061,0,3.854-1.144,4.784-2.831c0.024,0.067,0.049,0.133,0.074,0.2
	c0.007,0.02,0.022,0.06,0.022,0.06s24.891-0.237,36.164-0.262c0.374,0.682,0.891,1.275,1.509,1.741v2.349
	c0,5.309-4.313,9.627-9.616,9.627h-9.569c-1.81,0-3.276,1.467-3.276,3.278c0,1.811,1.466,3.279,3.276,3.279h9.569
	c8.915,0,16.168-7.26,16.168-16.185v-2.349c1.326-0.998,2.184-2.584,2.184-4.373v-9.887v-3.792c0-1.825-0.894-3.439-2.267-4.432
	C75.543,13.42,64.241,2.772,50.5,2.772c-13.741,0-25.043,10.647-26.108,24.132c-1.373,0.993-2.267,2.608-2.267,4.432v13.679
	C22.125,48.043,24.582,50.482,27.585,50.482z M50.5,9.331c10.172,0,18.562,7.781,19.542,17.709
	C58.994,48.991,50.625,9.339,32.503,28.906c-0.004,0.011-0.008,0.022-0.012,0.033c-0.364-0.744-0.891-1.392-1.535-1.899
	C31.938,17.112,40.328,9.331,50.5,9.331z"/>
<path fill-rule="evenodd" clip-rule="evenodd" fill="#FF6300" d="M50.478,13.753c11.265,0,20.397,10.75,20.397,24.011
	c0,4.498-1.052,8.706-2.879,12.305c-3.381,7.385-7.958,6.818-7.958,6.818H49.84c0,0-3.303-0.197-5.811,3.661
	c-8.105-3.176-13.95-12.177-13.95-22.784C30.079,24.502,39.211,13.753,50.478,13.753z"/>
</svg>
