<?xml version="1.0" encoding="utf-8"?>
<!-- Generator: Adobe Illustrator 16.0.0, SVG Export Plug-In . SVG Version: 6.00 Build 0)  -->
<!DOCTYPE svg PUBLIC "-//W3C//DTD SVG 1.1//EN" "http://www.w3.org/Graphics/SVG/1.1/DTD/svg11.dtd">
<svg version="1.1" id="Layer_1" xmlns="http://www.w3.org/2000/svg" xmlns:xlink="http://www.w3.org/1999/xlink" x="0px" y="0px"
	 width="100px" height="100px" viewBox="0 0 100 100" enable-background="new 0 0 100 100" xml:space="preserve">
<g>
	<g>
		<path fill="#FF6300" d="M61.719,5.859H56.22l-0.692-1.951C54.697,1.571,52.478,0,50,0s-4.698,1.571-5.527,3.908L43.78,5.859
			h-5.499c-3.236,0-5.859,2.623-5.859,5.859v2.93c0,1.618,1.312,2.93,2.93,2.93h29.297c1.618,0,2.93-1.312,2.93-2.93v-2.93
			C67.578,8.482,64.955,5.859,61.719,5.859z"/>
	</g>
</g>
<g>
	<g>
		<path fill="#35454D" d="M79.297,11.719h-5.859v2.93c0,4.847-3.942,8.789-8.789,8.789H35.352c-4.847,0-8.789-3.942-8.789-8.789
			v-2.93h-5.859c-4.847,0-8.789,3.942-8.789,8.789V90.82c0,4.847,3.942,9.18,8.789,9.18h58.594c4.847,0,8.789-4.333,8.789-9.18
			V20.508C88.086,15.661,84.144,11.719,79.297,11.719z M46.212,75.313L34.493,87.032c-0.572,0.572-1.322,0.858-2.071,0.858
			s-1.499-0.286-2.071-0.858l-5.859-5.859c-1.145-1.145-1.145-2.999,0-4.143c1.145-1.145,2.999-1.145,4.143,0l3.788,3.788
			l9.647-9.647c1.145-1.145,2.999-1.145,4.143,0C47.356,72.314,47.356,74.169,46.212,75.313z M46.212,54.806L34.493,66.524
			c-0.572,0.572-1.322,0.858-2.071,0.858s-1.499-0.286-2.071-0.858l-5.859-5.859c-1.145-1.145-1.145-2.999,0-4.143
			c1.145-1.145,2.999-1.145,4.143,0l3.788,3.788l9.647-9.647c1.145-1.145,2.999-1.145,4.143,0
			C47.356,51.807,47.356,53.661,46.212,54.806z M46.212,34.298L34.493,46.017c-0.572,0.572-1.322,0.858-2.071,0.858
			s-1.499-0.286-2.071-0.858l-5.859-5.859c-1.145-1.145-1.145-2.999,0-4.143c1.145-1.145,2.999-1.145,4.143,0l3.788,3.788
			l9.647-9.647c1.145-1.145,2.999-1.145,4.143,0C47.356,31.299,47.356,33.153,46.212,34.298z M73.438,82.031H55.859
			c-1.619,0-2.93-1.311-2.93-2.93s1.311-2.93,2.93-2.93h17.578c1.619,0,2.93,1.311,2.93,2.93S75.057,82.031,73.438,82.031z
			 M73.438,61.523H55.859c-1.619,0-2.93-1.311-2.93-2.93s1.311-2.93,2.93-2.93h17.578c1.619,0,2.93,1.311,2.93,2.93
			S75.057,61.523,73.438,61.523z M73.438,41.016H55.859c-1.619,0-2.93-1.311-2.93-2.93s1.311-2.93,2.93-2.93h17.578
			c1.619,0,2.93,1.311,2.93,2.93S75.057,41.016,73.438,41.016z"/>
	</g>
</g>
</svg>
