<?xml version="1.0"?>
<svg xmlns="http://www.w3.org/2000/svg" xmlns:xlink="http://www.w3.org/1999/xlink" version="1.1" id="Layer_1" x="0px" y="0px" viewBox="0 0 330 330" style="enable-background:new 0 0 330 330;" xml:space="preserve" width="512px" height="512px" class=""><g><path id="XMLID_7_" d="M250.606,154.394c-5.857-5.858-15.355-5.858-21.213,0c-5.858,5.857-5.858,15.355,0,21.213L278.787,225H30V15  c0-8.284-6.716-15-15-15S0,6.716,0,15v225c0,8.284,6.716,15,15,15h263.787l-49.394,49.394c-5.858,5.857-5.858,15.355,0,21.213  C232.322,328.535,236.161,330,240,330s7.678-1.465,10.606-4.394l75-75c5.858-5.857,5.858-15.355,0-21.213L250.606,154.394z" data-original="#000000" class="active-path" data-old_color="#000000" fill="#A4A4A4"/></g> </svg>
