<?xml version="1.0" encoding="utf-8"?>
<!-- Generator: Adobe Illustrator 16.0.0, SVG Export Plug-In . SVG Version: 6.00 Build 0)  -->
<!DOCTYPE svg PUBLIC "-//W3C//DTD SVG 1.1//EN" "http://www.w3.org/Graphics/SVG/1.1/DTD/svg11.dtd">
<svg version="1.1" id="Layer_1" xmlns="http://www.w3.org/2000/svg" xmlns:xlink="http://www.w3.org/1999/xlink" x="0px" y="0px"
	 width="100px" height="100px" viewBox="0 0 100 100" enable-background="new 0 0 100 100" xml:space="preserve">
<path fill="#888888" d="M77.895,29.645C77.895,14.264,65.38,1.75,50,1.75c-15.381,0-27.895,12.514-27.895,27.895
	c0,9.527,4.803,17.952,12.112,22.987c-6.825,2.354-13.08,6.245-18.335,11.5C6.769,73.245,1.75,85.361,1.75,98.25h7.539
	c0-22.448,18.263-40.711,40.711-40.711C65.38,57.539,77.895,45.025,77.895,29.645z M50,50c-11.224,0-20.355-9.131-20.355-20.355
	S38.776,9.289,50,9.289c11.224,0,20.355,9.131,20.355,20.355S61.224,50,50,50z"/>
<rect x="59.989" y="62.555" fill="#FF6300" width="35.811" height="7.538"/>
<rect x="59.989" y="75.555" fill="#FF6300" width="35.811" height="7.538"/>
<rect x="59.989" y="88.555" fill="#FF6300" width="35.811" height="7.538"/>
</svg>
