<?xml version="1.0" encoding="utf-8"?>
<!-- Generator: Adobe Illustrator 16.0.0, SVG Export Plug-In . SVG Version: 6.00 Build 0)  -->
<!DOCTYPE svg PUBLIC "-//W3C//DTD SVG 1.1//EN" "http://www.w3.org/Graphics/SVG/1.1/DTD/svg11.dtd">
<svg version="1.1" id="Layer_1" xmlns="http://www.w3.org/2000/svg" xmlns:xlink="http://www.w3.org/1999/xlink" x="0px" y="0px"
	 width="100px" height="100px" viewBox="0 0 100 100" enable-background="new 0 0 100 100" xml:space="preserve">
<path fill="#FF6300" d="M49.659,53.625c0.098,0,0.194,0,0.312,0c0.039,0,0.078,0,0.117,0c0.059,0,0.136,0,0.195,0
	c5.708-0.098,10.323-2.089,13.731-5.896c7.497-8.389,6.252-22.769,6.115-24.141c-0.486-10.301-5.396-15.23-9.446-17.53
	C57.665,4.338,54.14,3.41,50.205,3.333h-0.137c-0.02,0-0.059,0-0.078,0h-0.117c-2.161,0-6.408,0.348-10.478,2.648
	c-4.09,2.3-9.077,7.229-9.563,17.608c-0.137,1.372-1.383,15.752,6.116,24.141C39.337,51.536,43.953,53.527,49.659,53.625z
	 M35.033,24.072c0-0.059,0.02-0.117,0.02-0.155C35.695,10.059,45.609,8.571,49.854,8.571h0.078c0.039,0,0.098,0,0.156,0
	c5.259,0.116,14.198,2.243,14.802,15.347c0,0.058,0,0.116,0.02,0.155c0.02,0.135,1.384,13.278-4.812,20.197
	c-2.452,2.745-5.726,4.098-10.029,4.136c-0.039,0-0.059,0-0.098,0l0,0c-0.039,0-0.059,0-0.098,0
	c-4.284-0.038-7.576-1.391-10.011-4.136C33.689,37.389,35.013,24.188,35.033,24.072z"/>
<path fill="#FF6300" d="M89.994,77.475c0-0.02,0-0.039,0-0.058c0-0.154-0.02-0.309-0.02-0.483
	c-0.116-3.828-0.37-12.776-8.822-15.637c-0.059-0.02-0.137-0.039-0.195-0.059c-8.782-2.222-16.087-7.247-16.165-7.305
	c-1.188-0.831-2.824-0.542-3.662,0.637c-0.837,1.18-0.544,2.803,0.645,3.635c0.33,0.232,8.083,5.586,17.78,8.06
	c4.537,1.604,5.045,6.416,5.182,10.824c0,0.174,0,0.328,0.02,0.483c0.02,1.738-0.098,4.425-0.41,5.972
	c-3.154,1.778-15.522,7.925-34.336,7.925c-18.736,0-31.182-6.166-34.355-7.944c-0.313-1.547-0.449-4.233-0.41-5.972
	c0-0.155,0.02-0.31,0.02-0.483c0.136-4.406,0.642-9.22,5.181-10.824c9.699-2.474,17.45-7.847,17.781-8.06
	c1.188-0.832,1.48-2.455,0.643-3.635c-0.837-1.179-2.473-1.468-3.661-0.637c-0.078,0.058-7.343,5.083-16.166,7.307
	c-0.078,0.018-0.137,0.037-0.195,0.057c-8.452,2.88-8.706,11.828-8.823,15.637c0,0.175,0,0.329-0.02,0.483c0,0.02,0,0.038,0,0.058
	c-0.02,1.006-0.038,6.165,0.994,8.756c0.195,0.502,0.545,0.928,1.013,1.218c0.584,0.388,14.588,9.238,38.018,9.238
	c23.43,0,37.434-8.87,38.018-9.238c0.448-0.29,0.817-0.716,1.013-1.218C90.033,83.64,90.014,78.48,89.994,77.475z"/>
</svg>
