<?xml version="1.0" encoding="utf-8"?>
<!-- Generator: Adobe Illustrator 16.0.0, SVG Export Plug-In . SVG Version: 6.00 Build 0)  -->
<!DOCTYPE svg PUBLIC "-//W3C//DTD SVG 1.1//EN" "http://www.w3.org/Graphics/SVG/1.1/DTD/svg11.dtd">
<svg version="1.1" id="Layer_1" xmlns="http://www.w3.org/2000/svg" xmlns:xlink="http://www.w3.org/1999/xlink" x="0px" y="0px"
	 width="100px" height="100px" viewBox="0 0 100 100" enable-background="new 0 0 100 100" xml:space="preserve">
<path d="M33.2,32.5c0.3,1.5,0.8,2.4,1.3,3c1.3,9.4,9.6,17.3,16.2,17c8.399-0.4,14.399-9.7,15.7-17
	c0.6-0.6,1.1-1.8,1.399-3.3c0.4-1.7,0.7-4.2-0.2-5.6c-0.1-0.1-0.399-0.4-0.5-0.5c0.9-3.5,3-9.7-2.1-15.3c-2.8-3-6.7-4.5-10.2-5.7
	C44.3,1.6,37,6.6,33.6,14.8c-0.2,0.6-1.8,4.3,0.1,11.3c-0.2,0.1-0.4,0.3-0.5,0.5C32.2,28,32.9,30.8,33.2,32.5z"/>
<path d="M87,84c-0.3-6.4-0.6-16.7-6.2-25c0,0-1.6-2.2-5.3-3.6c0,0-8.1-2.5-11.8-5.2L62,51.3l0.2,11.3L51.9,90.5
	c-0.2,0.6-0.801,1-1.4,1c-0.6,0-1.2-0.4-1.4-1L38.8,62.6L39,51.3c0,0.101-1.7-1.2-1.7-1.2c-3.7,2.7-11.8,5.2-11.8,5.2
	c-3.7,1.5-5.3,3.601-5.3,3.601c-5.5,8.399-5.9,18.6-6.2,25c-0.2,4.5,0.7,6.1,1.9,6.6c14.3,5.8,54.9,5.8,69.2,0
	C86.2,90.1,87.1,88.4,87,84z"/>
<path fill="#FF6300" d="M50.9,56.1h-0.5c-1.5,0-3-0.3-4.5-0.8l4.1,6.3L46.4,65.2l3.7,23.2c0,0.199,0.2,0.3,0.4,0.3
	s0.4-0.101,0.4-0.3L54.6,65.2L51,61.6l4-6.199C53.7,55.8,52.3,56,50.9,56.1z"/>
</svg>
