<?xml version="1.0" encoding="utf-8"?>
<!-- Generator: Adobe Illustrator 16.0.0, SVG Export Plug-In . SVG Version: 6.00 Build 0)  -->
<!DOCTYPE svg PUBLIC "-//W3C//DTD SVG 1.1//EN" "http://www.w3.org/Graphics/SVG/1.1/DTD/svg11.dtd">
<svg version="1.1" id="Layer_1" xmlns="http://www.w3.org/2000/svg" xmlns:xlink="http://www.w3.org/1999/xlink" x="0px" y="0px"
	 width="512px" height="512px" viewBox="0 0 512 512" enable-background="new 0 0 512 512" xml:space="preserve">
<path fill="#E5E5E5" d="M18.074,504.468c-2.79,0-5.505-1.104-7.518-3.14c-2.654-2.685-3.677-6.582-2.68-10.226l32.306-117.97
	c-20.113-36.37-30.717-77.514-30.702-119.279C9.536,118.03,120.068,7.533,255.88,7.533c65.874,0.026,127.771,25.686,174.294,72.244
	c46.516,46.561,72.122,108.454,72.104,174.275c-0.061,135.828-110.593,246.333-246.397,246.333c0,0-0.102,0-0.106,0
	c-39.668-0.015-78.996-9.683-114.012-27.995L20.755,504.122C19.867,504.354,18.965,504.468,18.074,504.468z"/>
<path fill="#FFFFFF" d="M10.895,501.105l34.469-125.871c-21.262-36.84-32.445-78.629-32.43-121.441
	C12.989,119.859,121.981,10.895,255.91,10.895c64.992,0.027,125.996,25.324,171.871,71.238
	c45.871,45.914,71.125,106.945,71.102,171.855c-0.059,133.93-109.066,242.91-242.973,242.91c-0.008,0,0.004,0,0,0h-0.105
	c-40.664-0.016-80.617-10.215-116.105-29.57L10.895,501.105z M145.664,423.355l7.379,4.371c31,18.398,66.543,28.129,102.789,28.148
	h0.078c111.305,0,201.898-90.578,201.945-201.902c0.02-53.949-20.965-104.68-59.094-142.84
	c-38.133-38.16-88.832-59.188-142.777-59.211C144.59,51.922,54,142.488,53.957,253.809c-0.016,38.148,10.656,75.297,30.875,107.445
	l4.805,7.641l-20.406,74.5L145.664,423.355z"/>
<path fill="#64B161" d="M19.344,492.625l33.277-121.52c-20.531-35.563-31.324-75.91-31.313-117.234
	C21.36,124.574,126.582,19.383,255.867,19.383c62.75,0.027,121.645,24.449,165.922,68.773
	c44.289,44.324,68.664,103.242,68.641,165.898c-0.055,129.301-105.281,234.504-234.551,234.504c-0.012,0,0.004,0,0,0h-0.105
	c-39.254-0.016-77.828-9.867-112.086-28.539L19.344,492.625z"/>
<g>
	<path fill="#FFFFFF" d="M10.895,501.105l34.469-125.871c-21.262-36.84-32.445-78.629-32.43-121.441
		C12.989,119.859,121.981,10.895,255.91,10.895c64.992,0.027,125.996,25.324,171.871,71.238
		c45.871,45.914,71.125,106.945,71.102,171.855c-0.059,133.93-109.066,242.91-242.973,242.91c-0.008,0,0.004,0,0,0h-0.105
		c-40.664-0.016-80.617-10.215-116.105-29.57L10.895,501.105z M145.664,423.355l7.379,4.371c31,18.398,66.543,28.129,102.789,28.148
		h0.078c111.305,0,201.898-90.578,201.945-201.902c0.02-53.949-20.965-104.68-59.094-142.84
		c-38.133-38.16-88.832-59.188-142.777-59.211C144.59,51.922,54,142.488,53.957,253.809c-0.016,38.148,10.656,75.297,30.875,107.445
		l4.805,7.641l-20.406,74.5L145.664,423.355z"/>
	<path fill="#FFFFFF" d="M195.184,152.246c-4.547-10.109-9.336-10.313-13.664-10.488c-3.539-0.152-7.59-0.145-11.633-0.145
		c-4.047,0-10.625,1.523-16.188,7.598c-5.566,6.074-21.254,20.762-21.254,50.633c0,29.875,21.758,58.738,24.793,62.793
		c3.035,4.051,42,67.309,103.707,91.645c51.285,20.227,61.719,16.203,72.852,15.191s35.918-14.688,40.977-28.863
		c5.063-14.176,5.063-26.324,3.543-28.867c-1.52-2.527-5.566-4.047-11.637-7.082s-35.918-17.727-41.484-19.75
		c-5.566-2.027-9.613-3.035-13.66,3.043c-4.051,6.07-15.676,19.742-19.219,23.789c-3.543,4.059-7.086,4.566-13.156,1.527
		c-6.07-3.043-25.625-9.449-48.82-30.133c-18.047-16.09-30.234-35.965-33.777-42.043c-3.539-6.07-0.059-9.07,2.668-12.387
		c4.91-5.973,13.148-16.711,15.172-20.758c2.023-4.055,1.012-7.598-0.504-10.637C212.379,194.277,200.578,164.254,195.184,152.246z"
		/>
</g>
</svg>
